NotoSerifMyanmar-Condensed.ufo
<glyph name="question" format="2">
  <advance width="539"/>
  <unicode hex="003F"/>
  <outline>
    <contour>
      <point x="290" y="349" type="line"/>
      <point x="329" y="470"/>
      <point x="487" y="516"/>
      <point x="487" y="742" type="curve" smooth="yes"/>
      <point x="487" y="877"/>
      <point x="413" y="978"/>
      <point x="278" y="978" type="curve" smooth="yes"/>
      <point x="144" y="978"/>
      <point x="62" y="893"/>
      <point x="62" y="746" type="curve" smooth="yes"/>
      <point x="62" y="728"/>
      <point x="63" y="716"/>
      <point x="65" y="707" type="curve"/>
      <point x="132" y="707" type="line"/>
      <point x="132" y="717" type="line" smooth="yes"/>
      <point x="132" y="819"/>
      <point x="197" y="850"/>
      <point x="267" y="850" type="curve" smooth="yes"/>
      <point x="347" y="850"/>
      <point x="391" y="794"/>
      <point x="391" y="716" type="curve" smooth="yes"/>
      <point x="391" y="544"/>
      <point x="209" y="481"/>
      <point x="216" y="349" type="curve"/>
    </contour>
    <contour>
      <point x="254" y="-16" type="curve" smooth="yes"/>
      <point x="323" y="-16"/>
      <point x="364" y="37"/>
      <point x="364" y="114" type="curve" smooth="yes"/>
      <point x="364" y="193"/>
      <point x="323" y="246"/>
      <point x="254" y="246" type="curve" smooth="yes"/>
      <point x="185" y="246"/>
      <point x="144" y="193"/>
      <point x="144" y="114" type="curve" smooth="yes"/>
      <point x="144" y="37"/>
      <point x="185" y="-16"/>
    </contour>
    <contour>
      <point x="254" y="62" type="curve" smooth="yes"/>
      <point x="212" y="62"/>
      <point x="194" y="84"/>
      <point x="194" y="114" type="curve" smooth="yes"/>
      <point x="194" y="145"/>
      <point x="212" y="168"/>
      <point x="254" y="168" type="curve" smooth="yes"/>
      <point x="296" y="168"/>
      <point x="314" y="145"/>
      <point x="314" y="114" type="curve" smooth="yes"/>
      <point x="314" y="84"/>
      <point x="296" y="62"/>
    </contour>
  </outline>
</glyph>
<glyph name="ka" format="2">
  <advance width="778"/>
  <unicode hex="1000"/>
  <outline>
    <contour>
      <point x="281" y="-9" type="line"/>
      <point x="332" y="-4"/>
      <point x="370" y="26"/>
      <point x="398" y="74" type="curve" smooth="yes"/>
      <point x="425" y="120"/>
      <point x="436" y="182"/>
      <point x="436" y="268" type="curve" smooth="yes"/>
      <point x="436" y="354"/>
      <point x="425" y="416"/>
      <point x="398" y="462" type="curve" smooth="yes"/>
      <point x="367" y="514"/>
      <point x="316" y="545"/>
      <point x="252" y="545" type="curve" smooth="yes"/>
      <point x="236" y="545" type="line" smooth="yes"/>
      <point x="172" y="545"/>
      <point x="121" y="514"/>
      <point x="90" y="462" type="curve" smooth="yes"/>
      <point x="63" y="416"/>
      <point x="52" y="354"/>
      <point x="52" y="268" type="curve" smooth="yes"/>
      <point x="52" y="182"/>
      <point x="63" y="120"/>
      <point x="90" y="74" type="curve" smooth="yes"/>
      <point x="119" y="25"/>
      <point x="156" y="-4"/>
      <point x="207" y="-9" type="curve"/>
      <point x="207" y="117" type="line"/>
      <point x="151" y="128"/>
      <point x="114" y="179"/>
      <point x="114" y="259" type="curve" smooth="yes"/>
      <point x="114" y="277" type="line" smooth="yes"/>
      <point x="114" y="369"/>
      <point x="168" y="421"/>
      <point x="244" y="421" type="curve" smooth="yes"/>
      <point x="320" y="421"/>
      <point x="374" y="369"/>
      <point x="374" y="277" type="curve" smooth="yes"/>
      <point x="374" y="259" type="line" smooth="yes"/>
      <point x="374" y="179"/>
      <point x="337" y="128"/>
      <point x="281" y="117" type="curve"/>
    </contour>
    <contour>
      <point x="380" y="462" type="curve"/>
      <point x="422" y="357" type="line"/>
      <point x="444" y="398"/>
      <point x="484" y="421"/>
      <point x="534" y="421" type="curve" smooth="yes"/>
      <point x="610" y="421"/>
      <point x="664" y="369"/>
      <point x="664" y="277" type="curve" smooth="yes"/>
      <point x="664" y="259" type="line" smooth="yes"/>
      <point x="664" y="167"/>
      <point x="610" y="115"/>
      <point x="534" y="115" type="curve" smooth="yes"/>
      <point x="494" y="115" type="line"/>
      <point x="494" y="-6" type="line"/>
      <point x="505" y="-8"/>
      <point x="520" y="-9"/>
      <point x="542" y="-9" type="curve" smooth="yes"/>
      <point x="606" y="-9"/>
      <point x="657" y="22"/>
      <point x="688" y="74" type="curve" smooth="yes"/>
      <point x="715" y="120"/>
      <point x="726" y="182"/>
      <point x="726" y="268" type="curve" smooth="yes"/>
      <point x="726" y="354"/>
      <point x="715" y="416"/>
      <point x="688" y="462" type="curve" smooth="yes"/>
      <point x="657" y="514"/>
      <point x="606" y="545"/>
      <point x="542" y="545" type="curve" smooth="yes"/>
      <point x="526" y="545" type="line" smooth="yes"/>
      <point x="462" y="545"/>
      <point x="411" y="514"/>
    </contour>
  </outline>
</glyph>
<glyph name="gha" format="2">
  <advance width="778"/>
  <unicode hex="1003"/>
  <outline>
    <contour>
      <point x="232" y="-9" type="curve" smooth="yes"/>
      <point x="241" y="-9" type="line" smooth="yes"/>
      <point x="316" y="-9"/>
      <point x="368" y="21"/>
      <point x="398" y="74" type="curve" smooth="yes"/>
      <point x="425" y="120"/>
      <point x="436" y="182"/>
      <point x="436" y="268" type="curve" smooth="yes"/>
      <point x="436" y="354"/>
      <point x="425" y="416"/>
      <point x="396" y="465" type="curve" smooth="yes"/>
      <point x="370" y="510"/>
      <point x="332" y="540"/>
      <point x="281" y="545" type="curve"/>
      <point x="281" y="419" type="line"/>
      <point x="337" y="408"/>
      <point x="374" y="357"/>
      <point x="374" y="277" type="curve" smooth="yes"/>
      <point x="374" y="259" type="line" smooth="yes"/>
      <point x="374" y="167"/>
      <point x="323" y="115"/>
      <point x="246" y="115" type="curve" smooth="yes"/>
      <point x="182" y="115"/>
      <point x="134" y="151"/>
      <point x="134" y="215" type="curve" smooth="yes"/>
      <point x="134" y="306"/>
      <point x="219" y="337"/>
      <point x="219" y="439" type="curve" smooth="yes"/>
      <point x="219" y="505"/>
      <point x="183" y="545"/>
      <point x="131" y="545" type="curve" smooth="yes"/>
      <point x="73" y="545"/>
      <point x="27" y="496"/>
      <point x="37" y="401" type="curve"/>
      <point x="76" y="401" type="line"/>
      <point x="80" y="420"/>
      <point x="90" y="438"/>
      <point x="113" y="438" type="curve" smooth="yes"/>
      <point x="127" y="438"/>
      <point x="143" y="431"/>
      <point x="143" y="403" type="curve" smooth="yes"/>
      <point x="143" y="332"/>
      <point x="52" y="296"/>
      <point x="52" y="174" type="curve" smooth="yes"/>
      <point x="52" y="66"/>
      <point x="119" y="-9"/>
    </contour>
    <contour>
      <point x="380" y="74" type="line"/>
      <point x="411" y="22"/>
      <point x="462" y="-9"/>
      <point x="526" y="-9" type="curve" smooth="yes"/>
      <point x="542" y="-9" type="line" smooth="yes"/>
      <point x="606" y="-9"/>
      <point x="657" y="22"/>
      <point x="688" y="74" type="curve" smooth="yes"/>
      <point x="715" y="120"/>
      <point x="726" y="182"/>
      <point x="726" y="268" type="curve" smooth="yes"/>
      <point x="726" y="354"/>
      <point x="715" y="416"/>
      <point x="688" y="462" type="curve" smooth="yes"/>
      <point x="657" y="514"/>
      <point x="606" y="545"/>
      <point x="542" y="545" type="curve" smooth="yes"/>
      <point x="520" y="545"/>
      <point x="505" y="544"/>
      <point x="494" y="542" type="curve"/>
      <point x="494" y="421" type="line"/>
      <point x="534" y="421" type="line" smooth="yes"/>
      <point x="610" y="421"/>
      <point x="664" y="369"/>
      <point x="664" y="277" type="curve" smooth="yes"/>
      <point x="664" y="259" type="line" smooth="yes"/>
      <point x="664" y="167"/>
      <point x="610" y="115"/>
      <point x="534" y="115" type="curve" smooth="yes"/>
      <point x="484" y="115"/>
      <point x="444" y="138"/>
      <point x="422" y="179" type="curve"/>
    </contour>
  </outline>
</glyph>
<glyph name="nga" format="2">
  <advance width="488"/>
  <unicode hex="1004"/>
  <outline>
    <contour>
      <point x="370" y="213" type="line"/>
      <point x="365" y="155"/>
      <point x="319" y="115"/>
      <point x="244" y="115" type="curve" smooth="yes"/>
      <point x="168" y="115"/>
      <point x="114" y="167"/>
      <point x="114" y="259" type="curve" smooth="yes"/>
      <point x="114" y="277" type="line" smooth="yes"/>
      <point x="114" y="369"/>
      <point x="168" y="421"/>
      <point x="244" y="421" type="curve" smooth="yes"/>
      <point x="319" y="421"/>
      <point x="365" y="381"/>
      <point x="370" y="323" type="curve"/>
      <point x="433" y="323" type="line"/>
      <point x="433" y="408"/>
      <point x="390" y="545"/>
      <point x="252" y="545" type="curve" smooth="yes"/>
      <point x="236" y="545" type="line" smooth="yes"/>
      <point x="172" y="545"/>
      <point x="121" y="514"/>
      <point x="90" y="462" type="curve" smooth="yes"/>
      <point x="63" y="416"/>
      <point x="52" y="354"/>
      <point x="52" y="268" type="curve" smooth="yes"/>
      <point x="52" y="182"/>
      <point x="63" y="120"/>
      <point x="90" y="74" type="curve" smooth="yes"/>
      <point x="121" y="22"/>
      <point x="172" y="-9"/>
      <point x="236" y="-9" type="curve" smooth="yes"/>
      <point x="252" y="-9" type="line" smooth="yes"/>
      <point x="358" y="-9"/>
      <point x="429" y="77"/>
      <point x="433" y="213" type="curve"/>
    </contour>
  </outline>
</glyph>
<glyph name="ca" format="2">
  <advance width="488"/>
  <unicode hex="1005"/>
  <note>
ca
</note>
  <outline>
    <contour>
      <point x="164" y="167" type="curve" smooth="yes"/>
      <point x="258" y="167"/>
      <point x="290" y="196"/>
      <point x="290" y="268" type="curve" smooth="yes"/>
      <point x="290" y="335"/>
      <point x="258" y="369"/>
      <point x="164" y="369" type="curve" smooth="yes"/>
      <point x="84" y="369"/>
      <point x="57" y="340"/>
      <point x="57" y="268" type="curve" smooth="yes"/>
      <point x="57" y="196"/>
      <point x="84" y="167"/>
    </contour>
    <contour>
      <point x="153" y="219" type="curve" smooth="yes"/>
      <point x="113" y="219"/>
      <point x="101" y="237"/>
      <point x="101" y="270" type="curve" smooth="yes"/>
      <point x="101" y="300"/>
      <point x="113" y="317"/>
      <point x="153" y="317" type="curve" smooth="yes"/>
      <point x="191" y="317"/>
      <point x="204" y="300"/>
      <point x="204" y="270" type="curve" smooth="yes"/>
      <point x="204" y="237"/>
      <point x="191" y="219"/>
    </contour>
    <contour>
      <point x="236" y="545" type="line" smooth="yes"/>
      <point x="172" y="545"/>
      <point x="121" y="514"/>
      <point x="90" y="462" type="curve" smooth="yes"/>
      <point x="63" y="416"/>
      <point x="52" y="354"/>
      <point x="52" y="268" type="curve" smooth="yes"/>
      <point x="52" y="182"/>
      <point x="63" y="120"/>
      <point x="90" y="74" type="curve" smooth="yes"/>
      <point x="121" y="22"/>
      <point x="172" y="-9"/>
      <point x="236" y="-9" type="curve" smooth="yes"/>
      <point x="252" y="-9" type="line" smooth="yes"/>
      <point x="316" y="-9"/>
      <point x="367" y="22"/>
      <point x="398" y="74" type="curve" smooth="yes"/>
      <point x="425" y="120"/>
      <point x="436" y="182"/>
      <point x="436" y="268" type="curve" smooth="yes"/>
      <point x="436" y="354"/>
      <point x="425" y="416"/>
      <point x="398" y="462" type="curve" smooth="yes"/>
      <point x="367" y="514"/>
      <point x="316" y="545"/>
      <point x="252" y="545" type="curve" smooth="yes"/>
    </contour>
    <contour>
      <point x="236" y="107" type="curve" smooth="yes"/>
      <point x="155" y="107"/>
      <point x="98" y="159"/>
      <point x="98" y="258" type="curve" smooth="yes"/>
      <point x="98" y="278" type="line" smooth="yes"/>
      <point x="98" y="377"/>
      <point x="155" y="429"/>
      <point x="236" y="429" type="curve" smooth="yes"/>
      <point x="317" y="429"/>
      <point x="374" y="377"/>
      <point x="374" y="278" type="curve" smooth="yes"/>
      <point x="374" y="258" type="line" smooth="yes"/>
      <point x="374" y="159"/>
      <point x="317" y="107"/>
    </contour>
  </outline>
</glyph>
<glyph name="cha" format="2">
  <advance width="775"/>
  <unicode hex="1006"/>
  <note>
cha
</note>
  <outline>
    <contour>
      <point x="420" y="178" type="curve"/>
      <point x="377" y="74" type="line"/>
      <point x="408" y="22"/>
      <point x="459" y="-10"/>
      <point x="523" y="-10" type="curve" smooth="yes"/>
      <point x="539" y="-10" type="line" smooth="yes"/>
      <point x="603" y="-10"/>
      <point x="654" y="22"/>
      <point x="685" y="74" type="curve" smooth="yes"/>
      <point x="713" y="121"/>
      <point x="723" y="183"/>
      <point x="723" y="268" type="curve" smooth="yes"/>
      <point x="723" y="353"/>
      <point x="712" y="415"/>
      <point x="685" y="462" type="curve" smooth="yes"/>
      <point x="654" y="514"/>
      <point x="603" y="546"/>
      <point x="539" y="546" type="curve" smooth="yes"/>
      <point x="523" y="546" type="line" smooth="yes"/>
      <point x="459" y="546"/>
      <point x="408" y="514"/>
      <point x="377" y="462" type="curve"/>
      <point x="420" y="358" type="line"/>
      <point x="442" y="399"/>
      <point x="481" y="419"/>
      <point x="531" y="419" type="curve" smooth="yes"/>
      <point x="607" y="419"/>
      <point x="660" y="371"/>
      <point x="660" y="277" type="curve" smooth="yes"/>
      <point x="660" y="259" type="line" smooth="yes"/>
      <point x="660" y="165"/>
      <point x="607" y="117"/>
      <point x="531" y="117" type="curve" smooth="yes"/>
      <point x="481" y="117"/>
      <point x="442" y="137"/>
    </contour>
    <component base="kha"/>
  </outline>
</glyph>
<glyph name="ja" format="2">
  <advance width="517"/>
  <unicode hex="1007"/>
  <note>
ja
</note>
  <outline>
    <contour>
      <point x="244" y="421" type="curve"/>
      <point x="249" y="511" type="line"/>
      <point x="211" y="480"/>
      <point x="194" y="432"/>
      <point x="194" y="385" type="curve" smooth="yes"/>
      <point x="194" y="332"/>
      <point x="210" y="268"/>
      <point x="313" y="268" type="curve" smooth="yes"/>
      <point x="416" y="268"/>
      <point x="432" y="332"/>
      <point x="432" y="385" type="curve" smooth="yes"/>
      <point x="432" y="463"/>
      <point x="386" y="545"/>
      <point x="269" y="545" type="curve" smooth="yes"/>
      <point x="259" y="545" type="line" smooth="yes"/>
      <point x="176" y="545"/>
      <point x="121" y="514"/>
      <point x="90" y="462" type="curve" smooth="yes"/>
      <point x="63" y="416"/>
      <point x="52" y="354"/>
      <point x="52" y="268" type="curve" smooth="yes"/>
      <point x="52" y="182"/>
      <point x="63" y="120"/>
      <point x="90" y="74" type="curve" smooth="yes"/>
      <point x="121" y="22"/>
      <point x="172" y="-9"/>
      <point x="236" y="-9" type="curve" smooth="yes"/>
      <point x="252" y="-9" type="line" smooth="yes"/>
      <point x="390" y="-9"/>
      <point x="433" y="128"/>
      <point x="433" y="213" type="curve"/>
      <point x="370" y="213" type="line"/>
      <point x="365" y="155"/>
      <point x="319" y="115"/>
      <point x="244" y="115" type="curve" smooth="yes"/>
      <point x="168" y="115"/>
      <point x="114" y="167"/>
      <point x="114" y="259" type="curve" smooth="yes"/>
      <point x="114" y="277" type="line" smooth="yes"/>
      <point x="114" y="369"/>
      <point x="168" y="421"/>
    </contour>
    <contour>
      <point x="313" y="421" type="curve" smooth="yes"/>
      <point x="356" y="421"/>
      <point x="372" y="401"/>
      <point x="372" y="372" type="curve" smooth="yes"/>
      <point x="372" y="345"/>
      <point x="351" y="331"/>
      <point x="321" y="331" type="curve" smooth="yes"/>
      <point x="305" y="331" type="line" smooth="yes"/>
      <point x="275" y="331"/>
      <point x="254" y="345"/>
      <point x="254" y="372" type="curve" smooth="yes"/>
      <point x="254" y="401"/>
      <point x="270" y="421"/>
    </contour>
    <contour>
      <point x="510" y="308" type="line"/>
      <point x="469" y="309"/>
      <point x="426" y="313"/>
      <point x="426" y="385" type="curve"/>
      <point x="377" y="368" type="line"/>
      <point x="377" y="281"/>
      <point x="438" y="248"/>
      <point x="510" y="252" type="curve"/>
    </contour>
  </outline>
</glyph>
<glyph name="jha" format="2">
  <advance width="678"/>
  <unicode hex="1008"/>
  <outline>
    <contour>
      <point x="620" y="536" type="line"/>
      <point x="546" y="536" type="line"/>
      <point x="546" y="-313" type="line" smooth="yes"/>
      <point x="546" y="-388"/>
      <point x="524" y="-414"/>
      <point x="457" y="-414" type="curve" smooth="yes"/>
      <point x="390" y="-414"/>
      <point x="368" y="-388"/>
      <point x="368" y="-313" type="curve" smooth="yes"/>
      <point x="368" y="69" type="line"/>
      <point x="294" y="69" type="line"/>
      <point x="294" y="-347" type="line" smooth="yes"/>
      <point x="294" y="-478"/>
      <point x="339" y="-541"/>
      <point x="457" y="-541" type="curve" smooth="yes"/>
      <point x="575" y="-541"/>
      <point x="620" y="-481"/>
      <point x="620" y="-347" type="curve" smooth="yes"/>
    </contour>
    <component base="ca"/>
  </outline>
</glyph>
<glyph name="nnya" format="2">
  <advance width="783"/>
  <unicode hex="100A"/>
  <outline>
    <contour>
      <point x="731" y="-293" type="line"/>
      <point x="667" y="-293" type="line"/>
      <point x="667" y="-295" type="line" smooth="yes"/>
      <point x="667" y="-348"/>
      <point x="650" y="-381"/>
      <point x="612" y="-396" type="curve" smooth="yes"/>
      <point x="569" y="-412"/>
      <point x="498" y="-415"/>
      <point x="396" y="-415" type="curve" smooth="yes"/>
      <point x="297" y="-415"/>
      <point x="220" y="-412"/>
      <point x="183" y="-397" type="curve" smooth="yes"/>
      <point x="145" y="-381"/>
      <point x="127" y="-348"/>
      <point x="127" y="-295" type="curve" smooth="yes"/>
      <point x="127" y="111" type="line"/>
      <point x="55" y="213" type="line"/>
      <point x="55" y="-327" type="line" smooth="yes"/>
      <point x="55" y="-432"/>
      <point x="84" y="-476"/>
      <point x="120" y="-501" type="curve" smooth="yes"/>
      <point x="169" y="-537"/>
      <point x="260" y="-541"/>
      <point x="394" y="-541" type="curve" smooth="yes"/>
      <point x="528" y="-541"/>
      <point x="614" y="-537"/>
      <point x="667" y="-500" type="curve" smooth="yes"/>
      <point x="702" y="-476"/>
      <point x="731" y="-432"/>
      <point x="731" y="-327" type="curve" smooth="yes"/>
    </contour>
    <component base="nga" xScale="-1" yScale="-1" xOffset="488" yOffset="536"/>
    <component base="_aa" yScale="-1" xOffset="493" yOffset="536"/>
  </outline>
</glyph>
<glyph name="tta" format="2">
  <advance width="488"/>
  <unicode hex="100B"/>
  <outline>
    <contour>
      <point x="52" y="19" type="line"/>
      <point x="52" y="-182" type="line" smooth="yes"/>
      <point x="52" y="-287"/>
      <point x="70" y="-330"/>
      <point x="91" y="-353" type="curve" smooth="yes"/>
      <point x="123" y="-391"/>
      <point x="177" y="-396"/>
      <point x="242" y="-396" type="curve" smooth="yes"/>
      <point x="307" y="-396"/>
      <point x="362" y="-391"/>
      <point x="394" y="-353" type="curve" smooth="yes"/>
      <point x="415" y="-330"/>
      <point x="433" y="-292"/>
      <point x="433" y="-187" type="curve" smooth="yes"/>
      <point x="433" y="-185" type="line"/>
      <point x="369" y="-185" type="line"/>
      <point x="369" y="-230"/>
      <point x="361" y="-257"/>
      <point x="341" y="-272" type="curve" smooth="yes"/>
      <point x="323" y="-285"/>
      <point x="282" y="-287"/>
      <point x="246" y="-287" type="curve" smooth="yes"/>
      <point x="209" y="-287"/>
      <point x="170" y="-285"/>
      <point x="152" y="-270" type="curve" smooth="yes"/>
      <point x="133" y="-255"/>
      <point x="124" y="-223"/>
      <point x="124" y="-170" type="curve" smooth="yes"/>
      <point x="124" y="-90" type="line"/>
    </contour>
    <contour>
      <point x="433" y="218" type="line"/>
      <point x="361" y="163" type="line"/>
      <point x="361" y="29" type="line" smooth="yes"/>
      <point x="361" y="-24"/>
      <point x="352" y="-56"/>
      <point x="333" y="-71" type="curve" smooth="yes"/>
      <point x="315" y="-86"/>
      <point x="276" y="-88"/>
      <point x="239" y="-88" type="curve" smooth="yes"/>
      <point x="203" y="-88"/>
      <point x="162" y="-86"/>
      <point x="144" y="-71" type="curve" smooth="yes"/>
      <point x="125" y="-56"/>
      <point x="116" y="-24"/>
      <point x="116" y="27" type="curve" smooth="yes"/>
      <point x="116" y="29" type="line"/>
      <point x="52" y="29" type="line"/>
      <point x="52" y="12" type="line" smooth="yes"/>
      <point x="52" y="-93"/>
      <point x="70" y="-131"/>
      <point x="91" y="-154" type="curve" smooth="yes"/>
      <point x="123" y="-192"/>
      <point x="178" y="-197"/>
      <point x="243" y="-197" type="curve" smooth="yes"/>
      <point x="308" y="-197"/>
      <point x="362" y="-192"/>
      <point x="394" y="-154" type="curve" smooth="yes"/>
      <point x="415" y="-131"/>
      <point x="433" y="-88"/>
      <point x="433" y="17" type="curve" smooth="yes"/>
    </contour>
    <contour>
      <point x="514" y="-412" type="line"/>
      <point x="510" y="-412" type="line" smooth="yes"/>
      <point x="451" y="-412"/>
      <point x="433" y="-388"/>
      <point x="433" y="-304" type="curve" smooth="yes"/>
      <point x="433" y="-186" type="line"/>
      <point x="369" y="-290" type="line"/>
      <point x="369" y="-338" type="line" smooth="yes"/>
      <point x="369" y="-495"/>
      <point x="411" y="-541"/>
      <point x="492" y="-541" type="curve" smooth="yes"/>
      <point x="502" y="-541"/>
      <point x="509" y="-540"/>
      <point x="514" y="-539" type="curve"/>
    </contour>
    <component base="nga" yScale="0.984" yOffset="9"/>
  </outline>
</glyph>
<glyph name="ttha" format="2">
  <advance width="488"/>
  <unicode hex="100C"/>
  <note>
ttha
</note>
  <outline>
    <contour>
      <point x="433" y="213" type="line"/>
      <point x="361" y="173" type="line"/>
      <point x="361" y="-297" type="line" smooth="yes"/>
      <point x="361" y="-361"/>
      <point x="352" y="-387"/>
      <point x="334" y="-400" type="curve" smooth="yes"/>
      <point x="313" y="-420"/>
      <point x="278" y="-421"/>
      <point x="231" y="-421" type="curve" smooth="yes"/>
      <point x="165" y="-421"/>
      <point x="111" y="-411"/>
      <point x="111" y="-361" type="curve" smooth="yes"/>
      <point x="111" y="-333"/>
      <point x="128" y="-306"/>
      <point x="177" y="-306" type="curve" smooth="yes"/>
      <point x="220" y="-306"/>
      <point x="240" y="-331"/>
      <point x="243" y="-361" type="curve"/>
      <point x="327" y="-361" type="line"/>
      <point x="321" y="-287"/>
      <point x="274" y="-244"/>
      <point x="193" y="-244" type="curve" smooth="yes"/>
      <point x="95" y="-244"/>
      <point x="52" y="-307"/>
      <point x="52" y="-389" type="curve" smooth="yes"/>
      <point x="52" y="-444"/>
      <point x="69" y="-481"/>
      <point x="93" y="-503" type="curve" smooth="yes"/>
      <point x="126" y="-534"/>
      <point x="177" y="-541"/>
      <point x="241" y="-541" type="curve" smooth="yes"/>
      <point x="314" y="-541"/>
      <point x="360" y="-532"/>
      <point x="392" y="-497" type="curve" smooth="yes"/>
      <point x="415" y="-473"/>
      <point x="433" y="-433"/>
      <point x="433" y="-333" type="curve" smooth="yes"/>
    </contour>
    <component base="nga"/>
  </outline>
</glyph>
<glyph name="dda" format="2">
  <advance width="488"/>
  <unicode hex="100D"/>
  <note>
dda
</note>
  <outline>
    <contour>
      <point x="55" y="213" type="line"/>
      <point x="55" y="-19" type="line" smooth="yes"/>
      <point x="55" y="-124"/>
      <point x="73" y="-167"/>
      <point x="94" y="-190" type="curve" smooth="yes"/>
      <point x="126" y="-228"/>
      <point x="180" y="-233"/>
      <point x="245" y="-233" type="curve" smooth="yes"/>
      <point x="310" y="-233"/>
      <point x="365" y="-228"/>
      <point x="397" y="-190" type="curve" smooth="yes"/>
      <point x="418" y="-167"/>
      <point x="436" y="-124"/>
      <point x="436" y="-19" type="curve" smooth="yes"/>
      <point x="436" y="6" type="line"/>
      <point x="372" y="6" type="line"/>
      <point x="372" y="-48"/>
      <point x="363" y="-80"/>
      <point x="344" y="-95" type="curve" smooth="yes"/>
      <point x="326" y="-110"/>
      <point x="285" y="-112"/>
      <point x="249" y="-112" type="curve" smooth="yes"/>
      <point x="212" y="-112"/>
      <point x="173" y="-110"/>
      <point x="155" y="-95" type="curve" smooth="yes"/>
      <point x="136" y="-80"/>
      <point x="127" y="-48"/>
      <point x="127" y="6" type="curve" smooth="yes"/>
      <point x="127" y="163" type="line"/>
    </contour>
    <contour>
      <point x="517" y="-412" type="line"/>
      <point x="513" y="-412" type="line" smooth="yes"/>
      <point x="454" y="-412"/>
      <point x="436" y="-388"/>
      <point x="436" y="-304" type="curve" smooth="yes"/>
      <point x="436" y="-7" type="line"/>
      <point x="372" y="-132" type="line"/>
      <point x="372" y="-338" type="line" smooth="yes"/>
      <point x="372" y="-495"/>
      <point x="414" y="-541"/>
      <point x="500" y="-541" type="curve" smooth="yes"/>
      <point x="503" y="-541"/>
      <point x="512" y="-541"/>
      <point x="517" y="-540" type="curve"/>
    </contour>
    <component base="nga" xScale="-1" xOffset="488"/>
  </outline>
</glyph>
<glyph name="nna" format="2">
  <advance width="854"/>
  <unicode hex="100F"/>
  <note>
nna
</note>
  <outline>
    <contour>
      <point x="570" y="115" type="line"/>
      <point x="570" y="-6" type="line"/>
      <point x="581" y="-8"/>
      <point x="596" y="-9"/>
      <point x="618" y="-9" type="curve" smooth="yes"/>
      <point x="682" y="-9"/>
      <point x="733" y="22"/>
      <point x="764" y="74" type="curve" smooth="yes"/>
      <point x="791" y="120"/>
      <point x="802" y="182"/>
      <point x="802" y="268" type="curve" smooth="yes"/>
      <point x="802" y="354"/>
      <point x="791" y="416"/>
      <point x="764" y="462" type="curve" smooth="yes"/>
      <point x="734" y="514"/>
      <point x="685" y="545"/>
      <point x="623" y="545" type="curve" smooth="yes"/>
      <point x="607" y="545" type="line" smooth="yes"/>
      <point x="510" y="545"/>
      <point x="448" y="449"/>
      <point x="448" y="338" type="curve" smooth="yes"/>
      <point x="448" y="279"/>
      <point x="466" y="216"/>
      <point x="466" y="162" type="curve" smooth="yes"/>
      <point x="466" y="121"/>
      <point x="455" y="92"/>
      <point x="427" y="92" type="curve" smooth="yes"/>
      <point x="399" y="92"/>
      <point x="388" y="121"/>
      <point x="388" y="162" type="curve" smooth="yes"/>
      <point x="388" y="216"/>
      <point x="406" y="279"/>
      <point x="406" y="338" type="curve" smooth="yes"/>
      <point x="406" y="449"/>
      <point x="344" y="545"/>
      <point x="247" y="545" type="curve" smooth="yes"/>
      <point x="231" y="545" type="line" smooth="yes"/>
      <point x="169" y="545"/>
      <point x="120" y="514"/>
      <point x="90" y="462" type="curve" smooth="yes"/>
      <point x="63" y="416"/>
      <point x="52" y="354"/>
      <point x="52" y="268" type="curve" smooth="yes"/>
      <point x="52" y="182"/>
      <point x="63" y="120"/>
      <point x="90" y="74" type="curve" smooth="yes"/>
      <point x="121" y="22"/>
      <point x="172" y="-9"/>
      <point x="236" y="-9" type="curve" smooth="yes"/>
      <point x="258" y="-9"/>
      <point x="273" y="-8"/>
      <point x="284" y="-6" type="curve"/>
      <point x="284" y="115" type="line"/>
      <point x="244" y="115" type="line" smooth="yes"/>
      <point x="168" y="115"/>
      <point x="114" y="167"/>
      <point x="114" y="259" type="curve" smooth="yes"/>
      <point x="114" y="277" type="line" smooth="yes"/>
      <point x="114" y="369"/>
      <point x="164" y="421"/>
      <point x="235" y="421" type="curve" smooth="yes"/>
      <point x="290" y="421"/>
      <point x="345" y="388"/>
      <point x="345" y="300" type="curve" smooth="yes"/>
      <point x="345" y="243"/>
      <point x="321" y="188"/>
      <point x="321" y="121" type="curve" smooth="yes"/>
      <point x="321" y="44"/>
      <point x="355" y="-9"/>
      <point x="424" y="-9" type="curve" smooth="yes"/>
      <point x="430" y="-9" type="line" smooth="yes"/>
      <point x="499" y="-9"/>
      <point x="533" y="44"/>
      <point x="533" y="121" type="curve" smooth="yes"/>
      <point x="533" y="188"/>
      <point x="509" y="243"/>
      <point x="509" y="300" type="curve" smooth="yes"/>
      <point x="509" y="388"/>
      <point x="564" y="421"/>
      <point x="619" y="421" type="curve" smooth="yes"/>
      <point x="690" y="421"/>
      <point x="740" y="369"/>
      <point x="740" y="277" type="curve" smooth="yes"/>
      <point x="740" y="259" type="line" smooth="yes"/>
      <point x="740" y="167"/>
      <point x="686" y="115"/>
      <point x="610" y="115" type="curve" smooth="yes"/>
    </contour>
    <contour>
      <point x="427" y="545" type="curve" smooth="yes"/>
      <point x="380" y="545"/>
      <point x="346" y="512"/>
      <point x="339" y="473" type="curve"/>
      <point x="372" y="389" type="line"/>
      <point x="378" y="426"/>
      <point x="398" y="445"/>
      <point x="427" y="445" type="curve" smooth="yes"/>
      <point x="456" y="445"/>
      <point x="476" y="426"/>
      <point x="482" y="389" type="curve"/>
      <point x="515" y="473" type="line"/>
      <point x="508" y="512"/>
      <point x="474" y="545"/>
    </contour>
  </outline>
</glyph>
<glyph name="tha" format="2">
  <advance width="778"/>
  <unicode hex="1011"/>
  <note>
tha
</note>
  <outline>
    <contour>
      <point x="423" y="178" type="curve"/>
      <point x="380" y="74" type="line"/>
      <point x="411" y="22"/>
      <point x="462" y="-10"/>
      <point x="526" y="-10" type="curve" smooth="yes"/>
      <point x="542" y="-10" type="line" smooth="yes"/>
      <point x="606" y="-10"/>
      <point x="657" y="22"/>
      <point x="688" y="74" type="curve" smooth="yes"/>
      <point x="716" y="121"/>
      <point x="726" y="183"/>
      <point x="726" y="268" type="curve" smooth="yes"/>
      <point x="726" y="353"/>
      <point x="715" y="415"/>
      <point x="688" y="462" type="curve" smooth="yes"/>
      <point x="657" y="514"/>
      <point x="606" y="546"/>
      <point x="542" y="546" type="curve" smooth="yes"/>
      <point x="526" y="546" type="line" smooth="yes"/>
      <point x="462" y="546"/>
      <point x="411" y="514"/>
      <point x="380" y="462" type="curve"/>
      <point x="423" y="358" type="line"/>
      <point x="445" y="399"/>
      <point x="484" y="419"/>
      <point x="534" y="419" type="curve" smooth="yes"/>
      <point x="610" y="419"/>
      <point x="663" y="371"/>
      <point x="663" y="277" type="curve" smooth="yes"/>
      <point x="663" y="259" type="line" smooth="yes"/>
      <point x="663" y="165"/>
      <point x="610" y="117"/>
      <point x="534" y="117" type="curve" smooth="yes"/>
      <point x="484" y="117"/>
      <point x="445" y="137"/>
    </contour>
    <component base="wa"/>
  </outline>
</glyph>
<glyph name="da" format="2">
  <advance width="470"/>
  <unicode hex="1012"/>
  <note>
da
</note>
  <outline>
    <contour>
      <point x="415" y="398" type="curve" smooth="yes"/>
      <point x="414" y="483"/>
      <point x="365" y="545"/>
      <point x="251" y="545" type="curve" smooth="yes"/>
      <point x="238" y="545" type="line" smooth="yes"/>
      <point x="105" y="545"/>
      <point x="43" y="468"/>
      <point x="63" y="333" type="curve"/>
      <point x="124" y="333" type="line"/>
      <point x="120" y="404"/>
      <point x="155" y="439"/>
      <point x="233" y="439" type="curve" smooth="yes"/>
      <point x="304" y="439"/>
      <point x="326" y="409"/>
      <point x="325" y="371" type="curve" smooth="yes"/>
      <point x="326" y="333"/>
      <point x="303" y="301"/>
      <point x="231" y="301" type="curve" smooth="yes"/>
      <point x="166" y="301" type="line"/>
      <point x="166" y="235" type="line"/>
      <point x="231" y="235" type="line" smooth="yes"/>
      <point x="303" y="235"/>
      <point x="326" y="203"/>
      <point x="325" y="165" type="curve" smooth="yes"/>
      <point x="326" y="127"/>
      <point x="304" y="97"/>
      <point x="233" y="97" type="curve" smooth="yes"/>
      <point x="155" y="97"/>
      <point x="120" y="132"/>
      <point x="124" y="203" type="curve"/>
      <point x="63" y="203" type="line"/>
      <point x="43" y="68"/>
      <point x="105" y="-9"/>
      <point x="238" y="-9" type="curve" smooth="yes"/>
      <point x="251" y="-9" type="line" smooth="yes"/>
      <point x="365" y="-9"/>
      <point x="414" y="53"/>
      <point x="415" y="138" type="curve" smooth="yes"/>
      <point x="416" y="237"/>
      <point x="346" y="281"/>
      <point x="283" y="281" type="curve"/>
      <point x="283" y="255" type="line"/>
      <point x="346" y="255"/>
      <point x="416" y="299"/>
    </contour>
  </outline>
</glyph>
<glyph name="pa" format="2">
  <advance width="488"/>
  <unicode hex="1015"/>
  <outline>
    <contour>
      <point x="281" y="545" type="curve"/>
      <point x="281" y="419" type="line"/>
      <point x="337" y="408"/>
      <point x="374" y="357"/>
      <point x="374" y="277" type="curve" smooth="yes"/>
      <point x="374" y="259" type="line" smooth="yes"/>
      <point x="374" y="167"/>
      <point x="320" y="115"/>
      <point x="244" y="115" type="curve" smooth="yes"/>
      <point x="168" y="115"/>
      <point x="114" y="167"/>
      <point x="114" y="259" type="curve" smooth="yes"/>
      <point x="114" y="277" type="line" smooth="yes"/>
      <point x="114" y="357"/>
      <point x="151" y="408"/>
      <point x="207" y="419" type="curve"/>
      <point x="207" y="545" type="line"/>
      <point x="156" y="540"/>
      <point x="119" y="511"/>
      <point x="90" y="462" type="curve" smooth="yes"/>
      <point x="63" y="416"/>
      <point x="52" y="354"/>
      <point x="52" y="268" type="curve" smooth="yes"/>
      <point x="52" y="182"/>
      <point x="63" y="120"/>
      <point x="90" y="74" type="curve" smooth="yes"/>
      <point x="121" y="22"/>
      <point x="172" y="-9"/>
      <point x="236" y="-9" type="curve" smooth="yes"/>
      <point x="252" y="-9" type="line" smooth="yes"/>
      <point x="316" y="-9"/>
      <point x="367" y="22"/>
      <point x="398" y="74" type="curve" smooth="yes"/>
      <point x="425" y="120"/>
      <point x="436" y="182"/>
      <point x="436" y="268" type="curve" smooth="yes"/>
      <point x="436" y="354"/>
      <point x="425" y="416"/>
      <point x="398" y="462" type="curve" smooth="yes"/>
      <point x="370" y="510"/>
      <point x="332" y="540"/>
    </contour>
  </outline>
</glyph>
<glyph name="pha" format="2">
  <advance width="488"/>
  <unicode hex="1016"/>
  <note>
pha
</note>
  <outline>
    <contour>
      <point x="436" y="268" type="curve" smooth="yes"/>
      <point x="436" y="395"/>
      <point x="402" y="545"/>
      <point x="327" y="545" type="curve" smooth="yes"/>
      <point x="280" y="545"/>
      <point x="255" y="479"/>
      <point x="255" y="374" type="curve" smooth="yes"/>
      <point x="255" y="208"/>
      <point x="315" y="116"/>
      <point x="378" y="114" type="curve"/>
      <point x="371" y="176" type="line"/>
      <point x="341" y="191"/>
      <point x="312" y="262"/>
      <point x="312" y="346" type="curve" smooth="yes"/>
      <point x="312" y="379"/>
      <point x="316" y="418"/>
      <point x="337" y="418" type="curve" smooth="yes"/>
      <point x="359" y="418"/>
      <point x="374" y="342"/>
      <point x="374" y="277" type="curve" smooth="yes"/>
      <point x="374" y="259" type="line" smooth="yes"/>
      <point x="374" y="167"/>
      <point x="320" y="115"/>
      <point x="244" y="115" type="curve" smooth="yes"/>
      <point x="168" y="115"/>
      <point x="114" y="167"/>
      <point x="114" y="259" type="curve" smooth="yes"/>
      <point x="114" y="277" type="line" smooth="yes"/>
      <point x="114" y="357"/>
      <point x="151" y="408"/>
      <point x="207" y="419" type="curve"/>
      <point x="207" y="545" type="line"/>
      <point x="156" y="540"/>
      <point x="119" y="511"/>
      <point x="90" y="462" type="curve" smooth="yes"/>
      <point x="63" y="416"/>
      <point x="52" y="354"/>
      <point x="52" y="268" type="curve" smooth="yes"/>
      <point x="52" y="182"/>
      <point x="63" y="120"/>
      <point x="90" y="74" type="curve" smooth="yes"/>
      <point x="121" y="22"/>
      <point x="172" y="-9"/>
      <point x="236" y="-9" type="curve" smooth="yes"/>
      <point x="252" y="-9" type="line" smooth="yes"/>
      <point x="316" y="-9"/>
      <point x="367" y="22"/>
      <point x="398" y="74" type="curve" smooth="yes"/>
      <point x="425" y="120"/>
      <point x="436" y="182"/>
    </contour>
  </outline>
</glyph>
<glyph name="ba" format="2">
  <advance width="488"/>
  <unicode hex="1017"/>
  <note>
ba
</note>
  <outline>
    <contour>
      <point x="282" y="545" type="curve"/>
      <point x="284" y="527"/>
      <point x="286" y="492"/>
      <point x="286" y="463" type="curve" smooth="yes"/>
      <point x="286" y="403"/>
      <point x="271" y="376"/>
      <point x="244" y="376" type="curve" smooth="yes"/>
      <point x="217" y="376"/>
      <point x="202" y="403"/>
      <point x="202" y="463" type="curve" smooth="yes"/>
      <point x="202" y="492"/>
      <point x="204" y="527"/>
      <point x="206" y="545" type="curve"/>
      <point x="175" y="542"/>
      <point x="119" y="511"/>
      <point x="89" y="459" type="curve" smooth="yes"/>
      <point x="63" y="416"/>
      <point x="52" y="354"/>
      <point x="52" y="268" type="curve" smooth="yes"/>
      <point x="52" y="182"/>
      <point x="63" y="120"/>
      <point x="90" y="74" type="curve" smooth="yes"/>
      <point x="121" y="22"/>
      <point x="172" y="-9"/>
      <point x="236" y="-9" type="curve" smooth="yes"/>
      <point x="252" y="-9" type="line" smooth="yes"/>
      <point x="316" y="-9"/>
      <point x="367" y="22"/>
      <point x="398" y="74" type="curve" smooth="yes"/>
      <point x="425" y="120"/>
      <point x="436" y="182"/>
      <point x="436" y="268" type="curve" smooth="yes"/>
      <point x="436" y="354"/>
      <point x="425" y="416"/>
      <point x="399" y="459" type="curve" smooth="yes"/>
      <point x="369" y="511"/>
      <point x="313" y="542"/>
    </contour>
    <contour>
      <point x="244" y="255" type="curve" smooth="yes"/>
      <point x="288" y="255"/>
      <point x="319" y="297"/>
      <point x="319" y="367" type="curve" smooth="yes"/>
      <point x="319" y="400"/>
      <point x="318" y="434"/>
      <point x="311" y="468" type="curve"/>
      <point x="290" y="443" type="line"/>
      <point x="315" y="438"/>
      <point x="374" y="385"/>
      <point x="374" y="289" type="curve" smooth="yes"/>
      <point x="374" y="259" type="line" smooth="yes"/>
      <point x="374" y="167"/>
      <point x="320" y="115"/>
      <point x="244" y="115" type="curve" smooth="yes"/>
      <point x="168" y="115"/>
      <point x="114" y="167"/>
      <point x="114" y="259" type="curve" smooth="yes"/>
      <point x="114" y="289" type="line" smooth="yes"/>
      <point x="114" y="385"/>
      <point x="173" y="438"/>
      <point x="198" y="443" type="curve"/>
      <point x="177" y="468" type="line"/>
      <point x="170" y="434"/>
      <point x="169" y="400"/>
      <point x="169" y="367" type="curve" smooth="yes"/>
      <point x="169" y="297"/>
      <point x="200" y="255"/>
    </contour>
  </outline>
</glyph>
<glyph name="ma" format="2">
  <advance width="488"/>
  <unicode hex="1019"/>
  <outline>
    <contour>
      <point x="351" y="107" type="line"/>
      <point x="351" y="168" type="line" smooth="yes"/>
      <point x="351" y="236"/>
      <point x="317" y="270"/>
      <point x="244" y="270" type="curve" smooth="yes"/>
      <point x="171" y="270"/>
      <point x="137" y="236"/>
      <point x="137" y="168" type="curve" smooth="yes"/>
      <point x="137" y="107" type="line"/>
      <point x="178" y="107" type="line"/>
      <point x="178" y="147" type="line" smooth="yes"/>
      <point x="178" y="197"/>
      <point x="200" y="205"/>
      <point x="235" y="205" type="curve" smooth="yes"/>
      <point x="253" y="205" type="line" smooth="yes"/>
      <point x="288" y="205"/>
      <point x="310" y="197"/>
      <point x="310" y="147" type="curve" smooth="yes"/>
      <point x="310" y="107" type="line"/>
    </contour>
    <component base="pa"/>
  </outline>
</glyph>
<glyph name="ya" format="2">
  <advance width="778"/>
  <unicode hex="101A"/>
  <note>
ya
</note>
  <outline>
    <contour>
      <point x="281" y="545" type="curve"/>
      <point x="281" y="419" type="line"/>
      <point x="337" y="408"/>
      <point x="374" y="357"/>
      <point x="374" y="277" type="curve" smooth="yes"/>
      <point x="374" y="259" type="line" smooth="yes"/>
      <point x="374" y="167"/>
      <point x="320" y="115"/>
      <point x="244" y="115" type="curve" smooth="yes"/>
      <point x="168" y="115"/>
      <point x="114" y="167"/>
      <point x="114" y="259" type="curve" smooth="yes"/>
      <point x="114" y="277" type="line" smooth="yes"/>
      <point x="114" y="357"/>
      <point x="151" y="408"/>
      <point x="207" y="419" type="curve"/>
      <point x="207" y="545" type="line"/>
      <point x="156" y="540"/>
      <point x="119" y="511"/>
      <point x="90" y="462" type="curve" smooth="yes"/>
      <point x="63" y="416"/>
      <point x="52" y="354"/>
      <point x="52" y="268" type="curve" smooth="yes"/>
      <point x="52" y="182"/>
      <point x="63" y="120"/>
      <point x="90" y="74" type="curve" smooth="yes"/>
      <point x="121" y="22"/>
      <point x="172" y="-9"/>
      <point x="236" y="-9" type="curve" smooth="yes"/>
      <point x="252" y="-9" type="line" smooth="yes"/>
      <point x="316" y="-9"/>
      <point x="367" y="22"/>
      <point x="398" y="74" type="curve" smooth="yes"/>
      <point x="425" y="120"/>
      <point x="436" y="182"/>
      <point x="436" y="268" type="curve" smooth="yes"/>
      <point x="436" y="354"/>
      <point x="425" y="416"/>
      <point x="398" y="462" type="curve" smooth="yes"/>
      <point x="370" y="510"/>
      <point x="332" y="540"/>
    </contour>
    <contour>
      <point x="380" y="74" type="line"/>
      <point x="411" y="22"/>
      <point x="462" y="-9"/>
      <point x="526" y="-9" type="curve" smooth="yes"/>
      <point x="542" y="-9" type="line" smooth="yes"/>
      <point x="606" y="-9"/>
      <point x="657" y="22"/>
      <point x="688" y="74" type="curve" smooth="yes"/>
      <point x="715" y="120"/>
      <point x="726" y="182"/>
      <point x="726" y="268" type="curve" smooth="yes"/>
      <point x="726" y="354"/>
      <point x="715" y="416"/>
      <point x="688" y="462" type="curve" smooth="yes"/>
      <point x="657" y="514"/>
      <point x="606" y="545"/>
      <point x="542" y="545" type="curve" smooth="yes"/>
      <point x="520" y="545"/>
      <point x="505" y="544"/>
      <point x="494" y="542" type="curve"/>
      <point x="494" y="421" type="line"/>
      <point x="534" y="421" type="line" smooth="yes"/>
      <point x="610" y="421"/>
      <point x="664" y="369"/>
      <point x="664" y="277" type="curve" smooth="yes"/>
      <point x="664" y="259" type="line" smooth="yes"/>
      <point x="664" y="167"/>
      <point x="610" y="115"/>
      <point x="534" y="115" type="curve" smooth="yes"/>
      <point x="484" y="115"/>
      <point x="444" y="138"/>
      <point x="422" y="179" type="curve"/>
    </contour>
  </outline>
</glyph>
<glyph name="ra" format="2">
  <advance width="494"/>
  <unicode hex="101B"/>
  <outline>
    <contour>
      <point x="436" y="268" type="line" smooth="yes"/>
      <point x="436" y="354"/>
      <point x="425" y="416"/>
      <point x="398" y="462" type="curve" smooth="yes"/>
      <point x="367" y="514"/>
      <point x="316" y="545"/>
      <point x="252" y="545" type="curve" smooth="yes"/>
      <point x="236" y="545" type="line" smooth="yes"/>
      <point x="172" y="545"/>
      <point x="121" y="514"/>
      <point x="90" y="462" type="curve" smooth="yes"/>
      <point x="63" y="416"/>
      <point x="52" y="354"/>
      <point x="52" y="268" type="curve" smooth="yes"/>
      <point x="52" y="182"/>
      <point x="63" y="120"/>
      <point x="90" y="74" type="curve" smooth="yes"/>
      <point x="119" y="25"/>
      <point x="162" y="-9"/>
      <point x="221" y="-9" type="curve" smooth="yes"/>
      <point x="279" y="-9"/>
      <point x="330" y="31"/>
      <point x="330" y="137" type="curve" smooth="yes"/>
      <point x="330" y="227"/>
      <point x="298" y="271"/>
      <point x="221" y="271" type="curve" smooth="yes"/>
      <point x="151" y="271"/>
      <point x="109" y="251"/>
      <point x="109" y="165" type="curve" smooth="yes"/>
      <point x="109" y="127" type="line"/>
      <point x="146" y="112" type="line"/>
      <point x="146" y="150" type="line" smooth="yes"/>
      <point x="146" y="196"/>
      <point x="171" y="205"/>
      <point x="216" y="205" type="curve" smooth="yes"/>
      <point x="227" y="205" type="line" smooth="yes"/>
      <point x="267" y="205"/>
      <point x="281" y="184"/>
      <point x="281" y="161" type="curve" smooth="yes"/>
      <point x="281" y="132"/>
      <point x="261" y="115"/>
      <point x="223" y="115" type="curve" smooth="yes"/>
      <point x="209" y="115" type="line" smooth="yes"/>
      <point x="122" y="115"/>
      <point x="114" y="159"/>
      <point x="114" y="249" type="curve" smooth="yes"/>
      <point x="114" y="272" type="line" smooth="yes"/>
      <point x="114" y="369"/>
      <point x="165" y="421"/>
      <point x="243" y="421" type="curve" smooth="yes"/>
      <point x="313" y="421"/>
      <point x="364" y="369"/>
      <point x="364" y="277" type="curve" smooth="yes"/>
      <point x="364" y="-335" type="line" smooth="yes"/>
      <point x="364" y="-483"/>
      <point x="403" y="-541"/>
      <point x="518" y="-541" type="curve" smooth="yes"/>
      <point x="525" y="-541"/>
      <point x="533" y="-541"/>
      <point x="542" y="-540" type="curve"/>
      <point x="542" y="-412" type="line"/>
      <point x="510" y="-412" type="line" smooth="yes"/>
      <point x="463" y="-412"/>
      <point x="436" y="-384"/>
      <point x="436" y="-303" type="curve" smooth="yes"/>
    </contour>
  </outline>
</glyph>
<glyph name="wa" format="2">
  <advance width="488"/>
  <unicode hex="101D"/>
  <outline>
    <contour>
      <point x="236" y="545" type="line" smooth="yes"/>
      <point x="172" y="545"/>
      <point x="121" y="514"/>
      <point x="90" y="462" type="curve" smooth="yes"/>
      <point x="63" y="416"/>
      <point x="52" y="354"/>
      <point x="52" y="268" type="curve" smooth="yes"/>
      <point x="52" y="182"/>
      <point x="63" y="120"/>
      <point x="90" y="74" type="curve" smooth="yes"/>
      <point x="121" y="22"/>
      <point x="172" y="-9"/>
      <point x="236" y="-9" type="curve" smooth="yes"/>
      <point x="252" y="-9" type="line" smooth="yes"/>
      <point x="316" y="-9"/>
      <point x="367" y="22"/>
      <point x="398" y="74" type="curve" smooth="yes"/>
      <point x="425" y="120"/>
      <point x="436" y="182"/>
      <point x="436" y="268" type="curve" smooth="yes"/>
      <point x="436" y="354"/>
      <point x="425" y="416"/>
      <point x="398" y="462" type="curve" smooth="yes"/>
      <point x="367" y="514"/>
      <point x="316" y="545"/>
      <point x="252" y="545" type="curve" smooth="yes"/>
    </contour>
    <contour>
      <point x="244" y="115" type="curve" smooth="yes"/>
      <point x="168" y="115"/>
      <point x="114" y="167"/>
      <point x="114" y="259" type="curve" smooth="yes"/>
      <point x="114" y="277" type="line" smooth="yes"/>
      <point x="114" y="369"/>
      <point x="168" y="421"/>
      <point x="244" y="421" type="curve" smooth="yes"/>
      <point x="320" y="421"/>
      <point x="374" y="369"/>
      <point x="374" y="277" type="curve" smooth="yes"/>
      <point x="374" y="259" type="line" smooth="yes"/>
      <point x="374" y="167"/>
      <point x="320" y="115"/>
    </contour>
  </outline>
</glyph>
<glyph name="lla" format="2">
  <advance width="488"/>
  <unicode hex="1020"/>
  <note>
lla
</note>
  <outline>
    <contour>
      <point x="433" y="213" type="line"/>
      <point x="361" y="113" type="line"/>
      <point x="361" y="-8" type="line" smooth="yes"/>
      <point x="361" y="-61"/>
      <point x="352" y="-93"/>
      <point x="333" y="-108" type="curve" smooth="yes"/>
      <point x="315" y="-123"/>
      <point x="276" y="-125"/>
      <point x="239" y="-125" type="curve" smooth="yes"/>
      <point x="203" y="-125"/>
      <point x="162" y="-123"/>
      <point x="144" y="-108" type="curve" smooth="yes"/>
      <point x="125" y="-93"/>
      <point x="116" y="-61"/>
      <point x="116" y="-8" type="curve"/>
      <point x="52" y="-8" type="line"/>
      <point x="52" y="-29" type="line" smooth="yes"/>
      <point x="52" y="-134"/>
      <point x="70" y="-177"/>
      <point x="91" y="-200" type="curve" smooth="yes"/>
      <point x="123" y="-238"/>
      <point x="178" y="-243"/>
      <point x="243" y="-243" type="curve" smooth="yes"/>
      <point x="308" y="-243"/>
      <point x="362" y="-238"/>
      <point x="394" y="-200" type="curve" smooth="yes"/>
      <point x="415" y="-177"/>
      <point x="433" y="-134"/>
      <point x="433" y="-29" type="curve" smooth="yes"/>
    </contour>
    <contour>
      <point x="433" y="-306" type="line"/>
      <point x="369" y="-306" type="line"/>
      <point x="369" y="-359"/>
      <point x="360" y="-391"/>
      <point x="341" y="-406" type="curve" smooth="yes"/>
      <point x="323" y="-421"/>
      <point x="282" y="-423"/>
      <point x="246" y="-423" type="curve" smooth="yes"/>
      <point x="209" y="-423"/>
      <point x="170" y="-421"/>
      <point x="152" y="-406" type="curve" smooth="yes"/>
      <point x="133" y="-391"/>
      <point x="124" y="-359"/>
      <point x="124" y="-306" type="curve" smooth="yes"/>
      <point x="124" y="-185" type="line"/>
      <point x="52" y="-16" type="line"/>
      <point x="52" y="-327" type="line" smooth="yes"/>
      <point x="52" y="-432"/>
      <point x="70" y="-475"/>
      <point x="91" y="-498" type="curve" smooth="yes"/>
      <point x="123" y="-536"/>
      <point x="177" y="-541"/>
      <point x="242" y="-541" type="curve" smooth="yes"/>
      <point x="307" y="-541"/>
      <point x="362" y="-536"/>
      <point x="394" y="-498" type="curve" smooth="yes"/>
      <point x="415" y="-475"/>
      <point x="433" y="-432"/>
      <point x="433" y="-327" type="curve" smooth="yes"/>
    </contour>
    <component base="nga"/>
  </outline>
</glyph>
<glyph name="a_m" format="2">
  <advance width="798"/>
  <unicode hex="1021"/>
  <note>
a_m
</note>
  <outline>
    <contour>
      <point x="562" y="545" type="curve" smooth="yes"/>
      <point x="546" y="545" type="line" smooth="yes"/>
      <point x="482" y="545"/>
      <point x="431" y="514"/>
      <point x="400" y="462" type="curve" smooth="yes"/>
      <point x="395" y="453"/>
      <point x="390" y="443"/>
      <point x="386" y="432" type="curve"/>
      <point x="411" y="332" type="line"/>
      <point x="435" y="407"/>
      <point x="489" y="421"/>
      <point x="554" y="421" type="curve" smooth="yes"/>
      <point x="634" y="421"/>
      <point x="684" y="369"/>
      <point x="684" y="272" type="curve" smooth="yes"/>
      <point x="684" y="249" type="line" smooth="yes"/>
      <point x="684" y="159"/>
      <point x="676" y="115"/>
      <point x="589" y="115" type="curve" smooth="yes"/>
      <point x="575" y="115" type="line" smooth="yes"/>
      <point x="537" y="115"/>
      <point x="517" y="132"/>
      <point x="517" y="161" type="curve" smooth="yes"/>
      <point x="517" y="184"/>
      <point x="531" y="205"/>
      <point x="571" y="205" type="curve" smooth="yes"/>
      <point x="582" y="205" type="line" smooth="yes"/>
      <point x="627" y="205"/>
      <point x="652" y="196"/>
      <point x="652" y="150" type="curve" smooth="yes"/>
      <point x="652" y="112" type="line"/>
      <point x="689" y="127" type="line"/>
      <point x="689" y="165" type="line" smooth="yes"/>
      <point x="689" y="251"/>
      <point x="647" y="271"/>
      <point x="577" y="271" type="curve" smooth="yes"/>
      <point x="500" y="271"/>
      <point x="468" y="227"/>
      <point x="468" y="137" type="curve" smooth="yes"/>
      <point x="468" y="31"/>
      <point x="519" y="-9"/>
      <point x="577" y="-9" type="curve" smooth="yes"/>
      <point x="636" y="-9"/>
      <point x="679" y="25"/>
      <point x="708" y="74" type="curve" smooth="yes"/>
      <point x="735" y="120"/>
      <point x="746" y="182"/>
      <point x="746" y="268" type="curve" smooth="yes"/>
      <point x="746" y="354"/>
      <point x="735" y="416"/>
      <point x="708" y="462" type="curve" smooth="yes"/>
      <point x="677" y="514"/>
      <point x="626" y="545"/>
    </contour>
    <component base="da"/>
  </outline>
</glyph>
<glyph name="a_shn" format="2">
  <advance width="778"/>
  <unicode hex="1022"/>
  <note>
a_shn
</note>
  <outline>
    <contour>
      <point x="232" y="545" type="line" smooth="yes"/>
      <point x="119" y="545"/>
      <point x="52" y="470"/>
      <point x="52" y="362" type="curve" smooth="yes"/>
      <point x="52" y="240"/>
      <point x="143" y="204"/>
      <point x="143" y="133" type="curve" smooth="yes"/>
      <point x="143" y="105"/>
      <point x="127" y="98"/>
      <point x="113" y="98" type="curve" smooth="yes"/>
      <point x="90" y="98"/>
      <point x="80" y="116"/>
      <point x="76" y="135" type="curve"/>
      <point x="37" y="135" type="line"/>
      <point x="27" y="40"/>
      <point x="73" y="-9"/>
      <point x="131" y="-9" type="curve" smooth="yes"/>
      <point x="183" y="-9"/>
      <point x="219" y="31"/>
      <point x="219" y="97" type="curve" smooth="yes"/>
      <point x="219" y="199"/>
      <point x="134" y="230"/>
      <point x="134" y="321" type="curve" smooth="yes"/>
      <point x="134" y="385"/>
      <point x="182" y="421"/>
      <point x="246" y="421" type="curve" smooth="yes"/>
      <point x="323" y="421"/>
      <point x="374" y="369"/>
      <point x="374" y="277" type="curve" smooth="yes"/>
      <point x="374" y="259" type="line" smooth="yes"/>
      <point x="374" y="179"/>
      <point x="337" y="128"/>
      <point x="281" y="117" type="curve"/>
      <point x="281" y="-9" type="line"/>
      <point x="332" y="-4"/>
      <point x="370" y="26"/>
      <point x="396" y="71" type="curve" smooth="yes"/>
      <point x="425" y="120"/>
      <point x="436" y="182"/>
      <point x="436" y="268" type="curve" smooth="yes"/>
      <point x="436" y="354"/>
      <point x="425" y="416"/>
      <point x="398" y="462" type="curve" smooth="yes"/>
      <point x="368" y="515"/>
      <point x="316" y="545"/>
      <point x="241" y="545" type="curve" smooth="yes"/>
    </contour>
    <contour>
      <point x="380" y="462" type="curve"/>
      <point x="422" y="357" type="line"/>
      <point x="444" y="398"/>
      <point x="484" y="421"/>
      <point x="534" y="421" type="curve" smooth="yes"/>
      <point x="610" y="421"/>
      <point x="664" y="369"/>
      <point x="664" y="277" type="curve" smooth="yes"/>
      <point x="664" y="259" type="line" smooth="yes"/>
      <point x="664" y="167"/>
      <point x="610" y="115"/>
      <point x="534" y="115" type="curve" smooth="yes"/>
      <point x="494" y="115" type="line"/>
      <point x="494" y="-6" type="line"/>
      <point x="505" y="-8"/>
      <point x="520" y="-9"/>
      <point x="542" y="-9" type="curve" smooth="yes"/>
      <point x="606" y="-9"/>
      <point x="657" y="22"/>
      <point x="688" y="74" type="curve" smooth="yes"/>
      <point x="715" y="120"/>
      <point x="726" y="182"/>
      <point x="726" y="268" type="curve" smooth="yes"/>
      <point x="726" y="354"/>
      <point x="715" y="416"/>
      <point x="688" y="462" type="curve" smooth="yes"/>
      <point x="657" y="514"/>
      <point x="606" y="545"/>
      <point x="542" y="545" type="curve" smooth="yes"/>
      <point x="526" y="545" type="line" smooth="yes"/>
      <point x="462" y="545"/>
      <point x="411" y="514"/>
    </contour>
  </outline>
</glyph>
<glyph name="i_m" format="2">
  <advance width="778"/>
  <unicode hex="1023"/>
  <note>
Unlikely to ever have marks below.
</note>
  <outline>
    <contour>
      <point x="494" y="115" type="line"/>
      <point x="494" y="-6" type="line"/>
      <point x="505" y="-8"/>
      <point x="520" y="-9"/>
      <point x="542" y="-9" type="curve" smooth="yes"/>
      <point x="606" y="-9"/>
      <point x="657" y="22"/>
      <point x="688" y="74" type="curve" smooth="yes"/>
      <point x="715" y="120"/>
      <point x="726" y="182"/>
      <point x="726" y="268" type="curve" smooth="yes"/>
      <point x="726" y="354"/>
      <point x="715" y="416"/>
      <point x="688" y="462" type="curve" smooth="yes"/>
      <point x="657" y="514"/>
      <point x="609" y="545"/>
      <point x="545" y="545" type="curve" smooth="yes"/>
      <point x="529" y="545" type="line" smooth="yes"/>
      <point x="465" y="545"/>
      <point x="411" y="514"/>
      <point x="380" y="452" type="curve"/>
      <point x="398" y="452" type="line"/>
      <point x="367" y="514"/>
      <point x="313" y="545"/>
      <point x="249" y="545" type="curve" smooth="yes"/>
      <point x="233" y="545" type="line" smooth="yes"/>
      <point x="169" y="545"/>
      <point x="121" y="514"/>
      <point x="90" y="462" type="curve" smooth="yes"/>
      <point x="63" y="416"/>
      <point x="52" y="354"/>
      <point x="52" y="268" type="curve" smooth="yes"/>
      <point x="52" y="182"/>
      <point x="63" y="120"/>
      <point x="90" y="74" type="curve" smooth="yes"/>
      <point x="121" y="22"/>
      <point x="172" y="-9"/>
      <point x="236" y="-9" type="curve" smooth="yes"/>
      <point x="258" y="-9"/>
      <point x="273" y="-8"/>
      <point x="284" y="-6" type="curve"/>
      <point x="284" y="115" type="line"/>
      <point x="244" y="115" type="line" smooth="yes"/>
      <point x="168" y="115"/>
      <point x="114" y="167"/>
      <point x="114" y="259" type="curve" smooth="yes"/>
      <point x="114" y="266" type="line" smooth="yes"/>
      <point x="114" y="368"/>
      <point x="161" y="421"/>
      <point x="233" y="421" type="curve" smooth="yes"/>
      <point x="306" y="421"/>
      <point x="349" y="373"/>
      <point x="357" y="295" type="curve" smooth="yes"/>
      <point x="367" y="200" type="line"/>
      <point x="411" y="200" type="line"/>
      <point x="421" y="295" type="line" smooth="yes"/>
      <point x="429" y="373"/>
      <point x="472" y="421"/>
      <point x="545" y="421" type="curve" smooth="yes"/>
      <point x="617" y="421"/>
      <point x="664" y="368"/>
      <point x="664" y="266" type="curve" smooth="yes"/>
      <point x="664" y="259" type="line" smooth="yes"/>
      <point x="664" y="167"/>
      <point x="610" y="115"/>
      <point x="534" y="115" type="curve" smooth="yes"/>
    </contour>
    <contour>
      <point x="787" y="-425" type="line"/>
      <point x="674" y="-425" type="line"/>
      <point x="674" y="-444" type="line" smooth="yes"/>
      <point x="674" y="-484"/>
      <point x="650" y="-499"/>
      <point x="616" y="-499" type="curve" smooth="yes"/>
      <point x="585" y="-499"/>
      <point x="562" y="-493"/>
      <point x="562" y="-472" type="curve" smooth="yes"/>
      <point x="562" y="-452" type="line"/>
      <point x="638" y="-420"/>
      <point x="693" y="-353"/>
      <point x="693" y="-250" type="curve" smooth="yes"/>
      <point x="693" y="-152"/>
      <point x="634" y="-64"/>
      <point x="534" y="-64" type="curve" smooth="yes"/>
      <point x="520" y="-64" type="line" smooth="yes"/>
      <point x="463" y="-64"/>
      <point x="408" y="-96"/>
      <point x="389" y="-160" type="curve"/>
      <point x="404" y="-160" type="line"/>
      <point x="385" y="-96"/>
      <point x="330" y="-64"/>
      <point x="273" y="-64" type="curve" smooth="yes"/>
      <point x="259" y="-64" type="line" smooth="yes"/>
      <point x="203" y="-64"/>
      <point x="161" y="-91"/>
      <point x="133" y="-135" type="curve" smooth="yes"/>
      <point x="110" y="-175"/>
      <point x="100" y="-228"/>
      <point x="100" y="-302" type="curve" smooth="yes"/>
      <point x="100" y="-376"/>
      <point x="110" y="-430"/>
      <point x="133" y="-469" type="curve" smooth="yes"/>
      <point x="161" y="-514"/>
      <point x="205" y="-540"/>
      <point x="262" y="-540" type="curve" smooth="yes"/>
      <point x="281" y="-540"/>
      <point x="294" y="-540"/>
      <point x="304" y="-538" type="curve"/>
      <point x="304" y="-427" type="line"/>
      <point x="269" y="-427" type="line" smooth="yes"/>
      <point x="200" y="-427"/>
      <point x="150" y="-385"/>
      <point x="150" y="-310" type="curve" smooth="yes"/>
      <point x="150" y="-304" type="line" smooth="yes"/>
      <point x="150" y="-221"/>
      <point x="194" y="-179"/>
      <point x="259" y="-179" type="curve" smooth="yes"/>
      <point x="323" y="-179"/>
      <point x="361" y="-217"/>
      <point x="368" y="-279" type="curve" smooth="yes"/>
      <point x="377" y="-361" type="line"/>
      <point x="416" y="-361" type="line"/>
      <point x="425" y="-279" type="line" smooth="yes"/>
      <point x="432" y="-217"/>
      <point x="469" y="-179"/>
      <point x="524" y="-179" type="curve" smooth="yes"/>
      <point x="573" y="-179"/>
      <point x="599" y="-213"/>
      <point x="599" y="-275" type="curve" smooth="yes"/>
      <point x="599" y="-281" type="line" smooth="yes"/>
      <point x="599" y="-366"/>
      <point x="561" y="-406"/>
      <point x="474" y="-438" type="curve"/>
      <point x="474" y="-479" type="line" smooth="yes"/>
      <point x="474" y="-536"/>
      <point x="523" y="-551"/>
      <point x="612" y="-551" type="curve" smooth="yes"/>
      <point x="728" y="-551"/>
      <point x="787" y="-525"/>
      <point x="787" y="-447" type="curve" smooth="yes"/>
    </contour>
  </outline>
</glyph>
<glyph name="ii" format="2">
  <advance width="969"/>
  <unicode hex="1024"/>
  <outline>
    <contour>
      <point x="726" y="268" type="line" smooth="yes"/>
      <point x="726" y="354"/>
      <point x="715" y="416"/>
      <point x="688" y="462" type="curve" smooth="yes"/>
      <point x="657" y="514"/>
      <point x="606" y="545"/>
      <point x="542" y="545" type="curve" smooth="yes"/>
      <point x="526" y="545" type="line" smooth="yes"/>
      <point x="462" y="545"/>
      <point x="411" y="514"/>
      <point x="380" y="462" type="curve"/>
      <point x="422" y="357" type="line"/>
      <point x="444" y="398"/>
      <point x="484" y="421"/>
      <point x="534" y="421" type="curve" smooth="yes"/>
      <point x="603" y="421"/>
      <point x="652" y="369"/>
      <point x="652" y="277" type="curve" smooth="yes"/>
      <point x="654" y="-292" type="line" smooth="yes"/>
      <point x="654" y="-352"/>
      <point x="640" y="-382"/>
      <point x="607" y="-396" type="curve" smooth="yes"/>
      <point x="569" y="-414"/>
      <point x="497" y="-416"/>
      <point x="383" y="-416" type="curve" smooth="yes"/>
      <point x="274" y="-416"/>
      <point x="202" y="-413"/>
      <point x="165" y="-397" type="curve" smooth="yes"/>
      <point x="138" y="-387"/>
      <point x="121" y="-373"/>
      <point x="121" y="-343" type="curve" smooth="yes"/>
      <point x="121" y="-300"/>
      <point x="147" y="-269"/>
      <point x="240" y="-269" type="curve" smooth="yes"/>
      <point x="331" y="-269"/>
      <point x="368" y="-299"/>
      <point x="373" y="-345" type="curve"/>
      <point x="484" y="-345" type="line"/>
      <point x="480" y="-253"/>
      <point x="393" y="-192"/>
      <point x="264" y="-192" type="curve" smooth="yes"/>
      <point x="108" y="-192"/>
      <point x="52" y="-273"/>
      <point x="52" y="-374" type="curve" smooth="yes"/>
      <point x="52" y="-432"/>
      <point x="72" y="-474"/>
      <point x="110" y="-501" type="curve" smooth="yes"/>
      <point x="154" y="-533"/>
      <point x="245" y="-541"/>
      <point x="387" y="-541" type="curve" smooth="yes"/>
      <point x="534" y="-541"/>
      <point x="620" y="-535"/>
      <point x="667" y="-499" type="curve" smooth="yes"/>
      <point x="700" y="-474"/>
      <point x="726" y="-431"/>
      <point x="726" y="-328" type="curve" smooth="yes"/>
    </contour>
    <contour>
      <point x="911" y="10" type="line"/>
      <point x="837" y="10" type="line"/>
      <point x="837" y="-532" type="line"/>
      <point x="911" y="-532" type="line"/>
    </contour>
    <component base="asatstem" xOffset="779"/>
    <component base="ga"/>
  </outline>
</glyph>
<glyph name="e_m" format="2">
  <advance width="488"/>
  <unicode hex="1027"/>
  <note>
e_m
</note>
  <outline>
    <contour>
      <point x="231" y="444" type="line"/>
      <point x="178" y="444" type="line"/>
      <point x="178" y="405" type="line" smooth="yes"/>
      <point x="178" y="303"/>
      <point x="242" y="284"/>
      <point x="300" y="284" type="curve" smooth="yes"/>
      <point x="405" y="284"/>
      <point x="426" y="339"/>
      <point x="426" y="390" type="curve" smooth="yes"/>
      <point x="426" y="466"/>
      <point x="378" y="545"/>
      <point x="256" y="545" type="curve" smooth="yes"/>
      <point x="124" y="545"/>
      <point x="52" y="457"/>
      <point x="52" y="268" type="curve" smooth="yes"/>
      <point x="52" y="79"/>
      <point x="124" y="-9"/>
      <point x="256" y="-9" type="curve" smooth="yes"/>
      <point x="378" y="-9"/>
      <point x="426" y="70"/>
      <point x="426" y="146" type="curve" smooth="yes"/>
      <point x="426" y="197"/>
      <point x="405" y="252"/>
      <point x="300" y="252" type="curve" smooth="yes"/>
      <point x="242" y="252"/>
      <point x="178" y="233"/>
      <point x="178" y="131" type="curve" smooth="yes"/>
      <point x="178" y="92" type="line"/>
      <point x="231" y="92" type="line"/>
      <point x="231" y="142" type="line" smooth="yes"/>
      <point x="231" y="178"/>
      <point x="253" y="198"/>
      <point x="294" y="198" type="curve" smooth="yes"/>
      <point x="309" y="198" type="line" smooth="yes"/>
      <point x="338" y="198"/>
      <point x="362" y="189"/>
      <point x="362" y="160" type="curve" smooth="yes"/>
      <point x="362" y="135"/>
      <point x="341" y="118"/>
      <point x="292" y="118" type="curve" smooth="yes"/>
      <point x="243" y="118" type="line" smooth="yes"/>
      <point x="167" y="118"/>
      <point x="114" y="156"/>
      <point x="114" y="263" type="curve" smooth="yes"/>
      <point x="114" y="273" type="line" smooth="yes"/>
      <point x="114" y="380"/>
      <point x="167" y="418"/>
      <point x="243" y="418" type="curve" smooth="yes"/>
      <point x="292" y="418" type="line" smooth="yes"/>
      <point x="341" y="418"/>
      <point x="362" y="401"/>
      <point x="362" y="376" type="curve" smooth="yes"/>
      <point x="362" y="347"/>
      <point x="338" y="338"/>
      <point x="309" y="338" type="curve" smooth="yes"/>
      <point x="294" y="338" type="line" smooth="yes"/>
      <point x="253" y="338"/>
      <point x="231" y="358"/>
      <point x="231" y="394" type="curve" smooth="yes"/>
    </contour>
  </outline>
</glyph>
<glyph name="e_mon" format="2">
  <advance width="489"/>
  <unicode hex="1028"/>
  <outline>
    <contour>
      <point x="169" y="258" type="curve"/>
      <point x="202" y="258" type="line"/>
      <point x="202" y="287"/>
      <point x="218" y="306"/>
      <point x="253" y="306" type="curve" smooth="yes"/>
      <point x="283" y="306"/>
      <point x="297" y="292"/>
      <point x="297" y="267" type="curve" smooth="yes"/>
      <point x="297" y="186"/>
      <point x="151" y="230"/>
      <point x="151" y="97" type="curve" smooth="yes"/>
      <point x="151" y="28"/>
      <point x="191" y="-9"/>
      <point x="263" y="-9" type="curve" smooth="yes"/>
      <point x="391" y="-9"/>
      <point x="442" y="108"/>
      <point x="442" y="270" type="curve" smooth="yes"/>
      <point x="442" y="425"/>
      <point x="395" y="545"/>
      <point x="258" y="545" type="curve" smooth="yes"/>
      <point x="242" y="545" type="line" smooth="yes"/>
      <point x="178" y="545"/>
      <point x="127" y="514"/>
      <point x="96" y="462" type="curve" smooth="yes"/>
      <point x="69" y="416"/>
      <point x="58" y="354"/>
      <point x="58" y="268" type="curve" smooth="yes"/>
      <point x="58" y="-264" type="line" smooth="yes"/>
      <point x="58" y="-350"/>
      <point x="69" y="-412"/>
      <point x="96" y="-458" type="curve" smooth="yes"/>
      <point x="127" y="-510"/>
      <point x="178" y="-541"/>
      <point x="242" y="-541" type="curve" smooth="yes"/>
      <point x="258" y="-541" type="line" smooth="yes"/>
      <point x="322" y="-541"/>
      <point x="373" y="-510"/>
      <point x="404" y="-458" type="curve" smooth="yes"/>
      <point x="431" y="-412"/>
      <point x="442" y="-350"/>
      <point x="442" y="-264" type="curve" smooth="yes"/>
      <point x="442" y="-260"/>
      <point x="441" y="-253"/>
      <point x="440" y="-250" type="curve"/>
      <point x="380" y="-250" type="line"/>
      <point x="380" y="-262" type="line" smooth="yes"/>
      <point x="380" y="-361"/>
      <point x="332" y="-417"/>
      <point x="255" y="-417" type="curve" smooth="yes"/>
      <point x="178" y="-417"/>
      <point x="130" y="-361"/>
      <point x="130" y="-262" type="curve" smooth="yes"/>
      <point x="130" y="257" type="line" smooth="yes"/>
      <point x="130" y="382"/>
      <point x="196" y="422"/>
      <point x="258" y="422" type="curve" smooth="yes"/>
      <point x="332" y="422"/>
      <point x="380" y="365"/>
      <point x="380" y="269" type="curve" smooth="yes"/>
      <point x="380" y="251" type="line" smooth="yes"/>
      <point x="380" y="150"/>
      <point x="326" y="89"/>
      <point x="254" y="89" type="curve" smooth="yes"/>
      <point x="215" y="89"/>
      <point x="204" y="106"/>
      <point x="204" y="123" type="curve" smooth="yes"/>
      <point x="204" y="183"/>
      <point x="345" y="154"/>
      <point x="345" y="285" type="curve" smooth="yes"/>
      <point x="345" y="351"/>
      <point x="310" y="380"/>
      <point x="260" y="380" type="curve" smooth="yes"/>
      <point x="199" y="380"/>
      <point x="161" y="337"/>
    </contour>
  </outline>
</glyph>
<glyph name="_tall_aa" format="2">
  <advance width="190"/>
  <unicode hex="102B"/>
  <note>
_tall_aa
</note>
  <outline>
    <contour>
      <point x="132" y="812" type="line" smooth="yes"/>
      <point x="132" y="982"/>
      <point x="82" y="1077"/>
      <point x="-34" y="1077" type="curve" smooth="yes"/>
      <point x="-135" y="1077"/>
      <point x="-201" y="997"/>
      <point x="-201" y="852" type="curve" smooth="yes"/>
      <point x="-201" y="829"/>
      <point x="-200" y="810"/>
      <point x="-199" y="799" type="curve"/>
      <point x="-140" y="799" type="line"/>
      <point x="-140" y="831" type="line" smooth="yes"/>
      <point x="-140" y="921"/>
      <point x="-93" y="953"/>
      <point x="-35" y="953" type="curve" smooth="yes"/>
      <point x="24" y="953"/>
      <point x="58" y="915"/>
      <point x="58" y="792" type="curve" smooth="yes"/>
      <point x="58" y="0" type="line"/>
      <point x="132" y="0" type="line"/>
    </contour>
  </outline>
</glyph>
<glyph name="_aa" format="2">
  <advance width="290"/>
  <unicode hex="102C"/>
  <outline>
    <contour>
      <point x="-108" y="462" type="curve"/>
      <point x="-66" y="357" type="line"/>
      <point x="-44" y="398"/>
      <point x="-4" y="421"/>
      <point x="46" y="421" type="curve" smooth="yes"/>
      <point x="122" y="421"/>
      <point x="176" y="369"/>
      <point x="176" y="277" type="curve" smooth="yes"/>
      <point x="176" y="259" type="line" smooth="yes"/>
      <point x="176" y="167"/>
      <point x="122" y="115"/>
      <point x="46" y="115" type="curve" smooth="yes"/>
      <point x="6" y="115" type="line"/>
      <point x="6" y="-6" type="line"/>
      <point x="17" y="-8"/>
      <point x="32" y="-9"/>
      <point x="54" y="-9" type="curve" smooth="yes"/>
      <point x="118" y="-9"/>
      <point x="169" y="22"/>
      <point x="200" y="74" type="curve" smooth="yes"/>
      <point x="227" y="120"/>
      <point x="238" y="182"/>
      <point x="238" y="268" type="curve" smooth="yes"/>
      <point x="238" y="354"/>
      <point x="227" y="416"/>
      <point x="200" y="462" type="curve" smooth="yes"/>
      <point x="169" y="514"/>
      <point x="118" y="545"/>
      <point x="54" y="545" type="curve" smooth="yes"/>
      <point x="38" y="545" type="line" smooth="yes"/>
      <point x="-26" y="545"/>
      <point x="-77" y="514"/>
    </contour>
  </outline>
</glyph>
<glyph name="_u" format="2">
  <unicode hex="102F"/>
  <outline>
    <contour>
      <point x="-213" y="73" type="line"/>
      <point x="-275" y="73" type="line"/>
      <point x="-275" y="-333" type="line" smooth="yes"/>
      <point x="-275" y="-489"/>
      <point x="-233" y="-541"/>
      <point x="-147" y="-541" type="curve" smooth="yes"/>
      <point x="-144" y="-541"/>
      <point x="-137" y="-541"/>
      <point x="-132" y="-540" type="curve"/>
      <point x="-132" y="-412" type="line"/>
      <point x="-136" y="-412" type="line" smooth="yes"/>
      <point x="-195" y="-412"/>
      <point x="-213" y="-386"/>
      <point x="-213" y="-301" type="curve" smooth="yes"/>
    </contour>
  </outline>
</glyph>
<glyph name="_uu" format="2">
  <unicode hex="1030"/>
  <outline>
    <contour>
      <point x="-343" y="-532" type="line"/>
      <point x="-281" y="-532" type="line"/>
      <point x="-281" y="18" type="line"/>
      <point x="-343" y="18" type="line"/>
    </contour>
    <component base="_u" xOffset="68"/>
  </outline>
</glyph>
<glyph name="_e" format="2">
  <advance width="488"/>
  <unicode hex="1031"/>
  <note>
_e
</note>
  <outline>
    <contour>
      <point x="433" y="323" type="line"/>
      <point x="433" y="408"/>
      <point x="390" y="545"/>
      <point x="252" y="545" type="curve" smooth="yes"/>
      <point x="236" y="545" type="line" smooth="yes"/>
      <point x="172" y="545"/>
      <point x="121" y="514"/>
      <point x="90" y="462" type="curve" smooth="yes"/>
      <point x="63" y="416"/>
      <point x="52" y="354"/>
      <point x="52" y="268" type="curve" smooth="yes"/>
      <point x="52" y="182"/>
      <point x="63" y="120"/>
      <point x="90" y="74" type="curve" smooth="yes"/>
      <point x="121" y="22"/>
      <point x="176" y="-9"/>
      <point x="259" y="-9" type="curve" smooth="yes"/>
      <point x="269" y="-9" type="line" smooth="yes"/>
      <point x="386" y="-9"/>
      <point x="432" y="73"/>
      <point x="432" y="151" type="curve" smooth="yes"/>
      <point x="432" y="204"/>
      <point x="416" y="268"/>
      <point x="310" y="268" type="curve" smooth="yes"/>
      <point x="254" y="268"/>
      <point x="194" y="251"/>
      <point x="194" y="144" type="curve" smooth="yes"/>
      <point x="194" y="92" type="line"/>
      <point x="247" y="92" type="line"/>
      <point x="247" y="149" type="line" smooth="yes"/>
      <point x="247" y="189"/>
      <point x="264" y="205"/>
      <point x="307" y="205" type="curve" smooth="yes"/>
      <point x="321" y="205" type="line" smooth="yes"/>
      <point x="351" y="205"/>
      <point x="372" y="191"/>
      <point x="372" y="164" type="curve" smooth="yes"/>
      <point x="372" y="135"/>
      <point x="354" y="115"/>
      <point x="305" y="115" type="curve" smooth="yes"/>
      <point x="244" y="115" type="line" smooth="yes"/>
      <point x="168" y="115"/>
      <point x="114" y="167"/>
      <point x="114" y="259" type="curve" smooth="yes"/>
      <point x="114" y="277" type="line" smooth="yes"/>
      <point x="114" y="369"/>
      <point x="168" y="421"/>
      <point x="244" y="421" type="curve" smooth="yes"/>
      <point x="319" y="421"/>
      <point x="365" y="381"/>
      <point x="370" y="323" type="curve"/>
    </contour>
  </outline>
</glyph>
<glyph name="_ai" format="2">
  <unicode hex="1032"/>
  <note>
_ai
</note>
  <outline>
    <contour>
      <point x="-91" y="631" type="line"/>
      <point x="-288" y="906" type="line"/>
      <point x="-389" y="869" type="line"/>
      <point x="-163" y="643" type="line"/>
    </contour>
  </outline>
</glyph>
<glyph name="_ii_mon" format="2">
  <unicode hex="1033"/>
  <outline>
    <contour>
      <point x="-244" y="754" type="curve" smooth="yes"/>
      <point x="-190" y="754"/>
      <point x="-163" y="782"/>
      <point x="-163" y="839" type="curve" smooth="yes"/>
      <point x="-163" y="895"/>
      <point x="-190" y="924"/>
      <point x="-244" y="924" type="curve" smooth="yes"/>
      <point x="-298" y="924"/>
      <point x="-325" y="895"/>
      <point x="-325" y="839" type="curve" smooth="yes"/>
      <point x="-325" y="782"/>
      <point x="-298" y="754"/>
    </contour>
    <contour>
      <point x="-244" y="806" type="curve" smooth="yes"/>
      <point x="-275" y="806"/>
      <point x="-290" y="816"/>
      <point x="-290" y="839" type="curve" smooth="yes"/>
      <point x="-290" y="862"/>
      <point x="-275" y="872"/>
      <point x="-244" y="872" type="curve" smooth="yes"/>
      <point x="-212" y="872"/>
      <point x="-198" y="862"/>
      <point x="-198" y="839" type="curve" smooth="yes"/>
      <point x="-198" y="816"/>
      <point x="-212" y="806"/>
    </contour>
    <component base="_i"/>
  </outline>
</glyph>
<glyph name="_o_mon" format="2">
  <unicode hex="1034"/>
  <note>
_o_mon
</note>
  <outline>
    <contour>
      <point x="-99" y="869" type="line"/>
      <point x="-200" y="906" type="line"/>
      <point x="-397" y="631" type="line"/>
      <point x="-325" y="643" type="line"/>
    </contour>
  </outline>
</glyph>
<glyph name="dot_below" format="2">
  <unicode hex="1037"/>
  <outline>
    <contour>
      <point x="-244" y="-352" type="curve" smooth="yes"/>
      <point x="-175" y="-352"/>
      <point x="-134" y="-299"/>
      <point x="-134" y="-222" type="curve" smooth="yes"/>
      <point x="-134" y="-143"/>
      <point x="-175" y="-90"/>
      <point x="-244" y="-90" type="curve" smooth="yes"/>
      <point x="-313" y="-90"/>
      <point x="-354" y="-143"/>
      <point x="-354" y="-222" type="curve" smooth="yes"/>
      <point x="-354" y="-299"/>
      <point x="-313" y="-352"/>
    </contour>
    <contour>
      <point x="-244" y="-274" type="curve" smooth="yes"/>
      <point x="-286" y="-274"/>
      <point x="-304" y="-252"/>
      <point x="-304" y="-222" type="curve" smooth="yes"/>
      <point x="-304" y="-191"/>
      <point x="-286" y="-168"/>
      <point x="-244" y="-168" type="curve" smooth="yes"/>
      <point x="-202" y="-168"/>
      <point x="-184" y="-191"/>
      <point x="-184" y="-222" type="curve" smooth="yes"/>
      <point x="-184" y="-252"/>
      <point x="-202" y="-274"/>
    </contour>
  </outline>
</glyph>
<glyph name="virama" format="2">
  <unicode hex="1039"/>
  <note>
virama
</note>
  <outline>
    <contour>
      <point x="-286" y="-532" type="line"/>
      <point x="-201" y="-532" type="line"/>
      <point x="-222" y="-297" type="line"/>
      <point x="-201" y="-64" type="line"/>
      <point x="-286" y="-64" type="line"/>
      <point x="-265" y="-297" type="line"/>
    </contour>
    <contour>
      <point x="-61" y="-330" type="line"/>
      <point x="-61" y="-265" type="line"/>
      <point x="-427" y="-265" type="line"/>
      <point x="-427" y="-330" type="line"/>
    </contour>
  </outline>
</glyph>
<glyph name="asat" format="2">
  <unicode hex="103A"/>
  <outline>
    <contour>
      <point x="-236" y="671" type="line"/>
      <point x="-307" y="731"/>
      <point x="-345" y="784"/>
      <point x="-345" y="853" type="curve" smooth="yes"/>
      <point x="-345" y="918"/>
      <point x="-308" y="964"/>
      <point x="-237" y="964" type="curve" smooth="yes"/>
      <point x="-177" y="964"/>
      <point x="-135" y="931"/>
      <point x="-135" y="845" type="curve" smooth="yes"/>
      <point x="-135" y="837" type="line"/>
      <point x="-89" y="837" type="line"/>
      <point x="-89" y="844"/>
      <point x="-88" y="859"/>
      <point x="-88" y="874" type="curve" smooth="yes"/>
      <point x="-88" y="1000"/>
      <point x="-139" y="1077"/>
      <point x="-241" y="1077" type="curve" smooth="yes"/>
      <point x="-346" y="1077"/>
      <point x="-404" y="996"/>
      <point x="-404" y="877" type="curve" smooth="yes"/>
      <point x="-404" y="747"/>
      <point x="-330" y="673"/>
      <point x="-243" y="604" type="curve"/>
      <point x="-236" y="598" type="line"/>
    </contour>
  </outline>
</glyph>
<glyph name="medial_ya" format="2">
  <advance width="190"/>
  <unicode hex="103B"/>
  <outline>
    <contour>
      <point x="132" y="536" type="line"/>
      <point x="58" y="536" type="line"/>
      <point x="58" y="-327" type="line" smooth="yes"/>
      <point x="58" y="-385"/>
      <point x="49" y="-410"/>
      <point x="20" y="-410" type="curve" smooth="yes"/>
      <point x="6" y="-410"/>
      <point x="-7" y="-408"/>
      <point x="-48" y="-385" type="curve" smooth="yes"/>
      <point x="-111" y="-350"/>
      <point x="-120" y="-338"/>
      <point x="-120" y="-245" type="curve" smooth="yes"/>
      <point x="-120" y="85" type="line"/>
      <point x="-194" y="65" type="line"/>
      <point x="-194" y="-272" type="line" smooth="yes"/>
      <point x="-194" y="-398"/>
      <point x="-192" y="-440"/>
      <point x="-78" y="-497" type="curve" smooth="yes"/>
      <point x="5" y="-538"/>
      <point x="28" y="-541"/>
      <point x="51" y="-541" type="curve" smooth="yes"/>
      <point x="108" y="-541"/>
      <point x="132" y="-491"/>
      <point x="132" y="-385" type="curve" smooth="yes"/>
    </contour>
  </outline>
</glyph>
<glyph name="medial_wa" format="2">
  <unicode hex="103D"/>
  <outline>
    <contour>
      <point x="-251" y="-64" type="line" smooth="yes"/>
      <point x="-307" y="-64"/>
      <point x="-350" y="-92"/>
      <point x="-376" y="-139" type="curve" smooth="yes"/>
      <point x="-399" y="-179"/>
      <point x="-409" y="-231"/>
      <point x="-409" y="-302" type="curve" smooth="yes"/>
      <point x="-409" y="-374"/>
      <point x="-399" y="-425"/>
      <point x="-376" y="-465" type="curve" smooth="yes"/>
      <point x="-350" y="-512"/>
      <point x="-307" y="-541"/>
      <point x="-251" y="-541" type="curve" smooth="yes"/>
      <point x="-237" y="-541" type="line" smooth="yes"/>
      <point x="-181" y="-541"/>
      <point x="-138" y="-512"/>
      <point x="-112" y="-466" type="curve" smooth="yes"/>
      <point x="-88" y="-425"/>
      <point x="-79" y="-374"/>
      <point x="-79" y="-302" type="curve" smooth="yes"/>
      <point x="-79" y="-231"/>
      <point x="-88" y="-179"/>
      <point x="-112" y="-139" type="curve" smooth="yes"/>
      <point x="-138" y="-92"/>
      <point x="-181" y="-64"/>
      <point x="-237" y="-64" type="curve" smooth="yes"/>
    </contour>
    <contour>
      <point x="-244" y="-427" type="curve" smooth="yes"/>
      <point x="-312" y="-427"/>
      <point x="-359" y="-397"/>
      <point x="-359" y="-307" type="curve" smooth="yes"/>
      <point x="-359" y="-299" type="line" smooth="yes"/>
      <point x="-359" y="-209"/>
      <point x="-312" y="-179"/>
      <point x="-244" y="-179" type="curve" smooth="yes"/>
      <point x="-176" y="-179"/>
      <point x="-129" y="-209"/>
      <point x="-129" y="-299" type="curve" smooth="yes"/>
      <point x="-129" y="-307" type="line" smooth="yes"/>
      <point x="-129" y="-397"/>
      <point x="-176" y="-427"/>
    </contour>
  </outline>
</glyph>
<glyph name="great_sa" format="2">
  <advance width="1068"/>
  <unicode hex="103F"/>
  <note>
Disable this ligature (sa+virama+sa) and use sa with subjoined sa for Mon.
</note>
  <outline>
    <contour>
      <point x="118" y="323" type="line"/>
      <point x="123" y="381"/>
      <point x="169" y="421"/>
      <point x="244" y="421" type="curve" smooth="yes"/>
      <point x="320" y="421"/>
      <point x="374" y="369"/>
      <point x="374" y="277" type="curve" smooth="yes"/>
      <point x="374" y="259" type="line" smooth="yes"/>
      <point x="374" y="167"/>
      <point x="320" y="115"/>
      <point x="244" y="115" type="curve" smooth="yes"/>
      <point x="169" y="115"/>
      <point x="123" y="155"/>
      <point x="118" y="213" type="curve"/>
      <point x="55" y="213" type="line"/>
      <point x="55" y="128"/>
      <point x="98" y="-9"/>
      <point x="236" y="-9" type="curve" smooth="yes"/>
      <point x="252" y="-9" type="line" smooth="yes"/>
      <point x="316" y="-9"/>
      <point x="367" y="22"/>
      <point x="398" y="74" type="curve" smooth="yes"/>
      <point x="425" y="120"/>
      <point x="436" y="182"/>
      <point x="436" y="268" type="curve" smooth="yes"/>
      <point x="436" y="354"/>
      <point x="425" y="416"/>
      <point x="398" y="462" type="curve" smooth="yes"/>
      <point x="367" y="514"/>
      <point x="316" y="545"/>
      <point x="252" y="545" type="curve" smooth="yes"/>
      <point x="236" y="545" type="line" smooth="yes"/>
      <point x="130" y="545"/>
      <point x="59" y="459"/>
      <point x="55" y="323" type="curve"/>
    </contour>
    <contour>
      <point x="380" y="74" type="line"/>
      <point x="411" y="22"/>
      <point x="462" y="-9"/>
      <point x="526" y="-9" type="curve" smooth="yes"/>
      <point x="542" y="-9" type="line" smooth="yes"/>
      <point x="606" y="-9"/>
      <point x="657" y="22"/>
      <point x="688" y="74" type="curve" smooth="yes"/>
      <point x="715" y="120"/>
      <point x="726" y="182"/>
      <point x="726" y="268" type="curve" smooth="yes"/>
      <point x="726" y="354"/>
      <point x="715" y="416"/>
      <point x="688" y="462" type="curve" smooth="yes"/>
      <point x="657" y="514"/>
      <point x="606" y="545"/>
      <point x="542" y="545" type="curve" smooth="yes"/>
      <point x="520" y="545"/>
      <point x="505" y="544"/>
      <point x="494" y="542" type="curve"/>
      <point x="494" y="421" type="line"/>
      <point x="534" y="421" type="line" smooth="yes"/>
      <point x="610" y="421"/>
      <point x="664" y="369"/>
      <point x="664" y="277" type="curve" smooth="yes"/>
      <point x="664" y="259" type="line" smooth="yes"/>
      <point x="664" y="167"/>
      <point x="610" y="115"/>
      <point x="534" y="115" type="curve" smooth="yes"/>
      <point x="484" y="115"/>
      <point x="444" y="138"/>
      <point x="422" y="179" type="curve"/>
    </contour>
    <contour>
      <point x="670" y="74" type="line"/>
      <point x="701" y="22"/>
      <point x="752" y="-9"/>
      <point x="816" y="-9" type="curve" smooth="yes"/>
      <point x="832" y="-9" type="line" smooth="yes"/>
      <point x="896" y="-9"/>
      <point x="947" y="22"/>
      <point x="978" y="74" type="curve" smooth="yes"/>
      <point x="1005" y="120"/>
      <point x="1016" y="182"/>
      <point x="1016" y="268" type="curve" smooth="yes"/>
      <point x="1016" y="354"/>
      <point x="1005" y="416"/>
      <point x="978" y="462" type="curve" smooth="yes"/>
      <point x="947" y="514"/>
      <point x="896" y="545"/>
      <point x="832" y="545" type="curve" smooth="yes"/>
      <point x="810" y="545"/>
      <point x="795" y="544"/>
      <point x="784" y="542" type="curve"/>
      <point x="784" y="421" type="line"/>
      <point x="824" y="421" type="line" smooth="yes"/>
      <point x="900" y="421"/>
      <point x="954" y="369"/>
      <point x="954" y="277" type="curve" smooth="yes"/>
      <point x="954" y="259" type="line" smooth="yes"/>
      <point x="954" y="167"/>
      <point x="900" y="115"/>
      <point x="824" y="115" type="curve" smooth="yes"/>
      <point x="774" y="115"/>
      <point x="734" y="138"/>
      <point x="712" y="179" type="curve"/>
    </contour>
  </outline>
</glyph>
<glyph name="two_m" format="2">
  <advance width="432"/>
  <unicode hex="1042"/>
  <outline>
    <contour>
      <point x="374" y="-176" type="curve" smooth="yes"/>
      <point x="374" y="536" type="line"/>
      <point x="300" y="536" type="line"/>
      <point x="300" y="-156" type="line" smooth="yes"/>
      <point x="300" y="-279"/>
      <point x="266" y="-317"/>
      <point x="207" y="-317" type="curve" smooth="yes"/>
      <point x="149" y="-317"/>
      <point x="102" y="-285"/>
      <point x="102" y="-195" type="curve" smooth="yes"/>
      <point x="102" y="-163" type="line"/>
      <point x="43" y="-163" type="line"/>
      <point x="42" y="-174"/>
      <point x="41" y="-193"/>
      <point x="41" y="-216" type="curve" smooth="yes"/>
      <point x="41" y="-361"/>
      <point x="107" y="-441"/>
      <point x="208" y="-441" type="curve" smooth="yes"/>
      <point x="324" y="-441"/>
      <point x="374" y="-346"/>
    </contour>
  </outline>
</glyph>
<glyph name="three_m" format="2">
  <advance width="488"/>
  <unicode hex="1043"/>
  <outline>
    <contour>
      <point x="236" y="-9" type="curve" smooth="yes"/>
      <point x="252" y="-9" type="line" smooth="yes"/>
      <point x="316" y="-9"/>
      <point x="367" y="22"/>
      <point x="398" y="74" type="curve" smooth="yes"/>
      <point x="425" y="120"/>
      <point x="436" y="182"/>
      <point x="436" y="268" type="curve" smooth="yes"/>
      <point x="436" y="354"/>
      <point x="425" y="416"/>
      <point x="398" y="462" type="curve" smooth="yes"/>
      <point x="367" y="514"/>
      <point x="316" y="545"/>
      <point x="252" y="545" type="curve" smooth="yes"/>
      <point x="236" y="545" type="line" smooth="yes"/>
      <point x="98" y="545"/>
      <point x="55" y="408"/>
      <point x="55" y="323" type="curve"/>
      <point x="118" y="323" type="line"/>
      <point x="123" y="381"/>
      <point x="169" y="421"/>
      <point x="244" y="421" type="curve" smooth="yes"/>
      <point x="320" y="421"/>
      <point x="374" y="369"/>
      <point x="374" y="277" type="curve" smooth="yes"/>
      <point x="374" y="259" type="line" smooth="yes"/>
      <point x="374" y="167"/>
      <point x="320" y="115"/>
      <point x="244" y="115" type="curve" smooth="yes"/>
      <point x="169" y="115"/>
      <point x="123" y="155"/>
      <point x="118" y="213" type="curve"/>
      <point x="55" y="213" type="line"/>
      <point x="56" y="163"/>
      <point x="69" y="111"/>
      <point x="102" y="42" type="curve" smooth="yes"/>
      <point x="333" y="-442" type="line"/>
      <point x="415" y="-399" type="line"/>
      <point x="191" y="-3" type="line"/>
      <point x="205" y="-7"/>
      <point x="220" y="-9"/>
    </contour>
  </outline>
</glyph>
<glyph name="five_m" format="2">
  <advance width="494"/>
  <unicode hex="1045"/>
  <outline>
    <contour>
      <point x="211" y="24" type="curve" smooth="yes"/>
      <point x="276" y="24"/>
      <point x="301" y="76"/>
      <point x="301" y="152" type="curve" smooth="yes"/>
      <point x="301" y="230"/>
      <point x="276" y="282"/>
      <point x="211" y="282" type="curve" smooth="yes"/>
      <point x="146" y="282"/>
      <point x="121" y="230"/>
      <point x="121" y="152" type="curve" smooth="yes"/>
      <point x="121" y="76"/>
      <point x="146" y="24"/>
    </contour>
    <contour>
      <point x="114" y="-150" type="line"/>
      <point x="54" y="-150" type="line"/>
      <point x="53" y="-153"/>
      <point x="52" y="-160"/>
      <point x="52" y="-164" type="curve" smooth="yes"/>
      <point x="52" y="-250"/>
      <point x="63" y="-312"/>
      <point x="90" y="-358" type="curve" smooth="yes"/>
      <point x="121" y="-410"/>
      <point x="172" y="-441"/>
      <point x="236" y="-441" type="curve" smooth="yes"/>
      <point x="252" y="-441" type="line" smooth="yes"/>
      <point x="316" y="-441"/>
      <point x="367" y="-410"/>
      <point x="398" y="-358" type="curve" smooth="yes"/>
      <point x="425" y="-312"/>
      <point x="436" y="-250"/>
      <point x="436" y="-164" type="curve" smooth="yes"/>
      <point x="436" y="268" type="line" smooth="yes"/>
      <point x="436" y="354"/>
      <point x="425" y="416"/>
      <point x="398" y="462" type="curve" smooth="yes"/>
      <point x="367" y="514"/>
      <point x="316" y="545"/>
      <point x="252" y="545" type="curve" smooth="yes"/>
      <point x="236" y="545" type="line" smooth="yes"/>
      <point x="172" y="545"/>
      <point x="121" y="514"/>
      <point x="90" y="462" type="curve" smooth="yes"/>
      <point x="63" y="416"/>
      <point x="52" y="354"/>
      <point x="52" y="268" type="curve" smooth="yes"/>
      <point x="52" y="182"/>
      <point x="59" y="120"/>
      <point x="90" y="70" type="curve" smooth="yes"/>
      <point x="121" y="19"/>
      <point x="160" y="-9"/>
      <point x="207" y="-9" type="curve" smooth="yes"/>
      <point x="274" y="-9"/>
      <point x="301" y="49"/>
      <point x="301" y="152" type="curve"/>
      <point x="280" y="121"/>
      <point x="256" y="85"/>
      <point x="208" y="85" type="curve" smooth="yes"/>
      <point x="152" y="85"/>
      <point x="114" y="142"/>
      <point x="114" y="233" type="curve" smooth="yes"/>
      <point x="114" y="275" type="line" smooth="yes"/>
      <point x="114" y="374"/>
      <point x="167" y="421"/>
      <point x="242" y="421" type="curve" smooth="yes"/>
      <point x="320" y="421"/>
      <point x="364" y="365"/>
      <point x="364" y="266" type="curve" smooth="yes"/>
      <point x="364" y="-162" type="line" smooth="yes"/>
      <point x="364" y="-261"/>
      <point x="319" y="-317"/>
      <point x="243" y="-317" type="curve" smooth="yes"/>
      <point x="164" y="-317"/>
      <point x="114" y="-261"/>
      <point x="114" y="-162" type="curve" smooth="yes"/>
    </contour>
    <contour>
      <point x="211" y="100" type="curve" smooth="yes"/>
      <point x="177" y="100"/>
      <point x="163" y="122"/>
      <point x="163" y="152" type="curve" smooth="yes"/>
      <point x="163" y="183"/>
      <point x="177" y="206"/>
      <point x="211" y="206" type="curve" smooth="yes"/>
      <point x="245" y="206"/>
      <point x="259" y="183"/>
      <point x="259" y="152" type="curve" smooth="yes"/>
      <point x="259" y="122"/>
      <point x="245" y="100"/>
    </contour>
  </outline>
</glyph>
<glyph name="seven_m" format="2">
  <advance width="488"/>
  <unicode hex="1047"/>
  <outline>
    <contour>
      <point x="398" y="-228" type="curve"/>
      <point x="337" y="-228" type="line"/>
      <point x="337" y="-239" type="line" smooth="yes"/>
      <point x="337" y="-304"/>
      <point x="310" y="-327"/>
      <point x="278" y="-327" type="curve" smooth="yes"/>
      <point x="241" y="-327"/>
      <point x="217" y="-303"/>
      <point x="217" y="-248" type="curve" smooth="yes"/>
      <point x="217" y="-197"/>
      <point x="240" y="-157"/>
      <point x="283" y="-83" type="curve" smooth="yes"/>
      <point x="354" y="31"/>
      <point x="436" y="115"/>
      <point x="436" y="270" type="curve" smooth="yes"/>
      <point x="436" y="354"/>
      <point x="425" y="416"/>
      <point x="398" y="462" type="curve" smooth="yes"/>
      <point x="367" y="514"/>
      <point x="316" y="545"/>
      <point x="252" y="545" type="curve" smooth="yes"/>
      <point x="236" y="545" type="line" smooth="yes"/>
      <point x="172" y="545"/>
      <point x="121" y="514"/>
      <point x="90" y="462" type="curve" smooth="yes"/>
      <point x="63" y="416"/>
      <point x="52" y="354"/>
      <point x="52" y="268" type="curve" smooth="yes"/>
      <point x="52" y="182"/>
      <point x="63" y="120"/>
      <point x="90" y="74" type="curve" smooth="yes"/>
      <point x="119" y="25"/>
      <point x="156" y="-4"/>
      <point x="207" y="-9" type="curve"/>
      <point x="207" y="117" type="line"/>
      <point x="151" y="128"/>
      <point x="114" y="179"/>
      <point x="114" y="259" type="curve" smooth="yes"/>
      <point x="114" y="277" type="line" smooth="yes"/>
      <point x="114" y="369"/>
      <point x="167" y="421"/>
      <point x="242" y="421" type="curve" smooth="yes"/>
      <point x="316" y="421"/>
      <point x="367" y="369"/>
      <point x="367" y="277" type="curve" smooth="yes"/>
      <point x="367" y="259" type="line" smooth="yes"/>
      <point x="367" y="150"/>
      <point x="319" y="84"/>
      <point x="253" y="-20" type="curve" smooth="yes"/>
      <point x="187" y="-128"/>
      <point x="144" y="-189"/>
      <point x="144" y="-285" type="curve" smooth="yes"/>
      <point x="144" y="-383"/>
      <point x="190" y="-441"/>
      <point x="272" y="-441" type="curve" smooth="yes"/>
      <point x="357" y="-441"/>
      <point x="400" y="-375"/>
      <point x="400" y="-258" type="curve" smooth="yes"/>
      <point x="400" y="-243"/>
      <point x="399" y="-233"/>
    </contour>
  </outline>
</glyph>
<glyph name="nine_m" format="2">
  <advance width="490"/>
  <unicode hex="1049"/>
  <outline>
    <contour>
      <point x="259" y="249" type="curve"/>
      <point x="332" y="181" type="line"/>
      <point x="407" y="192"/>
      <point x="443" y="253"/>
      <point x="443" y="345" type="curve" smooth="yes"/>
      <point x="443" y="460"/>
      <point x="393" y="545"/>
      <point x="265" y="545" type="curve" smooth="yes"/>
      <point x="248" y="545" type="line" smooth="yes"/>
      <point x="178" y="545"/>
      <point x="127" y="514"/>
      <point x="96" y="462" type="curve" smooth="yes"/>
      <point x="69" y="416"/>
      <point x="58" y="354"/>
      <point x="58" y="268" type="curve" smooth="yes"/>
      <point x="58" y="-164" type="line" smooth="yes"/>
      <point x="58" y="-250"/>
      <point x="69" y="-312"/>
      <point x="96" y="-358" type="curve" smooth="yes"/>
      <point x="127" y="-410"/>
      <point x="178" y="-441"/>
      <point x="242" y="-441" type="curve" smooth="yes"/>
      <point x="258" y="-441" type="line" smooth="yes"/>
      <point x="322" y="-441"/>
      <point x="373" y="-410"/>
      <point x="404" y="-358" type="curve" smooth="yes"/>
      <point x="431" y="-312"/>
      <point x="442" y="-250"/>
      <point x="442" y="-164" type="curve" smooth="yes"/>
      <point x="442" y="-160"/>
      <point x="441" y="-153"/>
      <point x="440" y="-150" type="curve"/>
      <point x="380" y="-150" type="line"/>
      <point x="380" y="-162" type="line" smooth="yes"/>
      <point x="380" y="-261"/>
      <point x="332" y="-317"/>
      <point x="256" y="-317" type="curve" smooth="yes"/>
      <point x="178" y="-317"/>
      <point x="130" y="-261"/>
      <point x="130" y="-162" type="curve" smooth="yes"/>
      <point x="130" y="265" type="line" smooth="yes"/>
      <point x="130" y="372"/>
      <point x="182" y="421"/>
      <point x="272" y="421" type="curve" smooth="yes"/>
      <point x="348" y="421"/>
      <point x="377" y="388"/>
      <point x="377" y="345" type="curve" smooth="yes"/>
      <point x="377" y="295"/>
      <point x="345" y="275"/>
      <point x="285" y="266" type="curve" smooth="yes"/>
      <point x="208" y="254"/>
      <point x="169" y="218"/>
      <point x="169" y="119" type="curve" smooth="yes"/>
      <point x="169" y="43"/>
      <point x="194" y="-9"/>
      <point x="259" y="-9" type="curve" smooth="yes"/>
      <point x="324" y="-9"/>
      <point x="349" y="43"/>
      <point x="349" y="119" type="curve" smooth="yes"/>
      <point x="349" y="197"/>
      <point x="324" y="249"/>
    </contour>
    <contour>
      <point x="259" y="67" type="curve" smooth="yes"/>
      <point x="225" y="67"/>
      <point x="211" y="89"/>
      <point x="211" y="119" type="curve" smooth="yes"/>
      <point x="211" y="150"/>
      <point x="225" y="173"/>
      <point x="259" y="173" type="curve" smooth="yes"/>
      <point x="293" y="173"/>
      <point x="307" y="150"/>
      <point x="307" y="119" type="curve" smooth="yes"/>
      <point x="307" y="89"/>
      <point x="293" y="67"/>
    </contour>
  </outline>
</glyph>
<glyph name="little_section" format="2">
  <advance width="262"/>
  <unicode hex="104A"/>
  <note>
little_section
</note>
  <outline>
    <contour>
      <point x="168" y="536" type="line"/>
      <point x="94" y="536" type="line"/>
      <point x="94" y="0" type="line"/>
      <point x="168" y="0" type="line"/>
    </contour>
  </outline>
</glyph>
<glyph name="locative" format="2">
  <advance width="488"/>
  <unicode hex="104C"/>
  <note>
locative
</note>
  <outline>
    <contour>
      <point x="55" y="218" type="line"/>
      <point x="55" y="12" type="line" smooth="yes"/>
      <point x="55" y="-93"/>
      <point x="73" y="-136"/>
      <point x="94" y="-159" type="curve" smooth="yes"/>
      <point x="126" y="-197"/>
      <point x="180" y="-202"/>
      <point x="245" y="-202" type="curve" smooth="yes"/>
      <point x="310" y="-202"/>
      <point x="365" y="-197"/>
      <point x="397" y="-159" type="curve" smooth="yes"/>
      <point x="418" y="-136"/>
      <point x="436" y="-94"/>
      <point x="436" y="12" type="curve" smooth="yes"/>
      <point x="436" y="29" type="line"/>
      <point x="372" y="29" type="line"/>
      <point x="372" y="-24"/>
      <point x="363" y="-56"/>
      <point x="344" y="-71" type="curve" smooth="yes"/>
      <point x="326" y="-86"/>
      <point x="285" y="-88"/>
      <point x="249" y="-88" type="curve" smooth="yes"/>
      <point x="212" y="-88"/>
      <point x="173" y="-86"/>
      <point x="155" y="-71" type="curve" smooth="yes"/>
      <point x="136" y="-56"/>
      <point x="127" y="-24"/>
      <point x="127" y="29" type="curve" smooth="yes"/>
      <point x="127" y="113" type="line"/>
    </contour>
    <contour>
      <point x="436" y="24" type="line"/>
      <point x="364" y="-106" type="line"/>
      <point x="364" y="-297" type="line" smooth="yes"/>
      <point x="364" y="-361"/>
      <point x="355" y="-387"/>
      <point x="337" y="-400" type="curve" smooth="yes"/>
      <point x="316" y="-420"/>
      <point x="281" y="-421"/>
      <point x="234" y="-421" type="curve" smooth="yes"/>
      <point x="168" y="-421"/>
      <point x="114" y="-411"/>
      <point x="114" y="-362" type="curve" smooth="yes"/>
      <point x="114" y="-335"/>
      <point x="131" y="-309"/>
      <point x="180" y="-309" type="curve" smooth="yes"/>
      <point x="223" y="-309"/>
      <point x="243" y="-333"/>
      <point x="246" y="-361" type="curve"/>
      <point x="330" y="-361" type="line"/>
      <point x="324" y="-289"/>
      <point x="277" y="-247"/>
      <point x="196" y="-247" type="curve" smooth="yes"/>
      <point x="98" y="-247"/>
      <point x="55" y="-309"/>
      <point x="55" y="-390" type="curve" smooth="yes"/>
      <point x="55" y="-445"/>
      <point x="72" y="-481"/>
      <point x="96" y="-503" type="curve" smooth="yes"/>
      <point x="129" y="-534"/>
      <point x="180" y="-541"/>
      <point x="244" y="-541" type="curve" smooth="yes"/>
      <point x="317" y="-541"/>
      <point x="363" y="-532"/>
      <point x="395" y="-497" type="curve" smooth="yes"/>
      <point x="418" y="-473"/>
      <point x="436" y="-433"/>
      <point x="436" y="-333" type="curve" smooth="yes"/>
    </contour>
    <component base="asat" xOffset="493"/>
    <component base="nga" xScale="-1" yScale="0.984" xOffset="488" yOffset="9"/>
  </outline>
</glyph>
<glyph name="completed" format="2">
  <advance width="684"/>
  <unicode hex="104D"/>
  <note>
completed
</note>
  <outline>
    <contour>
      <point x="626" y="97" type="line"/>
      <point x="552" y="80" type="line"/>
      <point x="552" y="-293" type="line" smooth="yes"/>
      <point x="551" y="-354"/>
      <point x="538" y="-385"/>
      <point x="506" y="-400" type="curve" smooth="yes"/>
      <point x="467" y="-417"/>
      <point x="399" y="-420"/>
      <point x="283" y="-420" type="curve" smooth="yes"/>
      <point x="186" y="-420"/>
      <point x="114" y="-412"/>
      <point x="114" y="-354" type="curve" smooth="yes"/>
      <point x="114" y="-331"/>
      <point x="130" y="-306"/>
      <point x="179" y="-306" type="curve" smooth="yes"/>
      <point x="222" y="-306"/>
      <point x="242" y="-331"/>
      <point x="245" y="-361" type="curve"/>
      <point x="329" y="-361" type="line"/>
      <point x="323" y="-287"/>
      <point x="276" y="-244"/>
      <point x="195" y="-244" type="curve" smooth="yes"/>
      <point x="97" y="-244"/>
      <point x="54" y="-307"/>
      <point x="54" y="-380" type="curve" smooth="yes"/>
      <point x="54" y="-442"/>
      <point x="75" y="-478"/>
      <point x="101" y="-502" type="curve" smooth="yes"/>
      <point x="140" y="-536"/>
      <point x="205" y="-542"/>
      <point x="288" y="-542" type="curve" smooth="yes"/>
      <point x="437" y="-542"/>
      <point x="520" y="-536"/>
      <point x="566" y="-501" type="curve" smooth="yes"/>
      <point x="600" y="-475"/>
      <point x="626" y="-432"/>
      <point x="626" y="-329" type="curve" smooth="yes"/>
    </contour>
    <component base="ra.alt2"/>
    <component base="asatstem" xOffset="494"/>
  </outline>
</glyph>
<glyph name="aforementioned" format="2">
  <advance width="488"/>
  <unicode hex="104E"/>
  <outline>
    <contour>
      <point x="359" y="-542" type="line"/>
      <point x="433" y="-542" type="line"/>
      <point x="433" y="213" type="line"/>
      <point x="359" y="103" type="line"/>
    </contour>
    <component base="nga"/>
  </outline>
</glyph>
<glyph name="genitive" format="2">
  <advance width="897"/>
  <unicode hex="104F"/>
  <note>
genitive
</note>
  <outline>
    <contour>
      <point x="423" y="359" type="curve" smooth="yes"/>
      <point x="432" y="399"/>
      <point x="455" y="426"/>
      <point x="504" y="426" type="curve" smooth="yes"/>
      <point x="554" y="426"/>
      <point x="575" y="398"/>
      <point x="575" y="339" type="curve" smooth="yes"/>
      <point x="575" y="0" type="line"/>
      <point x="649" y="0" type="line"/>
      <point x="649" y="362" type="line" smooth="yes"/>
      <point x="649" y="475"/>
      <point x="607" y="545"/>
      <point x="512" y="545" type="curve" smooth="yes"/>
      <point x="507" y="545" type="line" smooth="yes"/>
      <point x="440" y="545"/>
      <point x="398" y="513"/>
      <point x="377" y="464" type="curve"/>
      <point x="409" y="464" type="line"/>
      <point x="386" y="510"/>
      <point x="337" y="545"/>
      <point x="256" y="545" type="curve" smooth="yes"/>
      <point x="124" y="545"/>
      <point x="52" y="457"/>
      <point x="52" y="268" type="curve" smooth="yes"/>
      <point x="52" y="79"/>
      <point x="124" y="-9"/>
      <point x="256" y="-9" type="curve" smooth="yes"/>
      <point x="378" y="-9"/>
      <point x="426" y="70"/>
      <point x="426" y="146" type="curve" smooth="yes"/>
      <point x="426" y="197"/>
      <point x="405" y="252"/>
      <point x="300" y="252" type="curve" smooth="yes"/>
      <point x="242" y="252"/>
      <point x="178" y="233"/>
      <point x="178" y="131" type="curve" smooth="yes"/>
      <point x="178" y="92" type="line"/>
      <point x="231" y="92" type="line"/>
      <point x="231" y="142" type="line" smooth="yes"/>
      <point x="231" y="178"/>
      <point x="253" y="198"/>
      <point x="294" y="198" type="curve" smooth="yes"/>
      <point x="309" y="198" type="line" smooth="yes"/>
      <point x="338" y="198"/>
      <point x="362" y="189"/>
      <point x="362" y="160" type="curve" smooth="yes"/>
      <point x="362" y="135"/>
      <point x="341" y="118"/>
      <point x="292" y="118" type="curve" smooth="yes"/>
      <point x="243" y="118" type="line" smooth="yes"/>
      <point x="167" y="118"/>
      <point x="114" y="156"/>
      <point x="114" y="263" type="curve" smooth="yes"/>
      <point x="114" y="273" type="line" smooth="yes"/>
      <point x="114" y="380"/>
      <point x="167" y="418"/>
      <point x="243" y="418" type="curve" smooth="yes"/>
      <point x="292" y="418" type="line" smooth="yes"/>
      <point x="341" y="418"/>
      <point x="362" y="401"/>
      <point x="362" y="376" type="curve" smooth="yes"/>
      <point x="362" y="347"/>
      <point x="338" y="338"/>
      <point x="309" y="338" type="curve" smooth="yes"/>
      <point x="294" y="338" type="line" smooth="yes"/>
      <point x="253" y="338"/>
      <point x="231" y="358"/>
      <point x="231" y="394" type="curve" smooth="yes"/>
      <point x="231" y="444" type="line"/>
      <point x="178" y="444" type="line"/>
      <point x="178" y="405" type="line" smooth="yes"/>
      <point x="178" y="303"/>
      <point x="242" y="284"/>
      <point x="300" y="284" type="curve" smooth="yes"/>
      <point x="384" y="284"/>
      <point x="414" y="319"/>
    </contour>
    <component base="asatstem" xOffset="707"/>
  </outline>
</glyph>
<glyph name="vocRR_skt" format="2">
  <advance width="492"/>
  <unicode hex="1053"/>
  <note>
vocRR_skt
</note>
  <outline>
    <contour>
      <point x="260" y="-9" type="line" smooth="yes"/>
      <point x="373" y="-9"/>
      <point x="440" y="66"/>
      <point x="440" y="174" type="curve" smooth="yes"/>
      <point x="440" y="296"/>
      <point x="349" y="332"/>
      <point x="349" y="403" type="curve" smooth="yes"/>
      <point x="349" y="431"/>
      <point x="365" y="438"/>
      <point x="379" y="438" type="curve" smooth="yes"/>
      <point x="402" y="438"/>
      <point x="412" y="420"/>
      <point x="416" y="401" type="curve"/>
      <point x="455" y="401" type="line"/>
      <point x="465" y="496"/>
      <point x="419" y="545"/>
      <point x="361" y="545" type="curve" smooth="yes"/>
      <point x="309" y="545"/>
      <point x="273" y="505"/>
      <point x="273" y="439" type="curve" smooth="yes"/>
      <point x="273" y="337"/>
      <point x="358" y="306"/>
      <point x="358" y="215" type="curve" smooth="yes"/>
      <point x="358" y="151"/>
      <point x="310" y="115"/>
      <point x="246" y="115" type="curve" smooth="yes"/>
      <point x="182" y="115"/>
      <point x="134" y="151"/>
      <point x="134" y="215" type="curve" smooth="yes"/>
      <point x="134" y="306"/>
      <point x="219" y="337"/>
      <point x="219" y="439" type="curve" smooth="yes"/>
      <point x="219" y="505"/>
      <point x="183" y="545"/>
      <point x="131" y="545" type="curve" smooth="yes"/>
      <point x="73" y="545"/>
      <point x="27" y="496"/>
      <point x="37" y="401" type="curve"/>
      <point x="76" y="401" type="line"/>
      <point x="80" y="420"/>
      <point x="90" y="438"/>
      <point x="113" y="438" type="curve" smooth="yes"/>
      <point x="127" y="438"/>
      <point x="143" y="431"/>
      <point x="143" y="403" type="curve" smooth="yes"/>
      <point x="143" y="332"/>
      <point x="52" y="296"/>
      <point x="52" y="174" type="curve" smooth="yes"/>
      <point x="52" y="66"/>
      <point x="119" y="-9"/>
      <point x="232" y="-9" type="curve" smooth="yes"/>
    </contour>
  </outline>
</glyph>
<glyph name="vocLL_skt" format="2">
  <advance width="491"/>
  <unicode hex="1055"/>
  <note>
vocLL_skt
</note>
  <outline>
    <contour>
      <point x="165" y="119" type="curve" smooth="yes"/>
      <point x="129" y="119"/>
      <point x="114" y="155"/>
      <point x="114" y="250" type="curve" smooth="yes"/>
      <point x="114" y="275" type="line" smooth="yes"/>
      <point x="114" y="369"/>
      <point x="170" y="421"/>
      <point x="250" y="421" type="curve" smooth="yes"/>
      <point x="311" y="421" type="line" smooth="yes"/>
      <point x="360" y="421"/>
      <point x="378" y="401"/>
      <point x="378" y="372" type="curve" smooth="yes"/>
      <point x="378" y="345"/>
      <point x="357" y="331"/>
      <point x="327" y="331" type="curve" smooth="yes"/>
      <point x="313" y="331" type="line" smooth="yes"/>
      <point x="270" y="331"/>
      <point x="253" y="347"/>
      <point x="253" y="387" type="curve" smooth="yes"/>
      <point x="253" y="444" type="line"/>
      <point x="200" y="444" type="line"/>
      <point x="200" y="392" type="line" smooth="yes"/>
      <point x="200" y="285"/>
      <point x="260" y="268"/>
      <point x="314" y="268" type="curve" smooth="yes"/>
      <point x="417" y="268"/>
      <point x="438" y="327"/>
      <point x="438" y="381" type="curve" smooth="yes"/>
      <point x="438" y="461"/>
      <point x="392" y="545"/>
      <point x="268" y="545" type="curve" smooth="yes"/>
      <point x="188" y="545"/>
      <point x="129" y="518"/>
      <point x="93" y="461" type="curve" smooth="yes"/>
      <point x="65" y="416"/>
      <point x="52" y="354"/>
      <point x="52" y="268" type="curve" smooth="yes"/>
      <point x="52" y="94"/>
      <point x="75" y="-9"/>
      <point x="156" y="-9" type="curve" smooth="yes"/>
      <point x="204" y="-9"/>
      <point x="232" y="28"/>
      <point x="245" y="81" type="curve"/>
      <point x="253" y="28"/>
      <point x="287" y="-9"/>
      <point x="334" y="-9" type="curve" smooth="yes"/>
      <point x="423" y="-9"/>
      <point x="439" y="124"/>
      <point x="439" y="213" type="curve"/>
      <point x="376" y="213" type="line"/>
      <point x="374" y="155"/>
      <point x="359" y="119"/>
      <point x="325" y="119" type="curve" smooth="yes"/>
      <point x="291" y="119"/>
      <point x="276" y="157"/>
      <point x="276" y="213" type="curve"/>
      <point x="215" y="213" type="line"/>
      <point x="215" y="157"/>
      <point x="201" y="119"/>
    </contour>
  </outline>
</glyph>
<glyph name="_vocR_skt" format="2">
  <advance width="269"/>
  <unicode hex="1056"/>
  <note>
_vocR_skt
</note>
  <outline>
    <contour>
      <point x="37" y="-9" type="line" smooth="yes"/>
      <point x="150" y="-9"/>
      <point x="217" y="66"/>
      <point x="217" y="174" type="curve" smooth="yes"/>
      <point x="217" y="296"/>
      <point x="126" y="332"/>
      <point x="126" y="403" type="curve" smooth="yes"/>
      <point x="126" y="431"/>
      <point x="142" y="438"/>
      <point x="156" y="438" type="curve" smooth="yes"/>
      <point x="179" y="438"/>
      <point x="189" y="420"/>
      <point x="193" y="401" type="curve"/>
      <point x="232" y="401" type="line"/>
      <point x="242" y="496"/>
      <point x="196" y="545"/>
      <point x="138" y="545" type="curve" smooth="yes"/>
      <point x="86" y="545"/>
      <point x="50" y="505"/>
      <point x="50" y="439" type="curve" smooth="yes"/>
      <point x="50" y="337"/>
      <point x="135" y="306"/>
      <point x="135" y="215" type="curve" smooth="yes"/>
      <point x="135" y="151"/>
      <point x="87" y="115"/>
      <point x="23" y="115" type="curve" smooth="yes"/>
      <point x="-33" y="115"/>
      <point x="-72" y="123"/>
      <point x="-101" y="138" type="curve"/>
      <point x="-157" y="55" type="line"/>
      <point x="-122" y="16"/>
      <point x="-68" y="-9"/>
      <point x="-2" y="-9" type="curve" smooth="yes"/>
    </contour>
  </outline>
</glyph>
<glyph name="_vocRR_skt" format="2">
  <advance width="328"/>
  <unicode hex="1057"/>
  <note>
_vocRR_skt
</note>
  <outline>
    <contour>
      <point x="-75" y="167" type="curve"/>
      <point x="-122" y="74" type="line"/>
      <point x="-110" y="19"/>
      <point x="-79" y="-9"/>
      <point x="-33" y="-9" type="curve" smooth="yes"/>
      <point x="24" y="-9"/>
      <point x="53" y="33"/>
      <point x="60" y="80" type="curve"/>
      <point x="68" y="30"/>
      <point x="103" y="-9"/>
      <point x="161" y="-9" type="curve" smooth="yes"/>
      <point x="243" y="-9"/>
      <point x="276" y="67"/>
      <point x="276" y="158" type="curve" smooth="yes"/>
      <point x="276" y="291"/>
      <point x="185" y="329"/>
      <point x="185" y="403" type="curve" smooth="yes"/>
      <point x="185" y="431"/>
      <point x="201" y="438"/>
      <point x="215" y="438" type="curve" smooth="yes"/>
      <point x="238" y="438"/>
      <point x="248" y="420"/>
      <point x="252" y="401" type="curve"/>
      <point x="291" y="401" type="line"/>
      <point x="301" y="496"/>
      <point x="255" y="545"/>
      <point x="197" y="545" type="curve" smooth="yes"/>
      <point x="145" y="545"/>
      <point x="109" y="505"/>
      <point x="109" y="439" type="curve" smooth="yes"/>
      <point x="109" y="337"/>
      <point x="194" y="303"/>
      <point x="194" y="194" type="curve" smooth="yes"/>
      <point x="194" y="147"/>
      <point x="182" y="115"/>
      <point x="143" y="115" type="curve" smooth="yes"/>
      <point x="101" y="115"/>
      <point x="92" y="148"/>
      <point x="89" y="204" type="curve"/>
      <point x="31" y="204" type="line"/>
      <point x="27" y="145"/>
      <point x="12" y="115"/>
      <point x="-28" y="115" type="curve" smooth="yes"/>
      <point x="-58" y="115"/>
      <point x="-69" y="138"/>
    </contour>
  </outline>
</glyph>
<glyph name="_vocLL_skt" format="2">
  <unicode hex="1059"/>
  <outline>
    <contour>
      <point x="-81" y="-350" type="curve"/>
      <point x="-135" y="-350" type="line"/>
      <point x="-137" y="-398"/>
      <point x="-150" y="-427"/>
      <point x="-180" y="-427" type="curve" smooth="yes"/>
      <point x="-209" y="-427"/>
      <point x="-222" y="-396"/>
      <point x="-222" y="-350" type="curve"/>
      <point x="-275" y="-350" type="line"/>
      <point x="-275" y="-396"/>
      <point x="-287" y="-427"/>
      <point x="-318" y="-427" type="curve" smooth="yes"/>
      <point x="-350" y="-427"/>
      <point x="-363" y="-397"/>
      <point x="-363" y="-318" type="curve" smooth="yes"/>
      <point x="-363" y="-298" type="line" smooth="yes"/>
      <point x="-363" y="-206"/>
      <point x="-314" y="-175"/>
      <point x="-243" y="-175" type="curve" smooth="yes"/>
      <point x="-191" y="-175" type="line" smooth="yes"/>
      <point x="-149" y="-175"/>
      <point x="-133" y="-190"/>
      <point x="-133" y="-211" type="curve" smooth="yes"/>
      <point x="-133" y="-233"/>
      <point x="-151" y="-246"/>
      <point x="-177" y="-246" type="curve" smooth="yes"/>
      <point x="-189" y="-246" type="line" smooth="yes"/>
      <point x="-226" y="-246"/>
      <point x="-241" y="-233"/>
      <point x="-241" y="-200" type="curve" smooth="yes"/>
      <point x="-241" y="-151" type="line"/>
      <point x="-286" y="-151" type="line"/>
      <point x="-286" y="-196" type="line" smooth="yes"/>
      <point x="-286" y="-290"/>
      <point x="-235" y="-305"/>
      <point x="-188" y="-305" type="curve" smooth="yes"/>
      <point x="-104" y="-305"/>
      <point x="-82" y="-251"/>
      <point x="-82" y="-202" type="curve" smooth="yes"/>
      <point x="-82" y="-135"/>
      <point x="-121" y="-64"/>
      <point x="-225" y="-64" type="curve" smooth="yes"/>
      <point x="-248" y="-64" type="line" smooth="yes"/>
      <point x="-308" y="-64"/>
      <point x="-353" y="-93"/>
      <point x="-380" y="-139" type="curve" smooth="yes"/>
      <point x="-404" y="-180"/>
      <point x="-413" y="-231"/>
      <point x="-413" y="-303" type="curve" smooth="yes"/>
      <point x="-413" y="-453"/>
      <point x="-394" y="-541"/>
      <point x="-324" y="-541" type="curve" smooth="yes"/>
      <point x="-283" y="-541"/>
      <point x="-259" y="-509"/>
      <point x="-248" y="-463" type="curve"/>
      <point x="-241" y="-509"/>
      <point x="-211" y="-541"/>
      <point x="-171" y="-541" type="curve" smooth="yes"/>
      <point x="-95" y="-541"/>
      <point x="-81" y="-426"/>
    </contour>
  </outline>
</glyph>
<glyph name="jha_mon" format="2">
  <advance width="678"/>
  <unicode hex="105B"/>
  <note>
Unlikely to ever take marks below.
</note>
  <outline>
    <contour>
      <point x="294" y="-347" type="line" smooth="yes"/>
      <point x="294" y="-478"/>
      <point x="339" y="-541"/>
      <point x="457" y="-541" type="curve" smooth="yes"/>
      <point x="575" y="-541"/>
      <point x="620" y="-481"/>
      <point x="620" y="-347" type="curve" smooth="yes"/>
      <point x="620" y="536" type="line"/>
      <point x="546" y="536" type="line"/>
      <point x="546" y="-313" type="line" smooth="yes"/>
      <point x="546" y="-388"/>
      <point x="524" y="-414"/>
      <point x="457" y="-414" type="curve" smooth="yes"/>
      <point x="390" y="-414"/>
      <point x="368" y="-388"/>
      <point x="368" y="-313" type="curve" smooth="yes"/>
      <point x="368" y="85" type="line"/>
      <point x="272" y="85" type="line"/>
      <point x="176" y="-310" type="line" smooth="yes"/>
      <point x="159" y="-382"/>
      <point x="148" y="-410"/>
      <point x="101" y="-410" type="curve" smooth="yes"/>
      <point x="93" y="-410"/>
      <point x="82" y="-409"/>
      <point x="79" y="-408" type="curve"/>
      <point x="52" y="-532" type="line"/>
      <point x="61" y="-537"/>
      <point x="88" y="-541"/>
      <point x="101" y="-541" type="curve" smooth="yes"/>
      <point x="172" y="-541"/>
      <point x="201" y="-486"/>
      <point x="233" y="-350" type="curve" smooth="yes"/>
      <point x="264" y="-214" type="line" smooth="yes"/>
      <point x="277" y="-159"/>
      <point x="288" y="-104"/>
      <point x="295" y="-57" type="curve"/>
      <point x="300" y="-57" type="line"/>
      <point x="296" y="-107"/>
      <point x="294" y="-164"/>
      <point x="294" y="-222" type="curve" smooth="yes"/>
    </contour>
    <component base="ja"/>
  </outline>
</glyph>
<glyph name="bbe_mon" format="2">
  <advance width="488"/>
  <unicode hex="105D"/>
  <outline>
    <contour>
      <point x="368" y="69" type="line"/>
      <point x="298" y="33" type="line"/>
      <point x="298" y="-295" type="line" smooth="yes"/>
      <point x="298" y="-364"/>
      <point x="292" y="-386"/>
      <point x="280" y="-399" type="curve" smooth="yes"/>
      <point x="261" y="-420"/>
      <point x="239" y="-422"/>
      <point x="196" y="-422" type="curve" smooth="yes"/>
      <point x="147" y="-422"/>
      <point x="108" y="-409"/>
      <point x="108" y="-365" type="curve" smooth="yes"/>
      <point x="108" y="-344"/>
      <point x="117" y="-317"/>
      <point x="157" y="-317" type="curve" smooth="yes"/>
      <point x="189" y="-317"/>
      <point x="206" y="-342"/>
      <point x="208" y="-366" type="curve"/>
      <point x="278" y="-366" type="line"/>
      <point x="271" y="-297"/>
      <point x="236" y="-260"/>
      <point x="166" y="-260" type="curve" smooth="yes"/>
      <point x="84" y="-260"/>
      <point x="52" y="-319"/>
      <point x="52" y="-395" type="curve" smooth="yes"/>
      <point x="52" y="-446"/>
      <point x="60" y="-483"/>
      <point x="86" y="-506" type="curve" smooth="yes"/>
      <point x="117" y="-534"/>
      <point x="156" y="-540"/>
      <point x="213" y="-540" type="curve" smooth="yes"/>
      <point x="276" y="-540"/>
      <point x="306" y="-529"/>
      <point x="331" y="-497" type="curve" smooth="yes"/>
      <point x="353" y="-472"/>
      <point x="368" y="-433"/>
      <point x="368" y="-336" type="curve" smooth="yes"/>
    </contour>
    <component base="ma"/>
  </outline>
</glyph>
<glyph name="_medialNa_mon" format="2">
  <unicode hex="105E"/>
  <outline>
    <contour>
      <point x="-120" y="73" type="line"/>
      <point x="-190" y="73" type="line"/>
      <point x="-190" y="-363" type="line" smooth="yes"/>
      <point x="-190" y="-405"/>
      <point x="-198" y="-426"/>
      <point x="-233" y="-426" type="curve" smooth="yes"/>
      <point x="-285" y="-426"/>
      <point x="-359" y="-383"/>
      <point x="-359" y="-326" type="curve" smooth="yes"/>
      <point x="-359" y="-276"/>
      <point x="-290" y="-255"/>
      <point x="-224" y="-255" type="curve" smooth="yes"/>
      <point x="-153" y="-255"/>
      <point x="-90" y="-278"/>
      <point x="-37" y="-301" type="curve"/>
      <point x="-15" y="-199" type="line"/>
      <point x="-64" y="-167"/>
      <point x="-145" y="-145"/>
      <point x="-205" y="-145" type="curve" smooth="yes"/>
      <point x="-361" y="-145"/>
      <point x="-409" y="-208"/>
      <point x="-409" y="-310" type="curve" smooth="yes"/>
      <point x="-409" y="-443"/>
      <point x="-303" y="-542"/>
      <point x="-206" y="-542" type="curve" smooth="yes"/>
      <point x="-126" y="-542"/>
      <point x="-120" y="-466"/>
      <point x="-120" y="-403" type="curve" smooth="yes"/>
    </contour>
  </outline>
</glyph>
<glyph name="_medialMa_mon" format="2">
  <unicode hex="105F"/>
  <outline>
    <contour>
      <point x="-155" y="45" type="line"/>
      <point x="-220" y="32" type="line"/>
      <point x="-220" y="-147" type="line"/>
      <point x="-354" y="-133"/>
      <point x="-429" y="-200"/>
      <point x="-429" y="-346" type="curve" smooth="yes"/>
      <point x="-429" y="-482"/>
      <point x="-355" y="-541"/>
      <point x="-241" y="-541" type="curve" smooth="yes"/>
      <point x="-189" y="-541"/>
      <point x="-133" y="-529"/>
      <point x="-87" y="-503" type="curve"/>
      <point x="-100" y="-399" type="line"/>
      <point x="-146" y="-420"/>
      <point x="-202" y="-427"/>
      <point x="-243" y="-427" type="curve" smooth="yes"/>
      <point x="-312" y="-427"/>
      <point x="-376" y="-407"/>
      <point x="-376" y="-344" type="curve" smooth="yes"/>
      <point x="-376" y="-274"/>
      <point x="-299" y="-237"/>
      <point x="-155" y="-266" type="curve"/>
    </contour>
  </outline>
</glyph>
<glyph name="_medialLa_mon" format="2">
  <unicode hex="1060"/>
  <outline>
    <contour>
      <point x="-150" y="36" type="curve"/>
      <point x="-243" y="10" type="line"/>
      <point x="-289" y="-121"/>
      <point x="-358" y="-241"/>
      <point x="-439" y="-368" type="curve"/>
      <point x="-433" y="-479"/>
      <point x="-351" y="-541"/>
      <point x="-244" y="-541" type="curve" smooth="yes"/>
      <point x="-131" y="-541"/>
      <point x="-62" y="-487"/>
      <point x="-53" y="-346" type="curve"/>
      <point x="-105" y="-335" type="line"/>
      <point x="-126" y="-404"/>
      <point x="-178" y="-421"/>
      <point x="-236" y="-421" type="curve" smooth="yes"/>
      <point x="-291" y="-421"/>
      <point x="-336" y="-399"/>
      <point x="-357" y="-353" type="curve"/>
      <point x="-277" y="-234"/>
      <point x="-210" y="-135"/>
    </contour>
  </outline>
</glyph>
<glyph name="sha_skn" format="2">
  <advance width="494"/>
  <unicode hex="1061"/>
  <note>
Sgaw Karen does not use subjoined consonants.
</note>
  <outline>
    <contour>
      <point x="268" y="73" type="line"/>
      <point x="268" y="-301" type="line" smooth="yes"/>
      <point x="268" y="-386"/>
      <point x="250" y="-412"/>
      <point x="191" y="-412" type="curve" smooth="yes"/>
      <point x="187" y="-412" type="line"/>
      <point x="187" y="-540" type="line"/>
      <point x="192" y="-541"/>
      <point x="199" y="-541"/>
      <point x="202" y="-541" type="curve" smooth="yes"/>
      <point x="288" y="-541"/>
      <point x="330" y="-489"/>
      <point x="330" y="-333" type="curve" smooth="yes"/>
      <point x="330" y="137" type="line"/>
    </contour>
    <component base="ra.alt"/>
  </outline>
</glyph>
<glyph name="eu_skn" format="2">
  <advance width="434"/>
  <unicode hex="1062"/>
  <note>
Used in Sgaw, Khamti, Shan.
</note>
  <outline>
    <contour>
      <point x="376" y="0" type="line"/>
      <point x="376" y="409" type="line" smooth="yes"/>
      <point x="376" y="522"/>
      <point x="306" y="546"/>
      <point x="198" y="546" type="curve" smooth="yes"/>
      <point x="85" y="546"/>
      <point x="22" y="516"/>
      <point x="22" y="414" type="curve" smooth="yes"/>
      <point x="22" y="395"/>
      <point x="24" y="375"/>
      <point x="29" y="360" type="curve"/>
      <point x="82" y="360" type="line"/>
      <point x="95" y="419"/>
      <point x="126" y="426"/>
      <point x="201" y="426" type="curve" smooth="yes"/>
      <point x="269" y="426"/>
      <point x="300" y="419"/>
      <point x="300" y="350" type="curve" smooth="yes"/>
      <point x="300" y="0" type="line"/>
    </contour>
  </outline>
</glyph>
<glyph name="kepho_skn" format="2">
  <advance width="350"/>
  <unicode hex="1064"/>
  <outline>
    <contour>
      <point x="90" y="545" type="curve" smooth="yes"/>
      <point x="61" y="545"/>
      <point x="39" y="539"/>
      <point x="22" y="530" type="curve"/>
      <point x="22" y="417" type="line"/>
      <point x="80" y="417" type="line" smooth="yes"/>
      <point x="121" y="417"/>
      <point x="142" y="395"/>
      <point x="142" y="330" type="curve" smooth="yes"/>
      <point x="142" y="133" type="line" smooth="yes"/>
      <point x="142" y="41"/>
      <point x="185" y="-9"/>
      <point x="260" y="-9" type="curve" smooth="yes"/>
      <point x="289" y="-9"/>
      <point x="311" y="-3"/>
      <point x="328" y="6" type="curve"/>
      <point x="328" y="119" type="line"/>
      <point x="270" y="119" type="line" smooth="yes"/>
      <point x="229" y="119"/>
      <point x="208" y="141"/>
      <point x="208" y="206" type="curve" smooth="yes"/>
      <point x="208" y="403" type="line" smooth="yes"/>
      <point x="208" y="495"/>
      <point x="165" y="545"/>
    </contour>
  </outline>
</glyph>
<glyph name="pwa_wpk" format="2">
  <advance width="488"/>
  <unicode hex="1066"/>
  <outline>
    <contour>
      <point x="436" y="-348" type="curve" smooth="yes"/>
      <point x="436" y="268" type="line"/>
      <point x="374" y="73" type="line"/>
      <point x="374" y="-332" type="line" smooth="yes"/>
      <point x="374" y="-408"/>
      <point x="337" y="-430"/>
      <point x="288" y="-430" type="curve" smooth="yes"/>
      <point x="239" y="-430"/>
      <point x="209" y="-408"/>
      <point x="204" y="-371" type="curve"/>
      <point x="148" y="-371" type="line"/>
      <point x="147" y="-376"/>
      <point x="147" y="-381"/>
      <point x="147" y="-386" type="curve" smooth="yes"/>
      <point x="147" y="-481"/>
      <point x="210" y="-542"/>
      <point x="288" y="-542" type="curve" smooth="yes"/>
      <point x="393" y="-542"/>
      <point x="436" y="-461"/>
    </contour>
    <component base="pa"/>
  </outline>
</glyph>
<glyph name="eu_wpk" format="2">
  <advance width="330"/>
  <unicode hex="1067"/>
  <outline>
    <contour>
      <point x="272" y="536" type="line"/>
      <point x="196" y="536" type="line"/>
      <point x="196" y="214" type="line"/>
      <point x="240" y="141" type="line"/>
      <point x="240" y="227"/>
      <point x="215" y="273"/>
      <point x="146" y="273" type="curve" smooth="yes"/>
      <point x="86" y="273"/>
      <point x="45" y="227"/>
      <point x="45" y="136" type="curve" smooth="yes"/>
      <point x="45" y="40"/>
      <point x="88" y="-9"/>
      <point x="163" y="-9" type="curve" smooth="yes"/>
      <point x="239" y="-9"/>
      <point x="272" y="55"/>
      <point x="272" y="131" type="curve" smooth="yes"/>
    </contour>
    <contour>
      <point x="157" y="99" type="curve" smooth="yes"/>
      <point x="124" y="99"/>
      <point x="109" y="122"/>
      <point x="109" y="153" type="curve" smooth="yes"/>
      <point x="109" y="183"/>
      <point x="124" y="205"/>
      <point x="157" y="205" type="curve" smooth="yes"/>
      <point x="191" y="205"/>
      <point x="206" y="183"/>
      <point x="206" y="153" type="curve" smooth="yes"/>
      <point x="206" y="122"/>
      <point x="191" y="99"/>
    </contour>
  </outline>
</glyph>
<glyph name="tone1_wpk" format="2">
  <advance width="320"/>
  <unicode hex="1069"/>
  <outline>
    <contour>
      <point x="269" y="164" type="curve"/>
      <point x="212" y="164" type="line"/>
      <point x="212" y="155" type="line" smooth="yes"/>
      <point x="212" y="119"/>
      <point x="198" y="97"/>
      <point x="164" y="97" type="curve" smooth="yes"/>
      <point x="129" y="97"/>
      <point x="113" y="119"/>
      <point x="113" y="150" type="curve" smooth="yes"/>
      <point x="113" y="187"/>
      <point x="141" y="212"/>
      <point x="170" y="235" type="curve" smooth="yes"/>
      <point x="245" y="297"/>
      <point x="278" y="340"/>
      <point x="278" y="411" type="curve" smooth="yes"/>
      <point x="278" y="496"/>
      <point x="241" y="545"/>
      <point x="167" y="545" type="curve" smooth="yes"/>
      <point x="88" y="545"/>
      <point x="48" y="492"/>
      <point x="48" y="407" type="curve" smooth="yes"/>
      <point x="48" y="389"/>
      <point x="48" y="384"/>
      <point x="51" y="372" type="curve"/>
      <point x="108" y="372" type="line"/>
      <point x="108" y="381" type="line" smooth="yes"/>
      <point x="108" y="417"/>
      <point x="125" y="439"/>
      <point x="159" y="439" type="curve" smooth="yes"/>
      <point x="193" y="439"/>
      <point x="207" y="417"/>
      <point x="207" y="388" type="curve" smooth="yes"/>
      <point x="207" y="349"/>
      <point x="178" y="324"/>
      <point x="150" y="301" type="curve" smooth="yes"/>
      <point x="87" y="248"/>
      <point x="42" y="206"/>
      <point x="42" y="125" type="curve" smooth="yes"/>
      <point x="42" y="39"/>
      <point x="83" y="-9"/>
      <point x="154" y="-9" type="curve" smooth="yes"/>
      <point x="232" y="-9"/>
      <point x="271" y="44"/>
      <point x="271" y="129" type="curve" smooth="yes"/>
      <point x="271" y="147"/>
      <point x="271" y="152"/>
    </contour>
  </outline>
</glyph>
<glyph name="tone3_wpk" format="2">
  <advance width="381"/>
  <unicode hex="106B"/>
  <outline>
    <contour>
      <point x="323" y="0" type="line"/>
      <point x="323" y="370" type="line" smooth="yes"/>
      <point x="323" y="483"/>
      <point x="278" y="545"/>
      <point x="180" y="545" type="curve" smooth="yes"/>
      <point x="80" y="545"/>
      <point x="36" y="480"/>
      <point x="36" y="394" type="curve" smooth="yes"/>
      <point x="36" y="381"/>
      <point x="37" y="371"/>
      <point x="38" y="365" type="curve"/>
      <point x="96" y="365" type="line"/>
      <point x="103" y="401"/>
      <point x="125" y="426"/>
      <point x="175" y="426" type="curve" smooth="yes"/>
      <point x="226" y="426"/>
      <point x="249" y="399"/>
      <point x="249" y="340" type="curve" smooth="yes"/>
      <point x="249" y="0" type="line"/>
    </contour>
  </outline>
</glyph>
<glyph name="tone5_wpk" format="2">
  <advance width="313"/>
  <unicode hex="106D"/>
  <outline>
    <contour>
      <point x="159" y="545" type="curve" smooth="yes"/>
      <point x="80" y="545"/>
      <point x="43" y="484"/>
      <point x="43" y="406" type="curve" smooth="yes"/>
      <point x="43" y="327"/>
      <point x="64" y="298"/>
      <point x="143" y="235" type="curve" smooth="yes"/>
      <point x="172" y="212"/>
      <point x="200" y="187"/>
      <point x="200" y="150" type="curve" smooth="yes"/>
      <point x="200" y="119"/>
      <point x="184" y="97"/>
      <point x="149" y="97" type="curve" smooth="yes"/>
      <point x="115" y="97"/>
      <point x="101" y="119"/>
      <point x="101" y="155" type="curve" smooth="yes"/>
      <point x="101" y="164" type="line"/>
      <point x="44" y="164" type="line"/>
      <point x="42" y="152"/>
      <point x="42" y="147"/>
      <point x="42" y="129" type="curve" smooth="yes"/>
      <point x="42" y="44"/>
      <point x="81" y="-9"/>
      <point x="159" y="-9" type="curve" smooth="yes"/>
      <point x="230" y="-9"/>
      <point x="271" y="38"/>
      <point x="271" y="125" type="curve" smooth="yes"/>
      <point x="271" y="206"/>
      <point x="226" y="248"/>
      <point x="163" y="301" type="curve"/>
      <point x="173" y="264" type="line"/>
      <point x="230" y="264"/>
      <point x="270" y="315"/>
      <point x="270" y="403" type="curve" smooth="yes"/>
      <point x="270" y="495"/>
      <point x="235" y="545"/>
    </contour>
    <contour>
      <point x="158" y="332" type="curve" smooth="yes"/>
      <point x="123" y="332"/>
      <point x="109" y="354"/>
      <point x="109" y="384" type="curve" smooth="yes"/>
      <point x="109" y="415"/>
      <point x="123" y="438"/>
      <point x="158" y="438" type="curve" smooth="yes"/>
      <point x="192" y="438"/>
      <point x="206" y="415"/>
      <point x="206" y="384" type="curve" smooth="yes"/>
      <point x="206" y="354"/>
      <point x="192" y="332"/>
    </contour>
  </outline>
</glyph>
<glyph name="nna_epk" format="2">
  <advance width="893"/>
  <unicode hex="106E"/>
  <note>
Also used in Thai Mon.
</note>
  <outline>
    <contour>
      <point x="404" y="342" type="line"/>
      <point x="405" y="395"/>
      <point x="427" y="421"/>
      <point x="458" y="421" type="curve" smooth="yes"/>
      <point x="487" y="421"/>
      <point x="511" y="397"/>
      <point x="518" y="343" type="curve" smooth="yes"/>
      <point x="523" y="306"/>
      <point x="523" y="234"/>
      <point x="518" y="195" type="curve" smooth="yes"/>
      <point x="511" y="143"/>
      <point x="488" y="120"/>
      <point x="457" y="115" type="curve"/>
      <point x="457" y="-9" type="line"/>
      <point x="518" y="-4"/>
      <point x="560" y="58"/>
      <point x="573" y="145" type="curve" smooth="yes"/>
      <point x="585" y="224"/>
      <point x="585" y="305"/>
      <point x="573" y="391" type="curve" smooth="yes"/>
      <point x="560" y="487"/>
      <point x="518" y="545"/>
      <point x="454" y="545" type="curve" smooth="yes"/>
      <point x="390" y="545"/>
      <point x="348" y="487"/>
      <point x="335" y="391" type="curve"/>
    </contour>
    <component base="_aa" xOffset="603"/>
    <component base="ga"/>
  </outline>
</glyph>
<glyph name="ywa_epk" format="2">
  <advance width="778"/>
  <unicode hex="106F"/>
  <outline>
    <contour>
      <point x="374" y="73" type="line"/>
      <point x="374" y="-301" type="line" smooth="yes"/>
      <point x="374" y="-386"/>
      <point x="356" y="-412"/>
      <point x="297" y="-412" type="curve" smooth="yes"/>
      <point x="293" y="-412" type="line"/>
      <point x="293" y="-540" type="line"/>
      <point x="298" y="-541"/>
      <point x="305" y="-541"/>
      <point x="308" y="-541" type="curve" smooth="yes"/>
      <point x="394" y="-541"/>
      <point x="436" y="-489"/>
      <point x="436" y="-333" type="curve" smooth="yes"/>
      <point x="436" y="268" type="line"/>
    </contour>
    <component base="ha"/>
  </outline>
</glyph>
<glyph name="ghwa_epk" format="2">
  <advance width="778"/>
  <unicode hex="1070"/>
  <outline>
    <contour>
      <point x="358" y="73" type="line"/>
      <point x="358" y="-301" type="line" smooth="yes"/>
      <point x="358" y="-386"/>
      <point x="340" y="-412"/>
      <point x="281" y="-412" type="curve" smooth="yes"/>
      <point x="277" y="-412" type="line"/>
      <point x="277" y="-540" type="line"/>
      <point x="282" y="-541"/>
      <point x="289" y="-541"/>
      <point x="292" y="-541" type="curve" smooth="yes"/>
      <point x="378" y="-541"/>
      <point x="420" y="-489"/>
      <point x="420" y="-333" type="curve" smooth="yes"/>
      <point x="420" y="73" type="line"/>
    </contour>
    <component base="gha"/>
  </outline>
</glyph>
<glyph name="u_kyh" format="2">
  <unicode hex="1073"/>
  <outline>
    <contour>
      <point x="-154" y="644" type="line"/>
      <point x="-34" y="687" type="line"/>
      <point x="-208" y="903" type="line"/>
      <point x="-280" y="903" type="line"/>
      <point x="-454" y="687" type="line"/>
      <point x="-334" y="644" type="line"/>
      <point x="-244" y="847" type="line"/>
    </contour>
  </outline>
</glyph>
<glyph name="kha_shn" format="2">
  <advance width="485"/>
  <unicode hex="1076"/>
  <outline>
    <contour>
      <point x="123" y="545" type="curve"/>
      <point x="67" y="545" type="line"/>
      <point x="62" y="530"/>
      <point x="57" y="505"/>
      <point x="57" y="475" type="curve" smooth="yes"/>
      <point x="57" y="416"/>
      <point x="87" y="368"/>
      <point x="139" y="368" type="curve" smooth="yes"/>
      <point x="207" y="368"/>
      <point x="224" y="421"/>
      <point x="281" y="421" type="curve" smooth="yes"/>
      <point x="333" y="421"/>
      <point x="371" y="369"/>
      <point x="371" y="277" type="curve" smooth="yes"/>
      <point x="371" y="259" type="line" smooth="yes"/>
      <point x="371" y="167"/>
      <point x="317" y="115"/>
      <point x="241" y="115" type="curve" smooth="yes"/>
      <point x="180" y="115" type="line" smooth="yes"/>
      <point x="131" y="115"/>
      <point x="113" y="135"/>
      <point x="113" y="164" type="curve" smooth="yes"/>
      <point x="113" y="191"/>
      <point x="134" y="205"/>
      <point x="164" y="205" type="curve" smooth="yes"/>
      <point x="178" y="205" type="line" smooth="yes"/>
      <point x="221" y="205"/>
      <point x="238" y="189"/>
      <point x="238" y="149" type="curve" smooth="yes"/>
      <point x="238" y="92" type="line"/>
      <point x="291" y="92" type="line"/>
      <point x="291" y="144" type="line" smooth="yes"/>
      <point x="291" y="251"/>
      <point x="231" y="268"/>
      <point x="177" y="268" type="curve" smooth="yes"/>
      <point x="74" y="268"/>
      <point x="53" y="209"/>
      <point x="53" y="155" type="curve" smooth="yes"/>
      <point x="53" y="75"/>
      <point x="99" y="-9"/>
      <point x="216" y="-9" type="curve" smooth="yes"/>
      <point x="226" y="-9" type="line" smooth="yes"/>
      <point x="309" y="-9"/>
      <point x="364" y="22"/>
      <point x="395" y="74" type="curve" smooth="yes"/>
      <point x="422" y="120"/>
      <point x="433" y="182"/>
      <point x="433" y="268" type="curve" smooth="yes"/>
      <point x="433" y="427"/>
      <point x="390" y="545"/>
      <point x="296" y="545" type="curve" smooth="yes"/>
      <point x="228" y="545"/>
      <point x="200" y="478"/>
      <point x="161" y="478" type="curve" smooth="yes"/>
      <point x="126" y="478"/>
      <point x="120" y="516"/>
    </contour>
  </outline>
</glyph>
<glyph name="ga_shn" format="2">
  <advance width="488"/>
  <unicode hex="1077"/>
  <note>
ga_shn
</note>
  <outline>
    <contour>
      <point x="232" y="545" type="line" smooth="yes"/>
      <point x="119" y="545"/>
      <point x="52" y="470"/>
      <point x="52" y="362" type="curve" smooth="yes"/>
      <point x="52" y="240"/>
      <point x="143" y="204"/>
      <point x="143" y="133" type="curve" smooth="yes"/>
      <point x="143" y="105"/>
      <point x="127" y="98"/>
      <point x="113" y="98" type="curve" smooth="yes"/>
      <point x="90" y="98"/>
      <point x="80" y="116"/>
      <point x="76" y="135" type="curve"/>
      <point x="37" y="135" type="line"/>
      <point x="27" y="40"/>
      <point x="73" y="-9"/>
      <point x="131" y="-9" type="curve" smooth="yes"/>
      <point x="183" y="-9"/>
      <point x="219" y="31"/>
      <point x="219" y="97" type="curve" smooth="yes"/>
      <point x="219" y="199"/>
      <point x="134" y="230"/>
      <point x="134" y="321" type="curve" smooth="yes"/>
      <point x="134" y="385"/>
      <point x="182" y="421"/>
      <point x="245" y="421" type="curve" smooth="yes"/>
      <point x="320" y="421"/>
      <point x="374" y="369"/>
      <point x="374" y="277" type="curve" smooth="yes"/>
      <point x="374" y="259" type="line" smooth="yes"/>
      <point x="374" y="194"/>
      <point x="359" y="118"/>
      <point x="337" y="118" type="curve" smooth="yes"/>
      <point x="316" y="118"/>
      <point x="312" y="157"/>
      <point x="312" y="190" type="curve" smooth="yes"/>
      <point x="312" y="274"/>
      <point x="341" y="345"/>
      <point x="371" y="360" type="curve"/>
      <point x="378" y="422" type="line"/>
      <point x="315" y="420"/>
      <point x="255" y="328"/>
      <point x="255" y="162" type="curve" smooth="yes"/>
      <point x="255" y="57"/>
      <point x="280" y="-9"/>
      <point x="327" y="-9" type="curve" smooth="yes"/>
      <point x="402" y="-9"/>
      <point x="436" y="141"/>
      <point x="436" y="268" type="curve" smooth="yes"/>
      <point x="436" y="354"/>
      <point x="425" y="416"/>
      <point x="398" y="462" type="curve" smooth="yes"/>
      <point x="367" y="514"/>
      <point x="316" y="545"/>
      <point x="252" y="545" type="curve" smooth="yes"/>
    </contour>
  </outline>
</glyph>
<glyph name="na_shn" format="2">
  <advance width="819"/>
  <unicode hex="107C"/>
  <note>
na_shn
</note>
  <outline>
    <contour>
      <point x="764" y="326" type="line"/>
      <point x="760" y="461"/>
      <point x="705" y="545"/>
      <point x="601" y="545" type="curve" smooth="yes"/>
      <point x="484" y="545"/>
      <point x="429" y="437"/>
      <point x="429" y="266" type="curve" smooth="yes"/>
      <point x="429" y="84"/>
      <point x="491" y="-9"/>
      <point x="604" y="-9" type="curve" smooth="yes"/>
      <point x="686" y="-9"/>
      <point x="740" y="41"/>
      <point x="740" y="135" type="curve" smooth="yes"/>
      <point x="740" y="215"/>
      <point x="701" y="269"/>
      <point x="608" y="286" type="curve" smooth="yes"/>
      <point x="563" y="294"/>
      <point x="480" y="299"/>
      <point x="408" y="299" type="curve" smooth="yes"/>
      <point x="336" y="299"/>
      <point x="253" y="294"/>
      <point x="208" y="286" type="curve" smooth="yes"/>
      <point x="115" y="269"/>
      <point x="76" y="215"/>
      <point x="76" y="135" type="curve" smooth="yes"/>
      <point x="76" y="41"/>
      <point x="130" y="-9"/>
      <point x="212" y="-9" type="curve" smooth="yes"/>
      <point x="325" y="-9"/>
      <point x="387" y="84"/>
      <point x="387" y="266" type="curve" smooth="yes"/>
      <point x="387" y="437"/>
      <point x="332" y="545"/>
      <point x="215" y="545" type="curve" smooth="yes"/>
      <point x="111" y="545"/>
      <point x="56" y="461"/>
      <point x="52" y="326" type="curve"/>
      <point x="120" y="326" type="line"/>
      <point x="131" y="388"/>
      <point x="168" y="421"/>
      <point x="221" y="421" type="curve" smooth="yes"/>
      <point x="282" y="421"/>
      <point x="326" y="377"/>
      <point x="326" y="274" type="curve" smooth="yes"/>
      <point x="326" y="261" type="line" smooth="yes"/>
      <point x="326" y="158"/>
      <point x="275" y="115"/>
      <point x="211" y="115" type="curve" smooth="yes"/>
      <point x="177" y="115"/>
      <point x="146" y="126"/>
      <point x="146" y="161" type="curve" smooth="yes"/>
      <point x="146" y="204"/>
      <point x="187" y="218"/>
      <point x="230" y="224" type="curve" smooth="yes"/>
      <point x="272" y="230"/>
      <point x="342" y="235"/>
      <point x="408" y="235" type="curve" smooth="yes"/>
      <point x="474" y="235"/>
      <point x="544" y="230"/>
      <point x="586" y="224" type="curve" smooth="yes"/>
      <point x="629" y="218"/>
      <point x="670" y="204"/>
      <point x="670" y="161" type="curve" smooth="yes"/>
      <point x="670" y="126"/>
      <point x="639" y="115"/>
      <point x="605" y="115" type="curve" smooth="yes"/>
      <point x="541" y="115"/>
      <point x="490" y="158"/>
      <point x="490" y="261" type="curve" smooth="yes"/>
      <point x="490" y="274" type="line" smooth="yes"/>
      <point x="490" y="377"/>
      <point x="534" y="421"/>
      <point x="595" y="421" type="curve" smooth="yes"/>
      <point x="648" y="421"/>
      <point x="685" y="388"/>
      <point x="696" y="326" type="curve"/>
    </contour>
  </outline>
</glyph>
<glyph name="tha_shn" format="2">
  <advance width="778"/>
  <unicode hex="1080"/>
  <note>
tha_shn
</note>
  <outline>
    <contour>
      <point x="55" y="323" type="curve"/>
      <point x="118" y="323" type="line"/>
      <point x="123" y="381"/>
      <point x="169" y="421"/>
      <point x="244" y="421" type="curve" smooth="yes"/>
      <point x="320" y="421"/>
      <point x="374" y="369"/>
      <point x="374" y="277" type="curve" smooth="yes"/>
      <point x="374" y="259" type="line" smooth="yes"/>
      <point x="374" y="167"/>
      <point x="320" y="115"/>
      <point x="244" y="115" type="curve" smooth="yes"/>
      <point x="183" y="115" type="line" smooth="yes"/>
      <point x="134" y="115"/>
      <point x="116" y="135"/>
      <point x="116" y="164" type="curve" smooth="yes"/>
      <point x="116" y="191"/>
      <point x="137" y="205"/>
      <point x="167" y="205" type="curve" smooth="yes"/>
      <point x="181" y="205" type="line" smooth="yes"/>
      <point x="224" y="205"/>
      <point x="241" y="189"/>
      <point x="241" y="149" type="curve" smooth="yes"/>
      <point x="241" y="92" type="line"/>
      <point x="294" y="92" type="line"/>
      <point x="294" y="144" type="line" smooth="yes"/>
      <point x="294" y="251"/>
      <point x="234" y="268"/>
      <point x="178" y="268" type="curve" smooth="yes"/>
      <point x="72" y="268"/>
      <point x="56" y="204"/>
      <point x="56" y="151" type="curve" smooth="yes"/>
      <point x="56" y="73"/>
      <point x="102" y="-9"/>
      <point x="219" y="-9" type="curve" smooth="yes"/>
      <point x="229" y="-9" type="line" smooth="yes"/>
      <point x="312" y="-9"/>
      <point x="367" y="22"/>
      <point x="398" y="74" type="curve" smooth="yes"/>
      <point x="425" y="120"/>
      <point x="436" y="182"/>
      <point x="436" y="268" type="curve" smooth="yes"/>
      <point x="436" y="354"/>
      <point x="425" y="416"/>
      <point x="398" y="462" type="curve" smooth="yes"/>
      <point x="367" y="514"/>
      <point x="316" y="545"/>
      <point x="252" y="545" type="curve" smooth="yes"/>
      <point x="236" y="545" type="line" smooth="yes"/>
      <point x="98" y="545"/>
      <point x="55" y="408"/>
    </contour>
    <contour>
      <point x="380" y="74" type="line"/>
      <point x="411" y="22"/>
      <point x="462" y="-9"/>
      <point x="526" y="-9" type="curve" smooth="yes"/>
      <point x="542" y="-9" type="line" smooth="yes"/>
      <point x="606" y="-9"/>
      <point x="657" y="22"/>
      <point x="688" y="74" type="curve" smooth="yes"/>
      <point x="715" y="120"/>
      <point x="726" y="182"/>
      <point x="726" y="268" type="curve" smooth="yes"/>
      <point x="726" y="354"/>
      <point x="715" y="416"/>
      <point x="688" y="462" type="curve" smooth="yes"/>
      <point x="657" y="514"/>
      <point x="606" y="545"/>
      <point x="542" y="545" type="curve" smooth="yes"/>
      <point x="520" y="545"/>
      <point x="505" y="544"/>
      <point x="494" y="542" type="curve"/>
      <point x="494" y="421" type="line"/>
      <point x="534" y="421" type="line" smooth="yes"/>
      <point x="610" y="421"/>
      <point x="664" y="369"/>
      <point x="664" y="277" type="curve" smooth="yes"/>
      <point x="664" y="259" type="line" smooth="yes"/>
      <point x="664" y="167"/>
      <point x="610" y="115"/>
      <point x="534" y="115" type="curve" smooth="yes"/>
      <point x="484" y="115"/>
      <point x="444" y="138"/>
      <point x="422" y="179" type="curve"/>
    </contour>
  </outline>
</glyph>
<glyph name="ha_shn" format="2">
  <advance width="488"/>
  <unicode hex="1081"/>
  <outline>
    <contour>
      <point x="425" y="170" type="line"/>
      <point x="432" y="199"/>
      <point x="436" y="231"/>
      <point x="436" y="272" type="curve" smooth="yes"/>
      <point x="436" y="354"/>
      <point x="425" y="416"/>
      <point x="398" y="462" type="curve" smooth="yes"/>
      <point x="367" y="514"/>
      <point x="316" y="545"/>
      <point x="252" y="545" type="curve" smooth="yes"/>
      <point x="236" y="545" type="line" smooth="yes"/>
      <point x="172" y="545"/>
      <point x="121" y="514"/>
      <point x="90" y="462" type="curve" smooth="yes"/>
      <point x="63" y="416"/>
      <point x="52" y="354"/>
      <point x="52" y="268" type="curve" smooth="yes"/>
      <point x="52" y="183"/>
      <point x="64" y="110"/>
      <point x="92" y="61" type="curve" smooth="yes"/>
      <point x="116" y="17"/>
      <point x="154" y="-9"/>
      <point x="207" y="-9" type="curve" smooth="yes"/>
      <point x="239" y="-9"/>
      <point x="265" y="2"/>
      <point x="283" y="22" type="curve"/>
      <point x="240" y="40" type="line"/>
      <point x="154" y="-315" type="line" smooth="yes"/>
      <point x="137" y="-385"/>
      <point x="124" y="-410"/>
      <point x="85" y="-410" type="curve" smooth="yes"/>
      <point x="71" y="-410"/>
      <point x="65" y="-409"/>
      <point x="58" y="-407" type="curve"/>
      <point x="31" y="-532" type="line"/>
      <point x="40" y="-537"/>
      <point x="59" y="-541"/>
      <point x="77" y="-541" type="curve" smooth="yes"/>
      <point x="154" y="-541"/>
      <point x="180" y="-490"/>
      <point x="209" y="-364" type="curve" smooth="yes"/>
      <point x="302" y="35" type="line" smooth="yes"/>
      <point x="313" y="81"/>
      <point x="317" y="104"/>
      <point x="317" y="121" type="curve" smooth="yes"/>
      <point x="317" y="200"/>
      <point x="276" y="253"/>
      <point x="207" y="253" type="curve" smooth="yes"/>
      <point x="138" y="253"/>
      <point x="97" y="200"/>
      <point x="97" y="121" type="curve" smooth="yes"/>
      <point x="97" y="44"/>
      <point x="138" y="1"/>
      <point x="207" y="1" type="curve"/>
      <point x="207" y="37" type="line"/>
      <point x="148" y="54"/>
      <point x="114" y="133"/>
      <point x="114" y="258" type="curve" smooth="yes"/>
      <point x="114" y="370"/>
      <point x="167" y="421"/>
      <point x="246" y="421" type="curve" smooth="yes"/>
      <point x="327" y="421"/>
      <point x="374" y="374"/>
      <point x="374" y="259" type="curve" smooth="yes"/>
      <point x="374" y="232"/>
      <point x="371" y="196"/>
      <point x="365" y="170" type="curve"/>
    </contour>
    <contour>
      <point x="207" y="69" type="curve" smooth="yes"/>
      <point x="165" y="69"/>
      <point x="147" y="91"/>
      <point x="147" y="121" type="curve" smooth="yes"/>
      <point x="147" y="152"/>
      <point x="165" y="175"/>
      <point x="207" y="175" type="curve" smooth="yes"/>
      <point x="249" y="175"/>
      <point x="267" y="152"/>
      <point x="267" y="121" type="curve" smooth="yes"/>
      <point x="267" y="91"/>
      <point x="249" y="69"/>
    </contour>
  </outline>
</glyph>
<glyph name="aa_shn" format="2">
  <advance width="281"/>
  <unicode hex="1083"/>
  <outline>
    <contour>
      <point x="223" y="380" type="line" smooth="yes"/>
      <point x="223" y="499"/>
      <point x="180" y="545"/>
      <point x="95" y="545" type="curve" smooth="yes"/>
      <point x="66" y="545"/>
      <point x="37" y="540"/>
      <point x="20" y="532" type="curve"/>
      <point x="20" y="410" type="line"/>
      <point x="34" y="414"/>
      <point x="51" y="419"/>
      <point x="81" y="419" type="curve" smooth="yes"/>
      <point x="133" y="419"/>
      <point x="149" y="393"/>
      <point x="149" y="322" type="curve" smooth="yes"/>
      <point x="149" y="-359" type="line" smooth="yes"/>
      <point x="149" y="-485"/>
      <point x="187" y="-541"/>
      <point x="281" y="-541" type="curve" smooth="yes"/>
      <point x="292" y="-541"/>
      <point x="305" y="-541"/>
      <point x="315" y="-538" type="curve"/>
      <point x="315" y="-412" type="line"/>
      <point x="307" y="-414"/>
      <point x="299" y="-415"/>
      <point x="290" y="-415" type="curve" smooth="yes"/>
      <point x="246" y="-415"/>
      <point x="223" y="-393"/>
      <point x="223" y="-327" type="curve" smooth="yes"/>
    </contour>
  </outline>
</glyph>
<glyph name="_final_y_shn" format="2">
  <unicode hex="1086"/>
  <note>
Renamed from _f_above_shn
</note>
  <outline>
    <contour>
      <point x="-155" y="865" type="curve"/>
      <point x="-213" y="879" type="line"/>
      <point x="-228" y="786"/>
      <point x="-285" y="710"/>
      <point x="-342" y="649" type="curve"/>
      <point x="-291" y="599" type="line"/>
      <point x="-206" y="680"/>
      <point x="-134" y="803"/>
      <point x="-134" y="934" type="curve" smooth="yes"/>
      <point x="-134" y="1031"/>
      <point x="-175" y="1077"/>
      <point x="-244" y="1077" type="curve" smooth="yes"/>
      <point x="-313" y="1077"/>
      <point x="-354" y="1024"/>
      <point x="-354" y="946" type="curve" smooth="yes"/>
      <point x="-354" y="868"/>
      <point x="-313" y="815"/>
      <point x="-244" y="815" type="curve" smooth="yes"/>
      <point x="-203" y="815"/>
      <point x="-173" y="833"/>
    </contour>
    <contour>
      <point x="-244" y="893" type="curve" smooth="yes"/>
      <point x="-286" y="893"/>
      <point x="-304" y="915"/>
      <point x="-304" y="946" type="curve" smooth="yes"/>
      <point x="-304" y="976"/>
      <point x="-286" y="999"/>
      <point x="-244" y="999" type="curve" smooth="yes"/>
      <point x="-202" y="999"/>
      <point x="-184" y="976"/>
      <point x="-184" y="946" type="curve" smooth="yes"/>
      <point x="-184" y="915"/>
      <point x="-202" y="893"/>
    </contour>
  </outline>
</glyph>
<glyph name="tone2_shn" format="2">
  <advance width="300"/>
  <unicode hex="1087"/>
  <outline>
    <contour>
      <point x="102" y="-221" type="line"/>
      <point x="211" y="-131"/>
      <point x="260" y="-21"/>
      <point x="260" y="111" type="curve" smooth="yes"/>
      <point x="260" y="207"/>
      <point x="219" y="253"/>
      <point x="152" y="253" type="curve" smooth="yes"/>
      <point x="81" y="253"/>
      <point x="40" y="200"/>
      <point x="40" y="123" type="curve" smooth="yes"/>
      <point x="40" y="32"/>
      <point x="91" y="-9"/>
      <point x="143" y="-9" type="curve" smooth="yes"/>
      <point x="184" y="-9"/>
      <point x="213" y="2"/>
      <point x="234" y="31" type="curve"/>
      <point x="191" y="58" type="line"/>
      <point x="174" y="-20"/>
      <point x="152" y="-93"/>
      <point x="61" y="-176" type="curve"/>
    </contour>
    <contour>
      <point x="150" y="69" type="curve" smooth="yes"/>
      <point x="108" y="69"/>
      <point x="90" y="91"/>
      <point x="90" y="121" type="curve" smooth="yes"/>
      <point x="90" y="152"/>
      <point x="108" y="175"/>
      <point x="150" y="175" type="curve" smooth="yes"/>
      <point x="192" y="175"/>
      <point x="210" y="152"/>
      <point x="210" y="121" type="curve" smooth="yes"/>
      <point x="210" y="91"/>
      <point x="192" y="69"/>
    </contour>
  </outline>
</glyph>
<glyph name="tone6_shn" format="2">
  <advance width="451"/>
  <unicode hex="108A"/>
  <outline>
    <contour>
      <point x="214" y="353" type="curve"/>
      <point x="229" y="322" type="line"/>
      <point x="252" y="345"/>
      <point x="260" y="376"/>
      <point x="260" y="416" type="curve" smooth="yes"/>
      <point x="260" y="492"/>
      <point x="216" y="545"/>
      <point x="150" y="545" type="curve" smooth="yes"/>
      <point x="84" y="545"/>
      <point x="40" y="492"/>
      <point x="40" y="414" type="curve" smooth="yes"/>
      <point x="40" y="341"/>
      <point x="78" y="283"/>
      <point x="201" y="283" type="curve" smooth="yes"/>
      <point x="307" y="283"/>
      <point x="390" y="337"/>
      <point x="421" y="435" type="curve"/>
      <point x="372" y="472" type="line"/>
      <point x="342" y="397"/>
      <point x="297" y="353"/>
    </contour>
    <contour>
      <point x="150" y="361" type="curve" smooth="yes"/>
      <point x="107" y="361"/>
      <point x="90" y="383"/>
      <point x="90" y="413" type="curve" smooth="yes"/>
      <point x="90" y="444"/>
      <point x="107" y="467"/>
      <point x="150" y="467" type="curve" smooth="yes"/>
      <point x="192" y="467"/>
      <point x="210" y="444"/>
      <point x="210" y="413" type="curve" smooth="yes"/>
      <point x="210" y="383"/>
      <point x="192" y="361"/>
    </contour>
    <contour>
      <point x="214" y="61" type="curve"/>
      <point x="229" y="30" type="line"/>
      <point x="252" y="53"/>
      <point x="260" y="84"/>
      <point x="260" y="125" type="curve" smooth="yes"/>
      <point x="260" y="200"/>
      <point x="216" y="253"/>
      <point x="150" y="253" type="curve" smooth="yes"/>
      <point x="84" y="253"/>
      <point x="40" y="200"/>
      <point x="40" y="123" type="curve" smooth="yes"/>
      <point x="40" y="49"/>
      <point x="78" y="-9"/>
      <point x="201" y="-9" type="curve" smooth="yes"/>
      <point x="307" y="-9"/>
      <point x="390" y="45"/>
      <point x="421" y="143" type="curve"/>
      <point x="372" y="180" type="line"/>
      <point x="342" y="105"/>
      <point x="297" y="61"/>
    </contour>
    <contour>
      <point x="150" y="69" type="curve" smooth="yes"/>
      <point x="107" y="69"/>
      <point x="90" y="91"/>
      <point x="90" y="121" type="curve" smooth="yes"/>
      <point x="90" y="152"/>
      <point x="107" y="175"/>
      <point x="150" y="175" type="curve" smooth="yes"/>
      <point x="192" y="175"/>
      <point x="210" y="152"/>
      <point x="210" y="121" type="curve" smooth="yes"/>
      <point x="210" y="91"/>
      <point x="192" y="69"/>
    </contour>
  </outline>
</glyph>
<glyph name="zero_shn" format="2">
  <advance width="500"/>
  <unicode hex="1090"/>
  <outline>
    <contour>
      <point x="442" y="268" type="line" smooth="yes"/>
      <point x="442" y="354"/>
      <point x="431" y="416"/>
      <point x="404" y="462" type="curve" smooth="yes"/>
      <point x="373" y="514"/>
      <point x="322" y="545"/>
      <point x="258" y="545" type="curve" smooth="yes"/>
      <point x="242" y="545" type="line" smooth="yes"/>
      <point x="178" y="545"/>
      <point x="127" y="514"/>
      <point x="96" y="462" type="curve" smooth="yes"/>
      <point x="69" y="416"/>
      <point x="58" y="354"/>
      <point x="58" y="268" type="curve" smooth="yes"/>
      <point x="58" y="-164" type="line" smooth="yes"/>
      <point x="58" y="-250"/>
      <point x="69" y="-312"/>
      <point x="96" y="-358" type="curve" smooth="yes"/>
      <point x="127" y="-410"/>
      <point x="178" y="-441"/>
      <point x="242" y="-441" type="curve" smooth="yes"/>
      <point x="258" y="-441" type="line" smooth="yes"/>
      <point x="322" y="-441"/>
      <point x="373" y="-410"/>
      <point x="404" y="-358" type="curve" smooth="yes"/>
      <point x="431" y="-312"/>
      <point x="442" y="-250"/>
      <point x="442" y="-164" type="curve" smooth="yes"/>
    </contour>
    <contour>
      <point x="375" y="271" type="curve" smooth="yes"/>
      <point x="375" y="-167" type="line" smooth="yes"/>
      <point x="375" y="-268"/>
      <point x="323" y="-318"/>
      <point x="250" y="-318" type="curve" smooth="yes"/>
      <point x="177" y="-318"/>
      <point x="125" y="-268"/>
      <point x="125" y="-167" type="curve" smooth="yes"/>
      <point x="125" y="271" type="line" smooth="yes"/>
      <point x="125" y="372"/>
      <point x="177" y="422"/>
      <point x="250" y="422" type="curve" smooth="yes"/>
      <point x="323" y="422"/>
      <point x="375" y="372"/>
    </contour>
  </outline>
</glyph>
<glyph name="one_shn" format="2">
  <advance width="333"/>
  <unicode hex="1091"/>
  <outline>
    <contour>
      <point x="220" y="536" type="line"/>
      <point x="161" y="536" type="line"/>
      <point x="43" y="437" type="line"/>
      <point x="43" y="301" type="line"/>
      <point x="146" y="392" type="line"/>
      <point x="146" y="-233" type="line" smooth="yes"/>
      <point x="146" y="-389"/>
      <point x="190" y="-441"/>
      <point x="281" y="-441" type="curve" smooth="yes"/>
      <point x="291" y="-441"/>
      <point x="296" y="-440"/>
      <point x="300" y="-439" type="curve"/>
      <point x="301" y="-312" type="line"/>
      <point x="297" y="-312" type="line" smooth="yes"/>
      <point x="238" y="-312"/>
      <point x="220" y="-286"/>
      <point x="220" y="-201" type="curve"/>
    </contour>
  </outline>
</glyph>
<glyph name="two_shn" format="2">
  <advance width="485"/>
  <unicode hex="1092"/>
  <outline>
    <contour>
      <point x="109" y="546" type="curve"/>
      <point x="46" y="546" type="line"/>
      <point x="36" y="533"/>
      <point x="26" y="503"/>
      <point x="26" y="472" type="curve" smooth="yes"/>
      <point x="26" y="417"/>
      <point x="58" y="370"/>
      <point x="118" y="370" type="curve" smooth="yes"/>
      <point x="182" y="370"/>
      <point x="208" y="423"/>
      <point x="270" y="423" type="curve" smooth="yes"/>
      <point x="337" y="423"/>
      <point x="357" y="362"/>
      <point x="357" y="296" type="curve" smooth="yes"/>
      <point x="357" y="22"/>
      <point x="18" y="8"/>
      <point x="18" y="-309" type="curve" smooth="yes"/>
      <point x="18" y="-361"/>
      <point x="27" y="-406"/>
      <point x="41" y="-432" type="curve"/>
      <point x="168" y="-432" type="line"/>
      <point x="172" y="-421" type="line"/>
      <point x="155" y="-384"/>
      <point x="146" y="-341"/>
      <point x="146" y="-286" type="curve" smooth="yes"/>
      <point x="146" y="5"/>
      <point x="433" y="8"/>
      <point x="433" y="327" type="curve" smooth="yes"/>
      <point x="433" y="438"/>
      <point x="401" y="546"/>
      <point x="301" y="546" type="curve" smooth="yes"/>
      <point x="222" y="546"/>
      <point x="196" y="478"/>
      <point x="144" y="478" type="curve" smooth="yes"/>
      <point x="118" y="478"/>
      <point x="107" y="496"/>
      <point x="107" y="528" type="curve" smooth="yes"/>
      <point x="107" y="536"/>
      <point x="108" y="542"/>
    </contour>
  </outline>
</glyph>
<glyph name="three_shn" format="2">
  <advance width="444"/>
  <unicode hex="1093"/>
  <outline>
    <contour>
      <point x="306" y="536" type="line"/>
      <point x="79" y="536" type="line"/>
      <point x="79" y="413" type="line"/>
      <point x="211" y="413" type="line"/>
      <point x="20" y="-432" type="line"/>
      <point x="93" y="-432" type="line"/>
      <point x="309" y="525" type="line"/>
    </contour>
    <contour>
      <point x="197" y="100" type="line"/>
      <point x="144" y="-24" type="line"/>
      <point x="216" y="-24" type="line" smooth="yes"/>
      <point x="281" y="-24"/>
      <point x="295" y="-50"/>
      <point x="309" y="-155" type="curve" smooth="yes"/>
      <point x="321" y="-245"/>
      <point x="328" y="-333"/>
      <point x="333" y="-432" type="curve"/>
      <point x="418" y="-432" type="line"/>
      <point x="403" y="-311"/>
      <point x="386" y="-233"/>
      <point x="363" y="-110" type="curve" smooth="yes"/>
      <point x="338" y="27"/>
      <point x="317" y="100"/>
      <point x="245" y="100" type="curve" smooth="yes"/>
    </contour>
  </outline>
</glyph>
<glyph name="four_shn" format="2">
  <advance width="583"/>
  <unicode hex="1094"/>
  <outline>
    <contour>
      <point x="337" y="536" type="line"/>
      <point x="105" y="536" type="line"/>
      <point x="105" y="413" type="line"/>
      <point x="227" y="413" type="line"/>
      <point x="121" y="-230" type="line" smooth="yes"/>
      <point x="110" y="-295"/>
      <point x="90" y="-313"/>
      <point x="54" y="-313" type="curve" smooth="yes"/>
      <point x="48" y="-313"/>
      <point x="39" y="-312"/>
      <point x="31" y="-309" type="curve"/>
      <point x="6" y="-434" type="line"/>
      <point x="25" y="-439"/>
      <point x="47" y="-441"/>
      <point x="60" y="-441" type="curve" smooth="yes"/>
      <point x="130" y="-441"/>
      <point x="162" y="-403"/>
      <point x="173" y="-333" type="curve" smooth="yes"/>
      <point x="304" y="495" type="line"/>
      <point x="278" y="495" type="line"/>
      <point x="410" y="-333" type="line" smooth="yes"/>
      <point x="421" y="-403"/>
      <point x="453" y="-441"/>
      <point x="523" y="-441" type="curve" smooth="yes"/>
      <point x="536" y="-441"/>
      <point x="558" y="-439"/>
      <point x="577" y="-434" type="curve"/>
      <point x="552" y="-309" type="line"/>
      <point x="544" y="-312"/>
      <point x="535" y="-313"/>
      <point x="529" y="-313" type="curve" smooth="yes"/>
      <point x="493" y="-313"/>
      <point x="474" y="-295"/>
      <point x="463" y="-230" type="curve" smooth="yes"/>
    </contour>
  </outline>
</glyph>
<glyph name="six_shn" format="2">
  <advance width="546"/>
  <unicode hex="1096"/>
  <outline>
    <contour>
      <point x="502" y="114" type="line"/>
      <point x="244" y="114" type="line" smooth="yes"/>
      <point x="168" y="114"/>
      <point x="114" y="167"/>
      <point x="114" y="259" type="curve" smooth="yes"/>
      <point x="114" y="277" type="line" smooth="yes"/>
      <point x="114" y="369"/>
      <point x="168" y="421"/>
      <point x="244" y="421" type="curve" smooth="yes"/>
      <point x="320" y="421"/>
      <point x="374" y="368"/>
      <point x="374" y="275" type="curve" smooth="yes"/>
      <point x="374" y="257" type="line" smooth="yes"/>
      <point x="374" y="48"/>
      <point x="299" y="-202"/>
      <point x="222" y="-432" type="curve"/>
      <point x="357" y="-432" type="line"/>
      <point x="398" y="-206"/>
      <point x="436" y="92"/>
      <point x="436" y="266" type="curve" smooth="yes"/>
      <point x="436" y="425"/>
      <point x="389" y="545"/>
      <point x="252" y="545" type="curve" smooth="yes"/>
      <point x="236" y="545" type="line" smooth="yes"/>
      <point x="172" y="545"/>
      <point x="121" y="514"/>
      <point x="90" y="462" type="curve" smooth="yes"/>
      <point x="63" y="416"/>
      <point x="52" y="354"/>
      <point x="52" y="268" type="curve" smooth="yes"/>
      <point x="52" y="110"/>
      <point x="99" y="-9"/>
      <point x="236" y="-9" type="curve" smooth="yes"/>
      <point x="502" y="-9" type="line"/>
    </contour>
  </outline>
</glyph>
<glyph name="seven_shn" format="2">
  <advance width="472"/>
  <unicode hex="1097"/>
  <outline>
    <contour>
      <point x="456" y="473" type="line"/>
      <point x="422" y="516"/>
      <point x="354" y="545"/>
      <point x="265" y="545" type="curve" smooth="yes"/>
      <point x="233" y="545" type="line" smooth="yes"/>
      <point x="86" y="545"/>
      <point x="32" y="484"/>
      <point x="32" y="370" type="curve" smooth="yes"/>
      <point x="32" y="355"/>
      <point x="33" y="338"/>
      <point x="37" y="323" type="curve"/>
      <point x="92" y="323" type="line"/>
      <point x="92" y="401"/>
      <point x="133" y="421"/>
      <point x="218" y="421" type="curve" smooth="yes"/>
      <point x="284" y="421"/>
      <point x="328" y="409"/>
      <point x="351" y="391" type="curve"/>
      <point x="51" y="-404" type="line"/>
      <point x="83" y="-430"/>
      <point x="155" y="-442"/>
      <point x="216" y="-442" type="curve" smooth="yes"/>
      <point x="347" y="-442"/>
      <point x="393" y="-386"/>
      <point x="393" y="-272" type="curve" smooth="yes"/>
      <point x="393" y="-255"/>
      <point x="392" y="-239"/>
      <point x="389" y="-224" type="curve"/>
      <point x="343" y="-224" type="line"/>
      <point x="343" y="-304"/>
      <point x="305" y="-320"/>
      <point x="224" y="-320" type="curve" smooth="yes"/>
      <point x="195" y="-320"/>
      <point x="177" y="-318"/>
      <point x="159" y="-313" type="curve"/>
    </contour>
  </outline>
</glyph>
<glyph name="eight_shn" format="2">
  <advance width="496"/>
  <unicode hex="1098"/>
  <outline>
    <contour>
      <point x="55" y="399" type="curve" smooth="yes"/>
      <point x="55" y="84"/>
      <point x="368" y="54"/>
      <point x="368" y="-174" type="curve" smooth="yes"/>
      <point x="368" y="-254"/>
      <point x="336" y="-317"/>
      <point x="254" y="-317" type="curve" smooth="yes"/>
      <point x="242" y="-317" type="line" smooth="yes"/>
      <point x="160" y="-317"/>
      <point x="129" y="-254"/>
      <point x="129" y="-174" type="curve" smooth="yes"/>
      <point x="129" y="54"/>
      <point x="441" y="84"/>
      <point x="441" y="399" type="curve" smooth="yes"/>
      <point x="441" y="461"/>
      <point x="430" y="508"/>
      <point x="417" y="536" type="curve"/>
      <point x="313" y="536" type="line"/>
      <point x="310" y="525" type="line"/>
      <point x="330" y="486"/>
      <point x="345" y="435"/>
      <point x="345" y="369" type="curve" smooth="yes"/>
      <point x="345" y="74"/>
      <point x="52" y="88"/>
      <point x="52" y="-203" type="curve" smooth="yes"/>
      <point x="52" y="-330"/>
      <point x="111" y="-441"/>
      <point x="236" y="-441" type="curve" smooth="yes"/>
      <point x="260" y="-441" type="line" smooth="yes"/>
      <point x="385" y="-441"/>
      <point x="444" y="-330"/>
      <point x="444" y="-203" type="curve" smooth="yes"/>
      <point x="444" y="88"/>
      <point x="151" y="74"/>
      <point x="151" y="369" type="curve" smooth="yes"/>
      <point x="151" y="435"/>
      <point x="165" y="486"/>
      <point x="185" y="525" type="curve"/>
      <point x="183" y="536" type="line"/>
      <point x="79" y="536" type="line"/>
      <point x="65" y="508"/>
      <point x="55" y="461"/>
    </contour>
  </outline>
</glyph>
<glyph name="tone1_khm" format="2">
  <advance width="260"/>
  <unicode hex="109A"/>
  <outline>
    <contour>
      <point x="130" y="333" type="curve" smooth="yes"/>
      <point x="185" y="333"/>
      <point x="220" y="376"/>
      <point x="220" y="438" type="curve" smooth="yes"/>
      <point x="220" y="502"/>
      <point x="185" y="545"/>
      <point x="130" y="545" type="curve" smooth="yes"/>
      <point x="74" y="545"/>
      <point x="40" y="502"/>
      <point x="40" y="438" type="curve" smooth="yes"/>
      <point x="40" y="376"/>
      <point x="74" y="333"/>
    </contour>
  </outline>
</glyph>
<glyph name="_a_atn" format="2">
  <advance width="347"/>
  <unicode hex="109C"/>
  <outline>
    <contour>
      <point x="313" y="437" type="line"/>
      <point x="257" y="508"/>
      <point x="206" y="536"/>
      <point x="153" y="536" type="curve" smooth="yes"/>
      <point x="81" y="536"/>
      <point x="40" y="486"/>
      <point x="40" y="408" type="curve" smooth="yes"/>
      <point x="40" y="347"/>
      <point x="68" y="306"/>
      <point x="112" y="306" type="curve" smooth="yes"/>
      <point x="157" y="306"/>
      <point x="184" y="347"/>
      <point x="184" y="394" type="curve" smooth="yes"/>
      <point x="184" y="441"/>
      <point x="150" y="477"/>
      <point x="116" y="477" type="curve" smooth="yes"/>
      <point x="106" y="477"/>
      <point x="96" y="474"/>
      <point x="90" y="465" type="curve"/>
      <point x="99" y="453" type="line"/>
      <point x="112" y="462"/>
      <point x="131" y="468"/>
      <point x="151" y="468" type="curve" smooth="yes"/>
      <point x="186" y="468"/>
      <point x="227" y="449"/>
      <point x="280" y="391" type="curve"/>
    </contour>
    <contour>
      <point x="313" y="131" type="line"/>
      <point x="257" y="202"/>
      <point x="206" y="230"/>
      <point x="154" y="230" type="curve" smooth="yes"/>
      <point x="81" y="230"/>
      <point x="40" y="180"/>
      <point x="40" y="103" type="curve" smooth="yes"/>
      <point x="40" y="41"/>
      <point x="68" y="0"/>
      <point x="112" y="0" type="curve" smooth="yes"/>
      <point x="156" y="0"/>
      <point x="184" y="42"/>
      <point x="184" y="89" type="curve" smooth="yes"/>
      <point x="184" y="135"/>
      <point x="150" y="172"/>
      <point x="117" y="172" type="curve" smooth="yes"/>
      <point x="107" y="172"/>
      <point x="97" y="168"/>
      <point x="90" y="159" type="curve"/>
      <point x="99" y="148" type="line"/>
      <point x="112" y="156"/>
      <point x="131" y="162"/>
      <point x="151" y="162" type="curve" smooth="yes"/>
      <point x="186" y="162"/>
      <point x="227" y="143"/>
      <point x="280" y="86" type="curve"/>
    </contour>
  </outline>
</glyph>
<glyph name="_ai_phk" format="2">
  <unicode hex="109D"/>
  <outline>
    <contour>
      <point x="-184" y="799" type="curve"/>
      <point x="-223" y="838" type="line"/>
      <point x="-223" y="796"/>
      <point x="-246" y="778"/>
      <point x="-289" y="778" type="curve" smooth="yes"/>
      <point x="-326" y="778"/>
      <point x="-347" y="810"/>
      <point x="-347" y="861" type="curve" smooth="yes"/>
      <point x="-347" y="936"/>
      <point x="-305" y="964"/>
      <point x="-242" y="964" type="curve" smooth="yes"/>
      <point x="-173" y="964"/>
      <point x="-125" y="918"/>
      <point x="-125" y="799" type="curve" smooth="yes"/>
      <point x="-125" y="716"/>
      <point x="-141" y="612"/>
      <point x="-180" y="493" type="curve"/>
      <point x="-127" y="479" type="line"/>
      <point x="-79" y="614"/>
      <point x="-56" y="722"/>
      <point x="-58" y="832" type="curve" smooth="yes"/>
      <point x="-58" y="985"/>
      <point x="-118" y="1077"/>
      <point x="-233" y="1077" type="curve" smooth="yes"/>
      <point x="-350" y="1077"/>
      <point x="-407" y="989"/>
      <point x="-407" y="869" type="curve" smooth="yes"/>
      <point x="-407" y="770"/>
      <point x="-359" y="703"/>
      <point x="-277" y="703" type="curve" smooth="yes"/>
      <point x="-215" y="703"/>
      <point x="-175" y="738"/>
      <point x="-175" y="821" type="curve" smooth="yes"/>
      <point x="-175" y="870"/>
      <point x="-205" y="902"/>
      <point x="-248" y="902" type="curve" smooth="yes"/>
      <point x="-291" y="902"/>
      <point x="-321" y="870"/>
      <point x="-321" y="822" type="curve" smooth="yes"/>
      <point x="-321" y="775"/>
      <point x="-291" y="742"/>
      <point x="-248" y="742" type="curve" smooth="yes"/>
      <point x="-216" y="742"/>
      <point x="-193" y="788"/>
    </contour>
  </outline>
</glyph>
<glyph name="exclam_shn" format="2">
  <advance width="684"/>
  <unicode hex="109F"/>
  <outline>
    <contour>
      <point x="626" y="10" type="line"/>
      <point x="552" y="10" type="line"/>
      <point x="552" y="-357" type="line" smooth="yes"/>
      <point x="552" y="-411"/>
      <point x="528" y="-427"/>
      <point x="494" y="-427" type="curve" smooth="yes"/>
      <point x="460" y="-427"/>
      <point x="436" y="-411"/>
      <point x="436" y="-357" type="curve" smooth="yes"/>
      <point x="436" y="268" type="line" smooth="yes"/>
      <point x="436" y="354"/>
      <point x="425" y="416"/>
      <point x="398" y="462" type="curve" smooth="yes"/>
      <point x="367" y="514"/>
      <point x="316" y="545"/>
      <point x="252" y="545" type="curve" smooth="yes"/>
      <point x="236" y="545" type="line" smooth="yes"/>
      <point x="172" y="545"/>
      <point x="121" y="514"/>
      <point x="90" y="462" type="curve" smooth="yes"/>
      <point x="63" y="416"/>
      <point x="52" y="354"/>
      <point x="52" y="268" type="curve" smooth="yes"/>
      <point x="52" y="182"/>
      <point x="59" y="120"/>
      <point x="90" y="70" type="curve" smooth="yes"/>
      <point x="121" y="19"/>
      <point x="160" y="-9"/>
      <point x="207" y="-9" type="curve" smooth="yes"/>
      <point x="274" y="-9"/>
      <point x="301" y="49"/>
      <point x="301" y="152" type="curve"/>
      <point x="280" y="121"/>
      <point x="256" y="85"/>
      <point x="208" y="85" type="curve" smooth="yes"/>
      <point x="152" y="85"/>
      <point x="114" y="142"/>
      <point x="114" y="233" type="curve" smooth="yes"/>
      <point x="114" y="277" type="line" smooth="yes"/>
      <point x="114" y="369"/>
      <point x="166" y="421"/>
      <point x="238" y="421" type="curve" smooth="yes"/>
      <point x="312" y="421"/>
      <point x="364" y="365"/>
      <point x="364" y="266" type="curve" smooth="yes"/>
      <point x="364" y="-391" type="line" smooth="yes"/>
      <point x="364" y="-479"/>
      <point x="405" y="-541"/>
      <point x="488" y="-541" type="curve" smooth="yes"/>
      <point x="502" y="-541" type="line" smooth="yes"/>
      <point x="583" y="-541"/>
      <point x="626" y="-482"/>
      <point x="626" y="-391" type="curve" smooth="yes"/>
    </contour>
    <contour>
      <point x="211" y="24" type="curve" smooth="yes"/>
      <point x="276" y="24"/>
      <point x="301" y="76"/>
      <point x="301" y="152" type="curve" smooth="yes"/>
      <point x="301" y="230"/>
      <point x="276" y="282"/>
      <point x="211" y="282" type="curve" smooth="yes"/>
      <point x="146" y="282"/>
      <point x="121" y="230"/>
      <point x="121" y="152" type="curve" smooth="yes"/>
      <point x="121" y="76"/>
      <point x="146" y="24"/>
    </contour>
    <contour>
      <point x="211" y="100" type="curve" smooth="yes"/>
      <point x="177" y="100"/>
      <point x="163" y="122"/>
      <point x="163" y="152" type="curve" smooth="yes"/>
      <point x="163" y="183"/>
      <point x="177" y="206"/>
      <point x="211" y="206" type="curve" smooth="yes"/>
      <point x="245" y="206"/>
      <point x="259" y="183"/>
      <point x="259" y="152" type="curve" smooth="yes"/>
      <point x="259" y="122"/>
      <point x="245" y="100"/>
    </contour>
    <component base="asatstem" xOffset="494"/>
  </outline>
</glyph>
<glyph name="quoteright" format="2">
  <advance width="300"/>
  <unicode hex="2019"/>
  <outline>
    <contour>
      <point x="260" y="845" type="curve"/>
      <point x="146" y="721" type="line"/>
      <point x="129" y="678"/>
      <point x="103" y="631"/>
      <point x="57" y="570" type="curve"/>
      <point x="115" y="535" type="line"/>
      <point x="177" y="593"/>
      <point x="260" y="712"/>
    </contour>
    <contour>
      <point x="150" y="715" type="curve" smooth="yes"/>
      <point x="219" y="715"/>
      <point x="260" y="768"/>
      <point x="260" y="845" type="curve" smooth="yes"/>
      <point x="260" y="924"/>
      <point x="219" y="977"/>
      <point x="150" y="977" type="curve" smooth="yes"/>
      <point x="81" y="977"/>
      <point x="40" y="924"/>
      <point x="40" y="845" type="curve" smooth="yes"/>
      <point x="40" y="768"/>
      <point x="81" y="715"/>
    </contour>
    <contour>
      <point x="150" y="793" type="curve" smooth="yes"/>
      <point x="108" y="793"/>
      <point x="90" y="815"/>
      <point x="90" y="845" type="curve" smooth="yes"/>
      <point x="90" y="876"/>
      <point x="108" y="899"/>
      <point x="150" y="899" type="curve" smooth="yes"/>
      <point x="192" y="899"/>
      <point x="210" y="876"/>
      <point x="210" y="845" type="curve" smooth="yes"/>
      <point x="210" y="815"/>
      <point x="192" y="793"/>
    </contour>
  </outline>
</glyph>
<glyph name="ellipsis" format="2">
  <advance width="900"/>
  <unicode hex="2026"/>
  <outline>
    <contour>
      <point x="150" y="-16" type="curve" smooth="yes"/>
      <point x="219" y="-16"/>
      <point x="260" y="37"/>
      <point x="260" y="114" type="curve" smooth="yes"/>
      <point x="260" y="193"/>
      <point x="219" y="246"/>
      <point x="150" y="246" type="curve" smooth="yes"/>
      <point x="81" y="246"/>
      <point x="40" y="193"/>
      <point x="40" y="114" type="curve" smooth="yes"/>
      <point x="40" y="37"/>
      <point x="81" y="-16"/>
    </contour>
    <contour>
      <point x="150" y="62" type="curve" smooth="yes"/>
      <point x="108" y="62"/>
      <point x="90" y="84"/>
      <point x="90" y="114" type="curve" smooth="yes"/>
      <point x="90" y="145"/>
      <point x="108" y="168"/>
      <point x="150" y="168" type="curve" smooth="yes"/>
      <point x="192" y="168"/>
      <point x="210" y="145"/>
      <point x="210" y="114" type="curve" smooth="yes"/>
      <point x="210" y="84"/>
      <point x="192" y="62"/>
    </contour>
    <contour>
      <point x="450" y="-16" type="curve" smooth="yes"/>
      <point x="519" y="-16"/>
      <point x="560" y="37"/>
      <point x="560" y="114" type="curve" smooth="yes"/>
      <point x="560" y="193"/>
      <point x="519" y="246"/>
      <point x="450" y="246" type="curve" smooth="yes"/>
      <point x="381" y="246"/>
      <point x="340" y="193"/>
      <point x="340" y="114" type="curve" smooth="yes"/>
      <point x="340" y="37"/>
      <point x="381" y="-16"/>
    </contour>
    <contour>
      <point x="450" y="62" type="curve" smooth="yes"/>
      <point x="408" y="62"/>
      <point x="390" y="84"/>
      <point x="390" y="114" type="curve" smooth="yes"/>
      <point x="390" y="145"/>
      <point x="408" y="168"/>
      <point x="450" y="168" type="curve" smooth="yes"/>
      <point x="492" y="168"/>
      <point x="510" y="145"/>
      <point x="510" y="114" type="curve" smooth="yes"/>
      <point x="510" y="84"/>
      <point x="492" y="62"/>
    </contour>
    <contour>
      <point x="750" y="-16" type="curve" smooth="yes"/>
      <point x="819" y="-16"/>
      <point x="860" y="37"/>
      <point x="860" y="114" type="curve" smooth="yes"/>
      <point x="860" y="193"/>
      <point x="819" y="246"/>
      <point x="750" y="246" type="curve" smooth="yes"/>
      <point x="681" y="246"/>
      <point x="640" y="193"/>
      <point x="640" y="114" type="curve" smooth="yes"/>
      <point x="640" y="37"/>
      <point x="681" y="-16"/>
    </contour>
    <contour>
      <point x="750" y="62" type="curve" smooth="yes"/>
      <point x="708" y="62"/>
      <point x="690" y="84"/>
      <point x="690" y="114" type="curve" smooth="yes"/>
      <point x="690" y="145"/>
      <point x="708" y="168"/>
      <point x="750" y="168" type="curve" smooth="yes"/>
      <point x="792" y="168"/>
      <point x="810" y="145"/>
      <point x="810" y="114" type="curve" smooth="yes"/>
      <point x="810" y="84"/>
      <point x="792" y="62"/>
    </contour>
  </outline>
</glyph>
<glyph name="uni25CC" format="2">
  <advance width="417"/>
  <unicode hex="25CC"/>
  <note>
uni25CC
</note>
  <outline>
    <contour>
      <point x="316" y="399" type="curve" smooth="yes"/>
      <point x="326" y="399"/>
      <point x="333" y="409"/>
      <point x="333" y="425" type="curve" smooth="yes"/>
      <point x="333" y="441"/>
      <point x="326" y="452"/>
      <point x="316" y="452" type="curve" smooth="yes"/>
      <point x="305" y="452"/>
      <point x="297" y="441"/>
      <point x="297" y="425" type="curve" smooth="yes"/>
      <point x="297" y="409"/>
      <point x="305" y="399"/>
    </contour>
    <contour>
      <point x="266" y="447" type="curve" smooth="yes"/>
      <point x="276" y="447"/>
      <point x="283" y="457"/>
      <point x="283" y="473" type="curve" smooth="yes"/>
      <point x="283" y="489"/>
      <point x="276" y="500"/>
      <point x="266" y="500" type="curve" smooth="yes"/>
      <point x="254" y="500"/>
      <point x="246" y="489"/>
      <point x="246" y="473" type="curve" smooth="yes"/>
      <point x="246" y="457"/>
      <point x="254" y="447"/>
    </contour>
    <contour>
      <point x="349" y="326" type="curve" smooth="yes"/>
      <point x="360" y="326"/>
      <point x="367" y="337"/>
      <point x="367" y="353" type="curve" smooth="yes"/>
      <point x="367" y="369"/>
      <point x="360" y="379"/>
      <point x="349" y="379" type="curve" smooth="yes"/>
      <point x="338" y="379"/>
      <point x="330" y="369"/>
      <point x="330" y="353" type="curve" smooth="yes"/>
      <point x="330" y="337"/>
      <point x="338" y="326"/>
    </contour>
    <contour>
      <point x="362" y="242" type="curve" smooth="yes"/>
      <point x="372" y="242"/>
      <point x="379" y="252"/>
      <point x="379" y="268" type="curve" smooth="yes"/>
      <point x="379" y="284"/>
      <point x="372" y="294"/>
      <point x="362" y="294" type="curve" smooth="yes"/>
      <point x="351" y="294"/>
      <point x="343" y="284"/>
      <point x="343" y="268" type="curve" smooth="yes"/>
      <point x="343" y="252"/>
      <point x="351" y="242"/>
    </contour>
    <contour>
      <point x="206" y="464" type="curve" smooth="yes"/>
      <point x="217" y="464"/>
      <point x="224" y="475"/>
      <point x="224" y="491" type="curve" smooth="yes"/>
      <point x="224" y="507"/>
      <point x="217" y="517"/>
      <point x="206" y="517" type="curve" smooth="yes"/>
      <point x="195" y="517"/>
      <point x="188" y="507"/>
      <point x="188" y="491" type="curve" smooth="yes"/>
      <point x="188" y="475"/>
      <point x="195" y="464"/>
    </contour>
    <contour>
      <point x="147" y="447" type="curve" smooth="yes"/>
      <point x="158" y="447"/>
      <point x="166" y="457"/>
      <point x="166" y="473" type="curve" smooth="yes"/>
      <point x="166" y="489"/>
      <point x="158" y="500"/>
      <point x="147" y="500" type="curve" smooth="yes"/>
      <point x="136" y="500"/>
      <point x="129" y="489"/>
      <point x="129" y="473" type="curve" smooth="yes"/>
      <point x="129" y="457"/>
      <point x="136" y="447"/>
    </contour>
    <contour>
      <point x="349" y="157" type="curve" smooth="yes"/>
      <point x="360" y="157"/>
      <point x="367" y="167"/>
      <point x="367" y="183" type="curve" smooth="yes"/>
      <point x="367" y="199"/>
      <point x="360" y="210"/>
      <point x="349" y="210" type="curve" smooth="yes"/>
      <point x="338" y="210"/>
      <point x="330" y="199"/>
      <point x="330" y="183" type="curve" smooth="yes"/>
      <point x="330" y="167"/>
      <point x="338" y="157"/>
    </contour>
    <contour>
      <point x="97" y="399" type="curve" smooth="yes"/>
      <point x="108" y="399"/>
      <point x="116" y="409"/>
      <point x="116" y="425" type="curve" smooth="yes"/>
      <point x="116" y="441"/>
      <point x="108" y="452"/>
      <point x="97" y="452" type="curve" smooth="yes"/>
      <point x="86" y="452"/>
      <point x="79" y="441"/>
      <point x="79" y="424" type="curve" smooth="yes"/>
      <point x="79" y="409"/>
      <point x="86" y="399"/>
    </contour>
    <contour>
      <point x="316" y="84" type="curve" smooth="yes"/>
      <point x="326" y="84"/>
      <point x="333" y="94"/>
      <point x="333" y="110" type="curve" smooth="yes"/>
      <point x="333" y="126"/>
      <point x="326" y="137"/>
      <point x="316" y="137" type="curve" smooth="yes"/>
      <point x="305" y="137"/>
      <point x="297" y="126"/>
      <point x="297" y="110" type="curve" smooth="yes"/>
      <point x="297" y="94"/>
      <point x="305" y="84"/>
    </contour>
    <contour>
      <point x="266" y="37" type="curve" smooth="yes"/>
      <point x="276" y="37"/>
      <point x="283" y="47"/>
      <point x="283" y="62" type="curve" smooth="yes"/>
      <point x="283" y="78"/>
      <point x="276" y="89"/>
      <point x="266" y="89" type="curve" smooth="yes"/>
      <point x="254" y="89"/>
      <point x="246" y="78"/>
      <point x="246" y="62" type="curve" smooth="yes"/>
      <point x="246" y="47"/>
      <point x="254" y="37"/>
    </contour>
    <contour>
      <point x="64" y="326" type="curve" smooth="yes"/>
      <point x="75" y="326"/>
      <point x="82" y="337"/>
      <point x="82" y="353" type="curve" smooth="yes"/>
      <point x="82" y="369"/>
      <point x="75" y="379"/>
      <point x="64" y="379" type="curve" smooth="yes"/>
      <point x="53" y="379"/>
      <point x="45" y="369"/>
      <point x="45" y="353" type="curve" smooth="yes"/>
      <point x="45" y="337"/>
      <point x="53" y="326"/>
    </contour>
    <contour>
      <point x="52" y="242" type="curve" smooth="yes"/>
      <point x="63" y="242"/>
      <point x="70" y="252"/>
      <point x="70" y="268" type="curve" smooth="yes"/>
      <point x="70" y="284"/>
      <point x="63" y="294"/>
      <point x="52" y="294" type="curve" smooth="yes"/>
      <point x="41" y="294"/>
      <point x="33" y="284"/>
      <point x="33" y="268" type="curve" smooth="yes"/>
      <point x="33" y="252"/>
      <point x="41" y="242"/>
    </contour>
    <contour>
      <point x="206" y="19" type="curve" smooth="yes"/>
      <point x="217" y="19"/>
      <point x="224" y="30"/>
      <point x="224" y="46" type="curve" smooth="yes"/>
      <point x="224" y="62"/>
      <point x="217" y="72"/>
      <point x="206" y="72" type="curve" smooth="yes"/>
      <point x="195" y="72"/>
      <point x="188" y="62"/>
      <point x="188" y="46" type="curve" smooth="yes"/>
      <point x="188" y="30"/>
      <point x="195" y="19"/>
    </contour>
    <contour>
      <point x="64" y="157" type="curve" smooth="yes"/>
      <point x="75" y="157"/>
      <point x="82" y="167"/>
      <point x="82" y="183" type="curve" smooth="yes"/>
      <point x="82" y="199"/>
      <point x="75" y="210"/>
      <point x="64" y="210" type="curve" smooth="yes"/>
      <point x="53" y="210"/>
      <point x="45" y="199"/>
      <point x="45" y="183" type="curve" smooth="yes"/>
      <point x="45" y="167"/>
      <point x="53" y="157"/>
    </contour>
    <contour>
      <point x="147" y="37" type="curve" smooth="yes"/>
      <point x="158" y="37"/>
      <point x="166" y="48"/>
      <point x="166" y="64" type="curve" smooth="yes"/>
      <point x="166" y="79"/>
      <point x="158" y="89"/>
      <point x="147" y="89" type="curve" smooth="yes"/>
      <point x="136" y="89"/>
      <point x="129" y="78"/>
      <point x="129" y="62" type="curve" smooth="yes"/>
      <point x="129" y="47"/>
      <point x="136" y="37"/>
    </contour>
    <contour>
      <point x="97" y="84" type="curve" smooth="yes"/>
      <point x="108" y="84"/>
      <point x="116" y="94"/>
      <point x="116" y="110" type="curve" smooth="yes"/>
      <point x="116" y="126"/>
      <point x="108" y="137"/>
      <point x="97" y="137" type="curve" smooth="yes"/>
      <point x="86" y="137"/>
      <point x="79" y="126"/>
      <point x="79" y="110" type="curve" smooth="yes"/>
      <point x="79" y="94"/>
      <point x="86" y="84"/>
    </contour>
  </outline>
</glyph>
<glyph name="uniA92E" format="2">
  <advance width="540"/>
  <unicode hex="A92E"/>
  <outline>
    <contour>
      <point x="270" y="312" type="curve" smooth="yes"/>
      <point x="134" y="312"/>
      <point x="51" y="230"/>
      <point x="14" y="54" type="curve"/>
      <point x="83" y="54" type="line"/>
      <point x="115" y="143"/>
      <point x="165" y="195"/>
      <point x="270" y="195" type="curve" smooth="yes"/>
      <point x="374" y="195"/>
      <point x="425" y="143"/>
      <point x="456" y="54" type="curve"/>
      <point x="526" y="54" type="line"/>
      <point x="489" y="230"/>
      <point x="405" y="312"/>
    </contour>
  </outline>
</glyph>
